Droid Devanagari-Bold.ufo
<glyph name="parenright" format="1">
  <advance width="819"/>
  <unicode hex="0029"/>
  <outline>
    <contour>
      <point x="373" y="814"/>
      <point x="359" y="971"/>
      <point x="315" y="1110" type="curve" smooth="yes"/>
      <point x="270" y="1249"/>
      <point x="193" y="1368"/>
      <point x="66" y="1452" type="curve"/>
      <point x="66" y="1581" type="line"/>
      <point x="294" y="1490"/>
      <point x="454" y="1368"/>
      <point x="556" y="1213" type="curve" smooth="yes"/>
      <point x="658" y="1058"/>
      <point x="702" y="871"/>
      <point x="702" y="651" type="curve" smooth="yes"/>
      <point x="702" y="430"/>
      <point x="658" y="242"/>
      <point x="556" y="86" type="curve" smooth="yes"/>
      <point x="454" y="-70"/>
      <point x="294" y="-193"/>
      <point x="66" y="-285" type="curve"/>
      <point x="66" y="-154" type="line"/>
      <point x="193" y="-70"/>
      <point x="270" y="50"/>
      <point x="315" y="190" type="curve" smooth="yes"/>
      <point x="359" y="329"/>
      <point x="373" y="488"/>
      <point x="373" y="651" type="curve" smooth="yes"/>
    </contour>
  </outline>
</glyph>
<glyph name="five" format="1">
  <advance width="1145"/>
  <unicode hex="0035"/>
  <outline>
    <contour>
      <point x="539" y="123"/>
      <point x="602" y="143"/>
      <point x="648" y="193" type="curve" smooth="yes"/>
      <point x="694" y="243"/>
      <point x="723" y="326"/>
      <point x="723" y="451" type="curve" smooth="yes"/>
      <point x="723" y="655"/>
      <point x="621" y="754"/>
      <point x="444" y="754" type="curve" smooth="yes"/>
      <point x="392" y="754"/>
      <point x="351" y="750"/>
      <point x="315" y="743" type="curve" smooth="yes"/>
      <point x="279" y="735"/>
      <point x="248" y="726"/>
      <point x="217" y="717" type="curve"/>
      <point x="123" y="754" type="line"/>
      <point x="188" y="1462" type="line"/>
      <point x="963" y="1462" type="line"/>
      <point x="973" y="1090" type="line"/>
      <point x="856" y="1090" type="line"/>
      <point x="840" y="1159" type="line"/>
      <point x="833" y="1183"/>
      <point x="827" y="1203"/>
      <point x="813" y="1216" type="curve" smooth="yes"/>
      <point x="799" y="1229"/>
      <point x="778" y="1237"/>
      <point x="745" y="1237" type="curve" smooth="yes"/>
      <point x="319" y="1237" type="line"/>
      <point x="319" y="1236"/>
      <point x="319" y="1231"/>
      <point x="318" y="1220" type="curve" smooth="yes"/>
      <point x="317" y="1209"/>
      <point x="315" y="1194"/>
      <point x="314" y="1176" type="curve" smooth="yes"/>
      <point x="313" y="1158"/>
      <point x="311" y="1138"/>
      <point x="309" y="1115" type="curve" smooth="yes"/>
      <point x="303" y="1046" type="line"/>
      <point x="287" y="858" type="line"/>
      <point x="308" y="866"/>
      <point x="344" y="874"/>
      <point x="384" y="880" type="curve" smooth="yes"/>
      <point x="424" y="886"/>
      <point x="471" y="889"/>
      <point x="512" y="889" type="curve" smooth="yes"/>
      <point x="671" y="889"/>
      <point x="801" y="852"/>
      <point x="893" y="780" type="curve" smooth="yes"/>
      <point x="984" y="707"/>
      <point x="1036" y="598"/>
      <point x="1036" y="451" type="curve" smooth="yes"/>
      <point x="1036" y="274"/>
      <point x="965" y="155"/>
      <point x="862" y="82" type="curve" smooth="yes"/>
      <point x="759" y="9"/>
      <point x="626" y="-20"/>
      <point x="502" y="-20" type="curve" smooth="yes"/>
      <point x="349" y="-20"/>
      <point x="244" y="10"/>
      <point x="177" y="56" type="curve" smooth="yes"/>
      <point x="110" y="102"/>
      <point x="82" y="163"/>
      <point x="82" y="227" type="curve" smooth="yes"/>
      <point x="82" y="323"/>
      <point x="146" y="369"/>
      <point x="246" y="369" type="curve"/>
      <point x="246" y="310"/>
      <point x="260" y="249"/>
      <point x="296" y="202" type="curve" smooth="yes"/>
      <point x="331" y="155"/>
      <point x="387" y="123"/>
      <point x="471" y="123" type="curve" smooth="yes"/>
    </contour>
  </outline>
</glyph>
<glyph name="colon" format="1">
  <advance width="623"/>
  <unicode hex="003A"/>
  <outline>
    <contour>
      <point x="143" y="1015"/>
      <point x="162" y="1056"/>
      <point x="192" y="1081" type="curve" smooth="yes"/>
      <point x="222" y="1106"/>
      <point x="264" y="1116"/>
      <point x="311" y="1116" type="curve" smooth="yes"/>
      <point x="356" y="1116"/>
      <point x="398" y="1106"/>
      <point x="429" y="1081" type="curve" smooth="yes"/>
      <point x="460" y="1056"/>
      <point x="479" y="1015"/>
      <point x="479" y="952" type="curve" smooth="yes"/>
      <point x="479" y="891"/>
      <point x="460" y="849"/>
      <point x="429" y="824" type="curve" smooth="yes"/>
      <point x="398" y="799"/>
      <point x="356" y="788"/>
      <point x="311" y="788" type="curve" smooth="yes"/>
      <point x="264" y="788"/>
      <point x="222" y="799"/>
      <point x="192" y="824" type="curve" smooth="yes"/>
      <point x="162" y="849"/>
      <point x="143" y="891"/>
      <point x="143" y="952" type="curve" smooth="yes"/>
    </contour>
    <contour>
      <point x="143" y="210"/>
      <point x="162" y="251"/>
      <point x="192" y="276" type="curve" smooth="yes"/>
      <point x="222" y="301"/>
      <point x="264" y="311"/>
      <point x="311" y="311" type="curve" smooth="yes"/>
      <point x="356" y="311"/>
      <point x="398" y="301"/>
      <point x="429" y="276" type="curve" smooth="yes"/>
      <point x="460" y="251"/>
      <point x="479" y="210"/>
      <point x="479" y="147" type="curve" smooth="yes"/>
      <point x="479" y="86"/>
      <point x="460" y="45"/>
      <point x="429" y="20" type="curve" smooth="yes"/>
      <point x="398" y="-5"/>
      <point x="356" y="-16"/>
      <point x="311" y="-16" type="curve" smooth="yes"/>
      <point x="264" y="-16"/>
      <point x="222" y="-5"/>
      <point x="192" y="20" type="curve" smooth="yes"/>
      <point x="162" y="45"/>
      <point x="143" y="86"/>
      <point x="143" y="147" type="curve" smooth="yes"/>
    </contour>
  </outline>
</glyph>
<glyph name="bracketleft" format="1">
  <advance width="848"/>
  <unicode hex="005B"/>
  <outline>
    <contour>
      <point x="772" y="-154" type="line"/>
      <point x="772" y="-262" type="line"/>
      <point x="205" y="-262" type="line"/>
      <point x="205" y="1556" type="line"/>
      <point x="772" y="1556" type="line"/>
      <point x="772" y="1448" type="line"/>
      <point x="684" y="1448" type="line" smooth="yes"/>
      <point x="639" y="1448"/>
      <point x="596" y="1443"/>
      <point x="566" y="1423" type="curve" smooth="yes"/>
      <point x="536" y="1402"/>
      <point x="516" y="1365"/>
      <point x="516" y="1300" type="curve" smooth="yes"/>
      <point x="516" y="-6" type="line" smooth="yes"/>
      <point x="516" y="-70"/>
      <point x="536" y="-108"/>
      <point x="566" y="-128" type="curve" smooth="yes"/>
      <point x="596" y="-149"/>
      <point x="639" y="-154"/>
      <point x="684" y="-154" type="curve" smooth="yes"/>
    </contour>
  </outline>
</glyph>
<glyph name="bar" format="1">
  <advance width="1145"/>
  <unicode hex="007C"/>
  <outline>
    <contour>
      <point x="498" y="1556" type="line"/>
      <point x="645" y="1556" type="line"/>
      <point x="645" y="-492" type="line"/>
      <point x="498" y="-492" type="line"/>
    </contour>
  </outline>
</glyph>
<glyph name="candrabinduinverteddeva" format="1">
  <advance width="0"/>
  <unicode hex="0900"/>
  <outline>
    <contour>
      <point x="-19" y="1519"/>
      <point x="15" y="1533"/>
      <point x="15" y="1603" type="curve" smooth="yes"/>
      <point x="15" y="1739"/>
      <point x="-115" y="1966"/>
      <point x="-374" y="1966" type="curve" smooth="yes"/>
      <point x="-593" y="1966"/>
      <point x="-730" y="1803"/>
      <point x="-730" y="1655" type="curve" smooth="yes"/>
      <point x="-730" y="1583"/>
      <point x="-683" y="1539"/>
      <point x="-588" y="1516" type="curve"/>
      <point x="-543" y="1697"/>
      <point x="-451" y="1783"/>
      <point x="-320" y="1783" type="curve" smooth="yes"/>
      <point x="-189" y="1783"/>
      <point x="-109" y="1698"/>
      <point x="-54" y="1508" type="curve"/>
    </contour>
    <contour>
      <point x="-252" y="1446"/>
      <point x="-198" y="1500"/>
      <point x="-198" y="1566" type="curve" smooth="yes"/>
      <point x="-198" y="1632"/>
      <point x="-252" y="1687"/>
      <point x="-318" y="1687" type="curve" smooth="yes"/>
      <point x="-385" y="1687"/>
      <point x="-440" y="1632"/>
      <point x="-440" y="1566" type="curve" smooth="yes"/>
      <point x="-440" y="1500"/>
      <point x="-385" y="1446"/>
      <point x="-318" y="1446" type="curve" smooth="yes"/>
    </contour>
    <contour>
      <point x="-120" y="666" type="move" name="_class0"/>
    </contour>
  </outline>
</glyph>
<glyph name="candrabindudeva" format="1">
  <advance width="0"/>
  <unicode hex="0901"/>
  <outline>
    <contour>
      <point x="-415" y="1966"/>
      <point x="-470" y="1912"/>
      <point x="-470" y="1846" type="curve" smooth="yes"/>
      <point x="-470" y="1780"/>
      <point x="-415" y="1725"/>
      <point x="-348" y="1725" type="curve" smooth="yes"/>
      <point x="-282" y="1725"/>
      <point x="-228" y="1780"/>
      <point x="-228" y="1846" type="curve" smooth="yes"/>
      <point x="-228" y="1912"/>
      <point x="-282" y="1966"/>
      <point x="-348" y="1966" type="curve" smooth="yes"/>
    </contour>
    <contour>
      <point x="-663" y="1892"/>
      <point x="-693" y="1876"/>
      <point x="-693" y="1809" type="curve" smooth="yes"/>
      <point x="-693" y="1673"/>
      <point x="-570" y="1446"/>
      <point x="-307" y="1446" type="curve" smooth="yes"/>
      <point x="-114" y="1446"/>
      <point x="15" y="1569"/>
      <point x="15" y="1722" type="curve" smooth="yes"/>
      <point x="15" y="1814"/>
      <point x="-29" y="1873"/>
      <point x="-120" y="1906" type="curve"/>
      <point x="-143" y="1716"/>
      <point x="-230" y="1629"/>
      <point x="-360" y="1629" type="curve" smooth="yes"/>
      <point x="-490" y="1629"/>
      <point x="-570" y="1717"/>
      <point x="-624" y="1904" type="curve"/>
    </contour>
  </outline>
</glyph>
<glyph name="anusvaradeva" format="1">
  <advance width="0"/>
  <unicode hex="0902"/>
  <outline>
    <contour>
      <point x="-370" y="1690"/>
      <point x="-427" y="1633"/>
      <point x="-427" y="1564" type="curve" smooth="yes"/>
      <point x="-427" y="1495"/>
      <point x="-370" y="1438"/>
      <point x="-300" y="1438" type="curve" smooth="yes"/>
      <point x="-231" y="1438"/>
      <point x="-175" y="1495"/>
      <point x="-175" y="1564" type="curve" smooth="yes"/>
      <point x="-175" y="1633"/>
      <point x="-231" y="1690"/>
      <point x="-300" y="1690" type="curve" smooth="yes"/>
    </contour>
    <contour>
      <point x="-133" y="666" type="move" name="_class0"/>
    </contour>
  </outline>
</glyph>
<glyph name="ideva" format="1">
  <advance width="1076"/>
  <unicode hex="0907"/>
  <outline>
    <contour>
      <point x="862" y="835" type="line"/>
      <point x="882" y="855" type="line"/>
      <point x="882" y="1137" type="line"/>
      <point x="1112" y="1137" type="line"/>
      <point x="1129" y="1160" type="line"/>
      <point x="1076" y="1330" type="line"/>
      <point x="-36" y="1330" type="line"/>
      <point x="-53" y="1307" type="line"/>
      <point x="0" y="1137" type="line"/>
      <point x="648" y="1137" type="line"/>
      <point x="648" y="1046" type="line" smooth="yes"/>
      <point x="648" y="1033"/>
      <point x="641" y="1026"/>
      <point x="628" y="1026" type="curve" smooth="yes"/>
      <point x="307" y="1026" type="line" smooth="yes"/>
      <point x="168" y="1026"/>
      <point x="104" y="962"/>
      <point x="104" y="876" type="curve" smooth="yes"/>
      <point x="104" y="727"/>
      <point x="296" y="492"/>
      <point x="500" y="492" type="curve" smooth="yes"/>
      <point x="562" y="492"/>
      <point x="673" y="514"/>
      <point x="712" y="514" type="curve" smooth="yes"/>
      <point x="741" y="514"/>
      <point x="765" y="501"/>
      <point x="765" y="465" type="curve" smooth="yes"/>
      <point x="765" y="390"/>
      <point x="663" y="315"/>
      <point x="473" y="310" type="curve"/>
      <point x="419" y="394"/>
      <point x="357" y="447"/>
      <point x="273" y="447" type="curve" smooth="yes"/>
      <point x="194" y="447"/>
      <point x="145" y="399"/>
      <point x="145" y="324" type="curve" smooth="yes"/>
      <point x="145" y="214"/>
      <point x="250" y="109"/>
      <point x="437" y="91" type="curve"/>
      <point x="518" y="-144"/>
      <point x="638" y="-223"/>
      <point x="741" y="-223" type="curve" smooth="yes"/>
      <point x="827" y="-223"/>
      <point x="894" y="-168"/>
      <point x="894" y="-84" type="curve" smooth="yes"/>
      <point x="894" y="-57"/>
      <point x="887" y="-29"/>
      <point x="872" y="3" type="curve"/>
      <point x="842" y="-7"/>
      <point x="816" y="-13"/>
      <point x="773" y="-13" type="curve" smooth="yes"/>
      <point x="685" y="-13"/>
      <point x="626" y="11"/>
      <point x="575" y="90" type="curve"/>
      <point x="799" y="104"/>
      <point x="946" y="216"/>
      <point x="946" y="367" type="curve" smooth="yes"/>
      <point x="946" y="526"/>
      <point x="785" y="735"/>
      <point x="631" y="735" type="curve" smooth="yes"/>
      <point x="571" y="735"/>
      <point x="431" y="704"/>
      <point x="390" y="704" type="curve" smooth="yes"/>
      <point x="350" y="704"/>
      <point x="326" y="733"/>
      <point x="326" y="770" type="curve" smooth="yes"/>
      <point x="326" y="811"/>
      <point x="354" y="835"/>
      <point x="469" y="835" type="curve" smooth="yes"/>
    </contour>
  </outline>
</glyph>
<glyph name="udeva" format="1">
  <advance width="1178"/>
  <unicode hex="0909"/>
  <outline>
    <contour>
      <point x="1231" y="1160" type="line"/>
      <point x="1178" y="1330" type="line"/>
      <point x="-36" y="1330" type="line"/>
      <point x="-53" y="1307" type="line"/>
      <point x="0" y="1137" type="line"/>
      <point x="574" y="1137" type="line" smooth="yes"/>
      <point x="676" y="1137"/>
      <point x="741" y="1089"/>
      <point x="741" y="1012" type="curve" smooth="yes"/>
      <point x="741" y="914"/>
      <point x="635" y="841"/>
      <point x="391" y="828" type="curve"/>
      <point x="375" y="805" type="line"/>
      <point x="477" y="565" type="line"/>
      <point x="585" y="565"/>
      <point x="678" y="581"/>
      <point x="753" y="609" type="curve"/>
      <point x="798" y="570"/>
      <point x="819" y="523"/>
      <point x="819" y="464" type="curve" smooth="yes"/>
      <point x="819" y="329"/>
      <point x="711" y="247"/>
      <point x="579" y="247" type="curve" smooth="yes"/>
      <point x="383" y="247"/>
      <point x="217" y="428"/>
      <point x="156" y="826" type="curve"/>
      <point x="63" y="818"/>
      <point x="39" y="775"/>
      <point x="39" y="706" type="curve" smooth="yes"/>
      <point x="39" y="513"/>
      <point x="226" y="2"/>
      <point x="656" y="2" type="curve" smooth="yes"/>
      <point x="890" y="2"/>
      <point x="1037" y="154"/>
      <point x="1037" y="353" type="curve" smooth="yes"/>
      <point x="1037" y="483"/>
      <point x="974" y="598"/>
      <point x="879" y="681" type="curve"/>
      <point x="947" y="738"/>
      <point x="980" y="812"/>
      <point x="980" y="893" type="curve" smooth="yes"/>
      <point x="980" y="966"/>
      <point x="953" y="1046"/>
      <point x="887" y="1127" type="curve"/>
      <point x="892" y="1137" type="line"/>
      <point x="1214" y="1137" type="line"/>
    </contour>
  </outline>
</glyph>
<glyph name="uudeva" format="1">
  <advance width="1561"/>
  <unicode hex="090A"/>
  <outline>
    <contour>
      <point x="1597" y="1137" type="line"/>
      <point x="1614" y="1160" type="line"/>
      <point x="1561" y="1330" type="line"/>
      <point x="-36" y="1330" type="line"/>
      <point x="-53" y="1307" type="line"/>
      <point x="0" y="1137" type="line"/>
      <point x="574" y="1137" type="line" smooth="yes"/>
      <point x="676" y="1137"/>
      <point x="741" y="1095"/>
      <point x="741" y="1002" type="curve" smooth="yes"/>
      <point x="741" y="893"/>
      <point x="653" y="841"/>
      <point x="391" y="828" type="curve"/>
      <point x="375" y="805" type="line"/>
      <point x="477" y="565" type="line"/>
      <point x="585" y="565"/>
      <point x="678" y="581"/>
      <point x="753" y="609" type="curve"/>
      <point x="798" y="570"/>
      <point x="819" y="523"/>
      <point x="819" y="464" type="curve" smooth="yes"/>
      <point x="819" y="329"/>
      <point x="711" y="247"/>
      <point x="579" y="247" type="curve" smooth="yes"/>
      <point x="383" y="247"/>
      <point x="217" y="428"/>
      <point x="156" y="826" type="curve"/>
      <point x="63" y="818"/>
      <point x="39" y="775"/>
      <point x="39" y="706" type="curve" smooth="yes"/>
      <point x="39" y="513"/>
      <point x="226" y="2"/>
      <point x="656" y="2" type="curve" smooth="yes"/>
      <point x="890" y="2"/>
      <point x="1037" y="154"/>
      <point x="1037" y="353" type="curve" smooth="yes"/>
      <point x="1037" y="377.661"/>
      <point x="1034.73" y="401.782"/>
      <point x="1030.41" y="425.247" type="curve"/>
      <point x="1105.07" y="540.423"/>
      <point x="1179.09" y="605"/>
      <point x="1235" y="605" type="curve" smooth="yes"/>
      <point x="1272" y="605"/>
      <point x="1299" y="576"/>
      <point x="1299" y="505" type="curve" smooth="yes"/>
      <point x="1299" y="382"/>
      <point x="1218" y="265"/>
      <point x="1098" y="213" type="curve"/>
      <point x="1151" y="112"/>
      <point x="1247" y="55.9999"/>
      <point x="1322" y="55.9999" type="curve" smooth="yes"/>
      <point x="1428" y="55.9999"/>
      <point x="1520" y="167"/>
      <point x="1520" y="337" type="curve" smooth="yes"/>
      <point x="1520" y="578"/>
      <point x="1334" y="789"/>
      <point x="1152" y="789" type="curve" smooth="yes"/>
      <point x="1078.46" y="789"/>
      <point x="1007.92" y="754.246"/>
      <point x="910.691" y="650.88" type="curve"/>
      <point x="900.589" y="661.332"/>
      <point x="890.01" y="671.381"/>
      <point x="879" y="681" type="curve"/>
      <point x="947" y="738"/>
      <point x="980" y="813"/>
      <point x="980" y="892" type="curve" smooth="yes"/>
      <point x="980" y="969"/>
      <point x="948" y="1051"/>
      <point x="862" y="1137" type="curve"/>
    </contour>
  </outline>
</glyph>
<glyph name="ecandradeva" format="1">
  <advance width="1206"/>
  <unicode hex="090D"/>
  <outline>
    <contour>
      <point x="247" y="1892"/>
      <point x="217" y="1876"/>
      <point x="217" y="1809" type="curve" smooth="yes"/>
      <point x="217" y="1673"/>
      <point x="340" y="1446"/>
      <point x="603" y="1446" type="curve" smooth="yes"/>
      <point x="796" y="1446"/>
      <point x="925" y="1569"/>
      <point x="925" y="1722" type="curve" smooth="yes"/>
      <point x="925" y="1814"/>
      <point x="881" y="1873"/>
      <point x="790" y="1906" type="curve"/>
      <point x="767" y="1716"/>
      <point x="680" y="1629"/>
      <point x="550" y="1629" type="curve" smooth="yes"/>
      <point x="420" y="1629"/>
      <point x="340" y="1717"/>
      <point x="286" y="1904" type="curve"/>
    </contour>
    <contour>
      <point x="1259" y="1160" type="line"/>
      <point x="1206" y="1330" type="line"/>
      <point x="-36" y="1330" type="line"/>
      <point x="-53" y="1307" type="line"/>
      <point x="0" y="1137" type="line"/>
      <point x="123" y="1137" type="line"/>
      <point x="123" y="767" type="line" smooth="yes"/>
      <point x="123" y="507"/>
      <point x="271" y="437"/>
      <point x="686" y="245" type="curve" smooth="yes"/>
      <point x="887" y="152"/>
      <point x="899" y="128"/>
      <point x="899" y="75" type="curve" smooth="yes"/>
      <point x="899" y="19"/>
      <point x="856" y="-34"/>
      <point x="759" y="-79" type="curve"/>
      <point x="802" y="-162"/>
      <point x="876" y="-215"/>
      <point x="966" y="-215" type="curve" smooth="yes"/>
      <point x="1068" y="-215"/>
      <point x="1136" y="-148"/>
      <point x="1136" y="-38" type="curve" smooth="yes"/>
      <point x="1136" y="133"/>
      <point x="968" y="243"/>
      <point x="720" y="377" type="curve" smooth="yes"/>
      <point x="413" y="543"/>
      <point x="363" y="540"/>
      <point x="363" y="651" type="curve" smooth="yes"/>
      <point x="364" y="1137" type="line"/>
      <point x="748" y="1137" type="line"/>
      <point x="748" y="781" type="line" smooth="yes"/>
      <point x="748" y="711"/>
      <point x="709" y="649"/>
      <point x="630" y="621" type="curve"/>
      <point x="693" y="540"/>
      <point x="763" y="484"/>
      <point x="845" y="484" type="curve" smooth="yes"/>
      <point x="932" y="484"/>
      <point x="988" y="547"/>
      <point x="988" y="647" type="curve" smooth="yes"/>
      <point x="988" y="1137" type="line"/>
      <point x="1242" y="1137" type="line"/>
    </contour>
  </outline>
</glyph>
<glyph name="eshortdeva" format="1">
  <advance width="1206"/>
  <unicode hex="090E"/>
  <outline>
    <contour>
      <point x="693" y="540"/>
      <point x="763" y="484"/>
      <point x="845" y="484" type="curve" smooth="yes"/>
      <point x="932" y="484"/>
      <point x="988" y="547"/>
      <point x="988" y="647" type="curve" smooth="yes"/>
      <point x="988" y="1137" type="line"/>
      <point x="1242" y="1137" type="line"/>
      <point x="1259" y="1160" type="line"/>
      <point x="1206" y="1330" type="line"/>
      <point x="967.041" y="1330" type="line"/>
      <point x="883.584" y="1559.46"/>
      <point x="719.184" y="1695.83"/>
      <point x="434" y="1740" type="curve" smooth="yes"/>
      <point x="116" y="1791"/>
      <point x="19" y="1834"/>
      <point x="-62" y="1956" type="curve"/>
      <point x="-90" y="1922"/>
      <point x="-100" y="1896"/>
      <point x="-100" y="1852" type="curve" smooth="yes"/>
      <point x="-100" y="1687"/>
      <point x="80" y="1521"/>
      <point x="535" y="1494" type="curve" smooth="yes"/>
      <point x="722" y="1482"/>
      <point x="768" y="1461"/>
      <point x="768" y="1403" type="curve" smooth="yes"/>
      <point x="768" y="1384.37"/>
      <point x="763.558" y="1357.97"/>
      <point x="753.433" y="1330" type="curve"/>
      <point x="-36" y="1330" type="line"/>
      <point x="-53" y="1307" type="line"/>
      <point x="0" y="1137" type="line"/>
      <point x="123" y="1137" type="line"/>
      <point x="123" y="767" type="line" smooth="yes"/>
      <point x="123" y="507"/>
      <point x="271" y="437"/>
      <point x="686" y="245" type="curve" smooth="yes"/>
      <point x="877" y="156"/>
      <point x="899" y="130"/>
      <point x="899" y="81" type="curve" smooth="yes"/>
      <point x="899" y="22"/>
      <point x="867" y="-28"/>
      <point x="759" y="-79" type="curve"/>
      <point x="804" y="-175"/>
      <point x="880" y="-238"/>
      <point x="960" y="-238" type="curve" smooth="yes"/>
      <point x="1056" y="-238"/>
      <point x="1136" y="-148"/>
      <point x="1136" y="-34" type="curve" smooth="yes"/>
      <point x="1136" y="131"/>
      <point x="968" y="243"/>
      <point x="720" y="377" type="curve" smooth="yes"/>
      <point x="413" y="543"/>
      <point x="363" y="540"/>
      <point x="363" y="651" type="curve" smooth="yes"/>
      <point x="364" y="1137" type="line"/>
      <point x="748" y="1137" type="line"/>
      <point x="748" y="781" type="line" smooth="yes"/>
      <point x="748" y="711"/>
      <point x="709" y="649"/>
      <point x="630" y="621" type="curve"/>
    </contour>
  </outline>
</glyph>
<glyph name="aideva" format="1">
  <advance width="1206"/>
  <unicode hex="0910"/>
  <outline>
    <contour>
      <point x="693" y="540"/>
      <point x="763" y="484"/>
      <point x="845" y="484" type="curve" smooth="yes"/>
      <point x="932" y="484"/>
      <point x="988" y="547"/>
      <point x="988" y="647" type="curve" smooth="yes"/>
      <point x="988" y="1137" type="line"/>
      <point x="1242" y="1137" type="line"/>
      <point x="1259" y="1160" type="line"/>
      <point x="1206" y="1330" type="line"/>
      <point x="913.219" y="1330" type="line"/>
      <point x="554.235" y="1795.63"/>
      <point x="376.912" y="1932"/>
      <point x="196" y="1932" type="curve" smooth="yes"/>
      <point x="64.9999" y="1932"/>
      <point x="9.9999" y="1861"/>
      <point x="9.9999" y="1793" type="curve" smooth="yes"/>
      <point x="9.9999" y="1711"/>
      <point x="89.9999" y="1624"/>
      <point x="209" y="1588" type="curve"/>
      <point x="236" y="1627"/>
      <point x="283" y="1658"/>
      <point x="349" y="1658" type="curve" smooth="yes"/>
      <point x="440.999" y="1658"/>
      <point x="519.696" y="1606.35"/>
      <point x="744.303" y="1330" type="curve"/>
      <point x="-36" y="1330" type="line"/>
      <point x="-53" y="1307" type="line"/>
      <point x="0" y="1137" type="line"/>
      <point x="123" y="1137" type="line"/>
      <point x="123" y="767" type="line" smooth="yes"/>
      <point x="123" y="507"/>
      <point x="271" y="437"/>
      <point x="686" y="245" type="curve" smooth="yes"/>
      <point x="877" y="156"/>
      <point x="899" y="130"/>
      <point x="899" y="80.9999" type="curve" smooth="yes"/>
      <point x="899" y="21.9999"/>
      <point x="867" y="-28"/>
      <point x="759" y="-79" type="curve"/>
      <point x="804" y="-175"/>
      <point x="880" y="-238"/>
      <point x="960" y="-238" type="curve" smooth="yes"/>
      <point x="1056" y="-238"/>
      <point x="1136" y="-148"/>
      <point x="1136" y="-34" type="curve" smooth="yes"/>
      <point x="1136" y="131"/>
      <point x="968" y="243"/>
      <point x="720" y="377" type="curve" smooth="yes"/>
      <point x="413" y="543"/>
      <point x="363" y="540"/>
      <point x="363" y="651" type="curve" smooth="yes"/>
      <point x="364" y="1137" type="line"/>
      <point x="748" y="1137" type="line"/>
      <point x="748" y="781" type="line" smooth="yes"/>
      <point x="748" y="711"/>
      <point x="709" y="649"/>
      <point x="630" y="621" type="curve"/>
    </contour>
  </outline>
</glyph>
<glyph name="odeva" format="1">
  <advance width="2153"/>
  <unicode hex="0913"/>
  <outline>
    <contour>
      <point x="2153" y="1330" type="line"/>
      <point x="1889.67" y="1330" type="line"/>
      <point x="1521.61" y="1795.63"/>
      <point x="1338.7" y="1932"/>
      <point x="1154" y="1932" type="curve" smooth="yes"/>
      <point x="1023" y="1932"/>
      <point x="968" y="1861"/>
      <point x="968" y="1793" type="curve" smooth="yes"/>
      <point x="968" y="1711"/>
      <point x="1048" y="1624"/>
      <point x="1167" y="1588" type="curve"/>
      <point x="1194" y="1627"/>
      <point x="1241" y="1658"/>
      <point x="1307" y="1658" type="curve" smooth="yes"/>
      <point x="1402.54" y="1658"/>
      <point x="1484.77" y="1606.35"/>
      <point x="1718.46" y="1330" type="curve"/>
      <point x="983" y="1330" type="line"/>
      <point x="966" y="1307" type="line"/>
      <point x="1019" y="1137" type="line"/>
      <point x="1182" y="1137" type="line"/>
      <point x="1182" y="917" type="line" smooth="yes"/>
      <point x="1182" y="780"/>
      <point x="1085" y="706"/>
      <point x="954" y="706" type="curve" smooth="yes"/>
      <point x="933" y="706"/>
      <point x="907" y="708"/>
      <point x="879" y="713" type="curve"/>
      <point x="925" y="775"/>
      <point x="942" y="831"/>
      <point x="942" y="906" type="curve" smooth="yes"/>
      <point x="942" y="1151"/>
      <point x="762" y="1335"/>
      <point x="488" y="1335" type="curve" smooth="yes"/>
      <point x="270" y="1335"/>
      <point x="157" y="1219"/>
      <point x="157" y="1108" type="curve" smooth="yes"/>
      <point x="157" y="1011"/>
      <point x="244" y="947"/>
      <point x="383" y="947" type="curve"/>
      <point x="383" y="1082"/>
      <point x="464" y="1184"/>
      <point x="576" y="1184" type="curve" smooth="yes"/>
      <point x="663" y="1184"/>
      <point x="726" y="1123"/>
      <point x="726" y="1028" type="curve" smooth="yes"/>
      <point x="726" y="908"/>
      <point x="624" y="814"/>
      <point x="403" y="800" type="curve"/>
      <point x="388" y="775" type="line"/>
      <point x="493" y="562" type="line"/>
      <point x="583" y="573"/>
      <point x="659" y="589"/>
      <point x="721" y="612" type="curve"/>
      <point x="774" y="569"/>
      <point x="804" y="501"/>
      <point x="804" y="438" type="curve" smooth="yes"/>
      <point x="804" y="329"/>
      <point x="716" y="252"/>
      <point x="583" y="252" type="curve" smooth="yes"/>
      <point x="387" y="252"/>
      <point x="252" y="419"/>
      <point x="194" y="776" type="curve"/>
      <point x="106" y="769"/>
      <point x="79" y="729"/>
      <point x="79" y="660" type="curve" smooth="yes"/>
      <point x="79" y="479"/>
      <point x="264" y="1.99989"/>
      <point x="663" y="1.99989" type="curve" smooth="yes"/>
      <point x="875" y="1.99989"/>
      <point x="1012" y="137"/>
      <point x="1012" y="322" type="curve" smooth="yes"/>
      <point x="1012" y="396"/>
      <point x="990" y="471"/>
      <point x="952" y="537" type="curve"/>
      <point x="1016" y="515"/>
      <point x="1057" y="507"/>
      <point x="1110" y="507" type="curve" smooth="yes"/>
      <point x="1136" y="507"/>
      <point x="1153" y="509"/>
      <point x="1182" y="514" type="curve"/>
      <point x="1182" y="-21" type="line"/>
      <point x="1400" y="-57" type="line"/>
      <point x="1422" y="-39" type="line"/>
      <point x="1422" y="1137" type="line"/>
      <point x="1706" y="1137" type="line"/>
      <point x="1706" y="-21" type="line"/>
      <point x="1924" y="-57" type="line"/>
      <point x="1946" y="-39" type="line"/>
      <point x="1946" y="1137" type="line"/>
      <point x="2189" y="1137" type="line"/>
      <point x="2206" y="1160" type="line"/>
    </contour>
  </outline>
</glyph>
<glyph name="audeva" format="1">
  <advance width="2150"/>
  <unicode hex="0914"/>
  <outline>
    <contour>
      <point x="2153" y="1330" type="line"/>
      <point x="1919.15" y="1330" type="line"/>
      <point x="1759.26" y="1854.17"/>
      <point x="1591.12" y="2032"/>
      <point x="1413" y="2032" type="curve" smooth="yes"/>
      <point x="1311" y="2032"/>
      <point x="1265" y="1973"/>
      <point x="1265" y="1911" type="curve" smooth="yes"/>
      <point x="1265" y="1849"/>
      <point x="1312" y="1781"/>
      <point x="1438" y="1731" type="curve"/>
      <point x="1459" y="1755"/>
      <point x="1489" y="1774"/>
      <point x="1525" y="1774" type="curve" smooth="yes"/>
      <point x="1584.34" y="1774"/>
      <point x="1636.89" y="1715.58"/>
      <point x="1748.16" y="1427.4" type="curve"/>
      <point x="1510.82" y="1623.76"/>
      <point x="1279.84" y="1742"/>
      <point x="1148" y="1742" type="curve" smooth="yes"/>
      <point x="1069" y="1742"/>
      <point x="991" y="1700"/>
      <point x="991" y="1612" type="curve" smooth="yes"/>
      <point x="991" y="1534"/>
      <point x="1052" y="1463"/>
      <point x="1187" y="1424" type="curve"/>
      <point x="1212" y="1470"/>
      <point x="1256" y="1497"/>
      <point x="1321" y="1497" type="curve" smooth="yes"/>
      <point x="1397.69" y="1497"/>
      <point x="1535.99" y="1436.52"/>
      <point x="1678.11" y="1330" type="curve"/>
      <point x="983" y="1330" type="line"/>
      <point x="966" y="1307" type="line"/>
      <point x="1019" y="1137" type="line"/>
      <point x="1182" y="1137" type="line"/>
      <point x="1182" y="917" type="line" smooth="yes"/>
      <point x="1182" y="780"/>
      <point x="1085" y="706"/>
      <point x="954" y="706" type="curve" smooth="yes"/>
      <point x="933" y="706"/>
      <point x="907" y="708"/>
      <point x="879" y="713" type="curve"/>
      <point x="925" y="775"/>
      <point x="942" y="831"/>
      <point x="942" y="906" type="curve" smooth="yes"/>
      <point x="942" y="1151"/>
      <point x="762" y="1335"/>
      <point x="488" y="1335" type="curve" smooth="yes"/>
      <point x="270" y="1335"/>
      <point x="157" y="1219"/>
      <point x="157" y="1108" type="curve" smooth="yes"/>
      <point x="157" y="1011"/>
      <point x="244" y="947"/>
      <point x="383" y="947" type="curve"/>
      <point x="383" y="1082"/>
      <point x="464" y="1184"/>
      <point x="576" y="1184" type="curve" smooth="yes"/>
      <point x="663" y="1184"/>
      <point x="726" y="1123"/>
      <point x="726" y="1028" type="curve" smooth="yes"/>
      <point x="726" y="908"/>
      <point x="624" y="814"/>
      <point x="403" y="800" type="curve"/>
      <point x="388" y="775" type="line"/>
      <point x="493" y="562" type="line"/>
      <point x="583" y="573"/>
      <point x="659" y="589"/>
      <point x="721" y="612" type="curve"/>
      <point x="774" y="569"/>
      <point x="804" y="501"/>
      <point x="804" y="438" type="curve" smooth="yes"/>
      <point x="804" y="329"/>
      <point x="716" y="252"/>
      <point x="583" y="252" type="curve" smooth="yes"/>
      <point x="387" y="252"/>
      <point x="252" y="419"/>
      <point x="194" y="776" type="curve"/>
      <point x="106" y="769"/>
      <point x="79" y="729"/>
      <point x="79" y="660" type="curve" smooth="yes"/>
      <point x="79" y="479"/>
      <point x="264" y="2"/>
      <point x="663" y="2" type="curve" smooth="yes"/>
      <point x="875" y="2"/>
      <point x="1012" y="137"/>
      <point x="1012" y="322" type="curve" smooth="yes"/>
      <point x="1012" y="396"/>
      <point x="990" y="471"/>
      <point x="952" y="537" type="curve"/>
      <point x="1016" y="515"/>
      <point x="1057" y="507"/>
      <point x="1110" y="507" type="curve" smooth="yes"/>
      <point x="1136" y="507"/>
      <point x="1153" y="509"/>
      <point x="1182" y="514" type="curve"/>
      <point x="1182" y="-20.9999" type="line"/>
      <point x="1400" y="-56.9999" type="line"/>
      <point x="1422" y="-38.9999" type="line"/>
      <point x="1422" y="1137" type="line"/>
      <point x="1706" y="1137" type="line"/>
      <point x="1706" y="-20.9999" type="line"/>
      <point x="1924" y="-56.9999" type="line"/>
      <point x="1946" y="-38.9999" type="line"/>
      <point x="1946" y="1137" type="line"/>
      <point x="2189" y="1137" type="line"/>
      <point x="2206" y="1160" type="line"/>
    </contour>
  </outline>
</glyph>
<glyph name="kadeva" format="1">
  <advance width="1622"/>
  <unicode hex="0915"/>
  <outline>
    <contour>
      <point x="1622" y="1330" type="line"/>
      <point x="-36" y="1330" type="line"/>
      <point x="-53" y="1307" type="line"/>
      <point x="0" y="1137" type="line"/>
      <point x="733" y="1137" type="line"/>
      <point x="733" y="853" type="line"/>
      <point x="630" y="951"/>
      <point x="523" y="987"/>
      <point x="426" y="987" type="curve" smooth="yes"/>
      <point x="238" y="987"/>
      <point x="99" y="850"/>
      <point x="99" y="662" type="curve" smooth="yes"/>
      <point x="99" y="403"/>
      <point x="361" y="179"/>
      <point x="600" y="179" type="curve" smooth="yes"/>
      <point x="636" y="179"/>
      <point x="683" y="184"/>
      <point x="733" y="198" type="curve"/>
      <point x="733" y="-21" type="line"/>
      <point x="951" y="-57" type="line"/>
      <point x="973" y="-39" type="line"/>
      <point x="973" y="418" type="line" smooth="yes"/>
      <point x="973" y="619"/>
      <point x="1095" y="735"/>
      <point x="1218" y="735" type="curve" smooth="yes"/>
      <point x="1282" y="735"/>
      <point x="1331" y="704"/>
      <point x="1331" y="619" type="curve" smooth="yes"/>
      <point x="1331" y="502"/>
      <point x="1240" y="340"/>
      <point x="1107" y="273" type="curve"/>
      <point x="1169" y="181"/>
      <point x="1252" y="140"/>
      <point x="1318" y="140" type="curve" smooth="yes"/>
      <point x="1426" y="140"/>
      <point x="1536" y="248"/>
      <point x="1536" y="455" type="curve" smooth="yes"/>
      <point x="1536" y="739"/>
      <point x="1331" y="926"/>
      <point x="1125" y="926" type="curve" smooth="yes"/>
      <point x="1067" y="926"/>
      <point x="1024" y="911"/>
      <point x="973" y="875" type="curve"/>
      <point x="973" y="1137" type="line"/>
      <point x="1658" y="1137" type="line"/>
      <point x="1675" y="1160" type="line"/>
    </contour>
    <contour>
      <point x="649" y="773"/>
      <point x="733" y="684"/>
      <point x="733" y="582" type="curve" smooth="yes"/>
      <point x="733" y="568" type="line" smooth="yes"/>
      <point x="733" y="450"/>
      <point x="628" y="368"/>
      <point x="518" y="368" type="curve" smooth="yes"/>
      <point x="411" y="368"/>
      <point x="324" y="446"/>
      <point x="324" y="564" type="curve" smooth="yes"/>
      <point x="324" y="681"/>
      <point x="411" y="773"/>
      <point x="531" y="773" type="curve" smooth="yes"/>
    </contour>
  </outline>
</glyph>
<glyph name="gadeva" format="1">
  <advance width="1301"/>
  <unicode hex="0917"/>
  <outline>
    <contour>
      <point x="1354" y="1160" type="line"/>
      <point x="1301" y="1330" type="line"/>
      <point x="-36" y="1330" type="line"/>
      <point x="-53" y="1307" type="line"/>
      <point x="0" y="1137" type="line"/>
      <point x="284" y="1137" type="line"/>
      <point x="284" y="676" type="line"/>
      <point x="169" y="676" type="line" smooth="yes"/>
      <point x="99" y="676"/>
      <point x="70" y="649"/>
      <point x="70" y="603" type="curve" smooth="yes"/>
      <point x="70" y="517"/>
      <point x="268" y="303"/>
      <point x="391" y="303" type="curve" smooth="yes"/>
      <point x="479" y="303"/>
      <point x="519" y="344"/>
      <point x="519" y="514" type="curve" smooth="yes"/>
      <point x="519" y="1137" type="line"/>
      <point x="874" y="1137" type="line"/>
      <point x="874" y="-21" type="line"/>
      <point x="1092" y="-57" type="line"/>
      <point x="1114" y="-39" type="line"/>
      <point x="1114" y="1137" type="line"/>
      <point x="1337" y="1137" type="line"/>
    </contour>
  </outline>
</glyph>
<glyph name="ghadeva" format="1">
  <advance width="1321"/>
  <unicode hex="0918"/>
  <outline>
    <contour>
      <point x="1374" y="1160" type="line"/>
      <point x="1321" y="1330" type="line"/>
      <point x="-36" y="1330" type="line"/>
      <point x="-53" y="1307" type="line"/>
      <point x="0" y="1137" type="line"/>
      <point x="100" y="1137" type="line"/>
      <point x="106" y="1128" type="line"/>
      <point x="99" y="1107"/>
      <point x="96" y="1087"/>
      <point x="96" y="1061" type="curve" smooth="yes"/>
      <point x="96" y="925"/>
      <point x="175" y="814"/>
      <point x="304" y="726" type="curve"/>
      <point x="274" y="675"/>
      <point x="259" y="618"/>
      <point x="259" y="564" type="curve" smooth="yes"/>
      <point x="259" y="374"/>
      <point x="447" y="171"/>
      <point x="703" y="171" type="curve" smooth="yes"/>
      <point x="763" y="171"/>
      <point x="828" y="182"/>
      <point x="885" y="202" type="curve"/>
      <point x="894" y="196" type="line"/>
      <point x="894" y="-21" type="line"/>
      <point x="1112" y="-57" type="line"/>
      <point x="1134" y="-39" type="line"/>
      <point x="1134" y="1137" type="line"/>
      <point x="1357" y="1137" type="line"/>
    </contour>
    <contour>
      <point x="894" y="1137" type="line"/>
      <point x="894" y="620" type="line" smooth="yes"/>
      <point x="889" y="452"/>
      <point x="734" y="371"/>
      <point x="609" y="371" type="curve" smooth="yes"/>
      <point x="524" y="371"/>
      <point x="461" y="409"/>
      <point x="461" y="480" type="curve" smooth="yes"/>
      <point x="461" y="568"/>
      <point x="559" y="662"/>
      <point x="757" y="713" type="curve"/>
      <point x="765" y="740" type="line"/>
      <point x="586" y="918" type="line"/>
      <point x="509" y="900"/>
      <point x="443" y="867"/>
      <point x="390" y="824" type="curve"/>
      <point x="350" y="863"/>
      <point x="332" y="904"/>
      <point x="332" y="950" type="curve" smooth="yes"/>
      <point x="332" y="1047"/>
      <point x="413" y="1137"/>
      <point x="544" y="1137" type="curve" smooth="yes"/>
    </contour>
  </outline>
</glyph>
<glyph name="cadeva" format="1">
  <advance width="1381"/>
  <unicode hex="091A"/>
  <outline>
    <contour>
      <point x="1381" y="1330" type="line"/>
      <point x="-36" y="1330" type="line"/>
      <point x="-53" y="1307" type="line"/>
      <point x="0" y="1137" type="line"/>
      <point x="954" y="1137" type="line"/>
      <point x="954" y="660" type="line" smooth="yes"/>
      <point x="954" y="513"/>
      <point x="807" y="383"/>
      <point x="652" y="383" type="curve" smooth="yes"/>
      <point x="549" y="383"/>
      <point x="491" y="440"/>
      <point x="491" y="524" type="curve" smooth="yes"/>
      <point x="491" y="645"/>
      <point x="612" y="760"/>
      <point x="801" y="760" type="curve" smooth="yes"/>
      <point x="832" y="760" type="line"/>
      <point x="849" y="783" type="line"/>
      <point x="796" y="953" type="line"/>
      <point x="82" y="953" type="line"/>
      <point x="65" y="930" type="line"/>
      <point x="118" y="760" type="line"/>
      <point x="316" y="760" type="line"/>
      <point x="291" y="708"/>
      <point x="279" y="666"/>
      <point x="279" y="615" type="curve" smooth="yes"/>
      <point x="279" y="410"/>
      <point x="476" y="201"/>
      <point x="748" y="201" type="curve" smooth="yes"/>
      <point x="810" y="201"/>
      <point x="879" y="212"/>
      <point x="954" y="237" type="curve"/>
      <point x="954" y="-21" type="line"/>
      <point x="1172" y="-57" type="line"/>
      <point x="1194" y="-39" type="line"/>
      <point x="1194" y="1137" type="line"/>
      <point x="1417" y="1137" type="line"/>
      <point x="1434" y="1160" type="line"/>
    </contour>
  </outline>
</glyph>
<glyph name="jhadeva" format="1">
  <advance width="1560"/>
  <unicode hex="091D"/>
  <outline>
    <contour>
      <point x="1613" y="1160" type="line"/>
      <point x="1560" y="1330" type="line"/>
      <point x="-36" y="1330" type="line"/>
      <point x="-53" y="1307" type="line"/>
      <point x="0" y="1137" type="line"/>
      <point x="618" y="1137" type="line"/>
      <point x="618" y="1046" type="line" smooth="yes"/>
      <point x="618" y="1033"/>
      <point x="611" y="1026"/>
      <point x="598" y="1026" type="curve" smooth="yes"/>
      <point x="327" y="1026" type="line" smooth="yes"/>
      <point x="174" y="1026"/>
      <point x="104" y="962"/>
      <point x="104" y="876" type="curve" smooth="yes"/>
      <point x="104" y="727"/>
      <point x="310" y="492"/>
      <point x="514" y="492" type="curve" smooth="yes"/>
      <point x="583" y="492"/>
      <point x="673" y="524"/>
      <point x="713" y="524" type="curve" smooth="yes"/>
      <point x="736" y="524"/>
      <point x="755" y="515"/>
      <point x="755" y="484" type="curve" smooth="yes"/>
      <point x="755" y="412"/>
      <point x="657" y="332"/>
      <point x="460" y="330" type="curve"/>
      <point x="409" y="402"/>
      <point x="350" y="447"/>
      <point x="273" y="447" type="curve" smooth="yes"/>
      <point x="194" y="447"/>
      <point x="145" y="399"/>
      <point x="145" y="324" type="curve" smooth="yes"/>
      <point x="145" y="214"/>
      <point x="250" y="109"/>
      <point x="437" y="91" type="curve"/>
      <point x="528" y="-147"/>
      <point x="665" y="-233"/>
      <point x="778" y="-233" type="curve" smooth="yes"/>
      <point x="862" y="-233"/>
      <point x="922" y="-186"/>
      <point x="922" y="-115" type="curve" smooth="yes"/>
      <point x="922" y="-77"/>
      <point x="904" y="-39"/>
      <point x="872" y="3" type="curve"/>
      <point x="836" y="-7"/>
      <point x="801" y="-13"/>
      <point x="760" y="-13" type="curve" smooth="yes"/>
      <point x="681" y="-13"/>
      <point x="635" y="9"/>
      <point x="593" y="91" type="curve"/>
      <point x="849" y="111"/>
      <point x="946" y="235"/>
      <point x="946" y="363" type="curve" smooth="yes"/>
      <point x="946" y="409"/>
      <point x="934" y="458"/>
      <point x="912" y="505" type="curve"/>
      <point x="968" y="484"/>
      <point x="1024" y="473"/>
      <point x="1076" y="473" type="curve" smooth="yes"/>
      <point x="1096" y="473"/>
      <point x="1116" y="475"/>
      <point x="1132" y="478" type="curve"/>
      <point x="1132" y="-21" type="line"/>
      <point x="1350" y="-57" type="line"/>
      <point x="1372" y="-39" type="line"/>
      <point x="1372" y="1137" type="line"/>
      <point x="1596" y="1137" type="line"/>
    </contour>
    <contour>
      <point x="1132" y="1137" type="line"/>
      <point x="1132" y="867" type="line" smooth="yes"/>
      <point x="1132" y="730"/>
      <point x="1034" y="656"/>
      <point x="907" y="656" type="curve" smooth="yes"/>
      <point x="868" y="656"/>
      <point x="823" y="663"/>
      <point x="774" y="681" type="curve"/>
      <point x="730" y="714"/>
      <point x="681" y="735"/>
      <point x="633" y="735" type="curve" smooth="yes"/>
      <point x="572" y="735"/>
      <point x="443" y="694"/>
      <point x="398" y="694" type="curve" smooth="yes"/>
      <point x="358" y="694"/>
      <point x="336" y="721"/>
      <point x="336" y="752" type="curve" smooth="yes"/>
      <point x="336" y="805"/>
      <point x="400" y="835"/>
      <point x="489" y="835" type="curve" smooth="yes"/>
      <point x="832" y="835" type="line"/>
      <point x="852" y="855" type="line"/>
      <point x="852" y="1137" type="line"/>
    </contour>
  </outline>
</glyph>
<glyph name="nyadeva" format="1">
  <advance width="1601"/>
  <unicode hex="091E"/>
  <outline>
    <contour>
      <point x="1654" y="1160" type="line"/>
      <point x="1601" y="1330" type="line"/>
      <point x="-36" y="1330" type="line"/>
      <point x="-53" y="1307" type="line"/>
      <point x="0" y="1137" type="line"/>
      <point x="1174" y="1137" type="line"/>
      <point x="1174" y="757" type="line" smooth="yes"/>
      <point x="1174" y="647"/>
      <point x="1096" y="616"/>
      <point x="1028" y="616" type="curve" smooth="yes"/>
      <point x="1008" y="616"/>
      <point x="990" y="619"/>
      <point x="973" y="625" type="curve"/>
      <point x="902" y="816"/>
      <point x="717" y="964"/>
      <point x="536" y="964" type="curve" smooth="yes"/>
      <point x="404" y="964"/>
      <point x="331" y="885"/>
      <point x="331" y="810" type="curve" smooth="yes"/>
      <point x="331" y="735"/>
      <point x="388" y="656"/>
      <point x="512" y="633" type="curve"/>
      <point x="551" y="699"/>
      <point x="605" y="737"/>
      <point x="676" y="737" type="curve" smooth="yes"/>
      <point x="748" y="737"/>
      <point x="795" y="697"/>
      <point x="795" y="597" type="curve" smooth="yes"/>
      <point x="795" y="463"/>
      <point x="711" y="337"/>
      <point x="546" y="337" type="curve" smooth="yes"/>
      <point x="364" y="337"/>
      <point x="240" y="490"/>
      <point x="183" y="830" type="curve"/>
      <point x="102" y="830"/>
      <point x="81" y="787"/>
      <point x="81" y="713" type="curve" smooth="yes"/>
      <point x="81" y="496"/>
      <point x="266" y="115"/>
      <point x="642" y="115" type="curve" smooth="yes"/>
      <point x="877" y="115"/>
      <point x="994" y="265"/>
      <point x="1003" y="441" type="curve"/>
      <point x="1012" y="446" type="line"/>
      <point x="1062" y="413"/>
      <point x="1114" y="393"/>
      <point x="1171" y="393" type="curve" smooth="yes"/>
      <point x="1174" y="393" type="line"/>
      <point x="1174" y="-21" type="line"/>
      <point x="1392" y="-57" type="line"/>
      <point x="1414" y="-39" type="line"/>
      <point x="1414" y="1137" type="line"/>
      <point x="1637" y="1137" type="line"/>
    </contour>
  </outline>
</glyph>
<glyph name="ttadeva" format="1">
  <advance width="1068"/>
  <unicode hex="091F"/>
  <outline>
    <contour>
      <point x="1068" y="1330" type="line"/>
      <point x="-36" y="1330" type="line"/>
      <point x="-53" y="1307" type="line"/>
      <point x="0" y="1137" type="line"/>
      <point x="638" y="1137" type="line"/>
      <point x="638" y="987" type="line" smooth="yes"/>
      <point x="638" y="974"/>
      <point x="631" y="967"/>
      <point x="618" y="967" type="curve" smooth="yes"/>
      <point x="507" y="967" type="line" smooth="yes"/>
      <point x="215" y="967"/>
      <point x="51" y="804"/>
      <point x="51" y="587" type="curve" smooth="yes"/>
      <point x="51" y="298"/>
      <point x="343" y="31"/>
      <point x="655" y="31" type="curve" smooth="yes"/>
      <point x="855" y="31"/>
      <point x="1006" y="141"/>
      <point x="1006" y="261" type="curve" smooth="yes"/>
      <point x="1006" y="346"/>
      <point x="931" y="416"/>
      <point x="851" y="435" type="curve"/>
      <point x="802" y="316"/>
      <point x="662" y="232"/>
      <point x="523" y="232" type="curve" smooth="yes"/>
      <point x="385" y="232"/>
      <point x="279" y="314"/>
      <point x="279" y="462" type="curve" smooth="yes"/>
      <point x="279" y="629"/>
      <point x="415" y="759"/>
      <point x="643" y="759" type="curve" smooth="yes"/>
      <point x="852" y="759" type="line"/>
      <point x="872" y="779" type="line"/>
      <point x="872" y="1137" type="line"/>
      <point x="1104" y="1137" type="line"/>
      <point x="1121" y="1160" type="line"/>
    </contour>
  </outline>
</glyph>
<glyph name="tthadeva" format="1">
  <advance width="1198"/>
  <unicode hex="0920"/>
  <outline>
    <contour>
      <point x="1198" y="1330" type="line"/>
      <point x="-36" y="1330" type="line"/>
      <point x="-53" y="1307" type="line"/>
      <point x="0" y="1137" type="line"/>
      <point x="618" y="1137" type="line"/>
      <point x="618" y="986" type="line" smooth="yes"/>
      <point x="618" y="973"/>
      <point x="611" y="966"/>
      <point x="598" y="966" type="curve" smooth="yes"/>
      <point x="493" y="966" type="line" smooth="yes"/>
      <point x="227" y="966"/>
      <point x="67" y="800"/>
      <point x="67" y="578" type="curve" smooth="yes"/>
      <point x="67" y="278"/>
      <point x="358" y="21"/>
      <point x="670" y="21" type="curve" smooth="yes"/>
      <point x="921" y="21"/>
      <point x="1095" y="187"/>
      <point x="1095" y="415" type="curve" smooth="yes"/>
      <point x="1095" y="588"/>
      <point x="994" y="741"/>
      <point x="852" y="846" type="curve"/>
      <point x="852" y="1137" type="line"/>
      <point x="1234" y="1137" type="line"/>
      <point x="1251" y="1160" type="line"/>
    </contour>
    <contour>
      <point x="754" y="757"/>
      <point x="872" y="682"/>
      <point x="872" y="527" type="curve" smooth="yes"/>
      <point x="872" y="351"/>
      <point x="719" y="212"/>
      <point x="546" y="212" type="curve" smooth="yes"/>
      <point x="410" y="212"/>
      <point x="289" y="299"/>
      <point x="289" y="456" type="curve" smooth="yes"/>
      <point x="289" y="627"/>
      <point x="433" y="765"/>
      <point x="621" y="760" type="curve" smooth="yes"/>
    </contour>
  </outline>
</glyph>
<glyph name="nnadeva" format="1">
  <advance width="1471"/>
  <unicode hex="0923"/>
  <outline>
    <contour>
      <point x="1524" y="1160" type="line"/>
      <point x="1471" y="1330" type="line"/>
      <point x="-36" y="1330" type="line"/>
      <point x="-53" y="1307" type="line"/>
      <point x="0" y="1137" type="line"/>
      <point x="129" y="1137" type="line"/>
      <point x="129" y="755" type="line" smooth="yes"/>
      <point x="129" y="516"/>
      <point x="345" y="311"/>
      <point x="567" y="311" type="curve" smooth="yes"/>
      <point x="736" y="311"/>
      <point x="869" y="428"/>
      <point x="869" y="591" type="curve" smooth="yes"/>
      <point x="869" y="1137" type="line"/>
      <point x="1054" y="1137" type="line"/>
      <point x="1054" y="-21" type="line"/>
      <point x="1262" y="-57" type="line"/>
      <point x="1284" y="-39" type="line"/>
      <point x="1284" y="1137" type="line"/>
      <point x="1507" y="1137" type="line"/>
    </contour>
    <contour>
      <point x="349" y="1137" type="line"/>
      <point x="654" y="1137" type="line"/>
      <point x="654" y="700" type="line" smooth="yes"/>
      <point x="654" y="567"/>
      <point x="582" y="493"/>
      <point x="486" y="493" type="curve" smooth="yes"/>
      <point x="409" y="493"/>
      <point x="349" y="542"/>
      <point x="349" y="630" type="curve" smooth="yes"/>
    </contour>
  </outline>
</glyph>
<glyph name="tadeva" format="1">
  <advance width="1271"/>
  <unicode hex="0924"/>
  <outline>
    <contour>
      <point x="1307" y="1137" type="line"/>
      <point x="1324" y="1160" type="line"/>
      <point x="1271" y="1330" type="line"/>
      <point x="-36" y="1330" type="line"/>
      <point x="-53" y="1307" type="line"/>
      <point x="0" y="1137" type="line"/>
      <point x="844" y="1137" type="line"/>
      <point x="844" y="923" type="line"/>
      <point x="386" y="923" type="line" smooth="yes"/>
      <point x="200" y="923"/>
      <point x="106" y="808"/>
      <point x="106" y="627" type="curve" smooth="yes"/>
      <point x="106" y="310"/>
      <point x="395" y="-68"/>
      <point x="556" y="-68" type="curve" smooth="yes"/>
      <point x="593" y="-68"/>
      <point x="623" y="-47"/>
      <point x="633" y="-10" type="curve"/>
      <point x="447" y="141"/>
      <point x="335" y="340"/>
      <point x="335" y="506" type="curve" smooth="yes"/>
      <point x="335" y="622"/>
      <point x="389" y="718"/>
      <point x="538" y="718" type="curve" smooth="yes"/>
      <point x="844" y="718" type="line"/>
      <point x="844" y="-21" type="line"/>
      <point x="1062" y="-57" type="line"/>
      <point x="1084" y="-39" type="line"/>
      <point x="1084" y="1137" type="line"/>
    </contour>
  </outline>
</glyph>
<glyph name="thadeva" format="1">
  <advance width="1401"/>
  <unicode hex="0925"/>
  <outline>
    <contour>
      <point x="182" y="1387"/>
      <point x="78" y="1315"/>
      <point x="78" y="1182" type="curve" smooth="yes"/>
      <point x="78" y="1014"/>
      <point x="244" y="886"/>
      <point x="359" y="886" type="curve" smooth="yes"/>
      <point x="412" y="886"/>
      <point x="443" y="913"/>
      <point x="459" y="932" type="curve"/>
      <point x="351" y="969"/>
      <point x="308" y="1026"/>
      <point x="308" y="1086" type="curve" smooth="yes"/>
      <point x="308" y="1154"/>
      <point x="363" y="1200"/>
      <point x="435" y="1200" type="curve" smooth="yes"/>
      <point x="512" y="1200"/>
      <point x="545" y="1146"/>
      <point x="545" y="1064" type="curve" smooth="yes"/>
      <point x="545" y="909"/>
      <point x="428" y="791"/>
      <point x="163" y="714" type="curve"/>
      <point x="151" y="688" type="line"/>
      <point x="328" y="343"/>
      <point x="595" y="181"/>
      <point x="828" y="181" type="curve" smooth="yes"/>
      <point x="876" y="181"/>
      <point x="917" y="188"/>
      <point x="974" y="210" type="curve"/>
      <point x="974" y="-21" type="line"/>
      <point x="1191" y="-57" type="line"/>
      <point x="1213" y="-39" type="line"/>
      <point x="1214" y="1137" type="line"/>
      <point x="1437" y="1137" type="line"/>
      <point x="1454" y="1160" type="line"/>
      <point x="1401" y="1330" type="line"/>
      <point x="764" y="1330" type="line"/>
      <point x="747" y="1307" type="line"/>
      <point x="800" y="1137" type="line"/>
      <point x="974" y="1137" type="line"/>
      <point x="974" y="680" type="line" smooth="yes"/>
      <point x="974" y="512"/>
      <point x="838" y="401"/>
      <point x="674" y="401" type="curve" smooth="yes"/>
      <point x="572" y="401"/>
      <point x="483" y="444"/>
      <point x="414" y="529" type="curve"/>
      <point x="652" y="614"/>
      <point x="765" y="751"/>
      <point x="765" y="923" type="curve" smooth="yes"/>
      <point x="765" y="1166"/>
      <point x="542" y="1387"/>
      <point x="313" y="1387" type="curve" smooth="yes"/>
    </contour>
  </outline>
</glyph>
<glyph name="dadeva" format="1">
  <advance width="1088"/>
  <unicode hex="0926"/>
  <outline>
    <contour>
      <point x="852" y="759" type="line"/>
      <point x="872" y="779" type="line"/>
      <point x="872" y="1137" type="line"/>
      <point x="1124" y="1137" type="line"/>
      <point x="1141" y="1160" type="line"/>
      <point x="1088" y="1330" type="line"/>
      <point x="-36" y="1330" type="line"/>
      <point x="-53" y="1307" type="line"/>
      <point x="0" y="1137" type="line"/>
      <point x="638" y="1137" type="line"/>
      <point x="638" y="986" type="line" smooth="yes"/>
      <point x="638" y="973"/>
      <point x="631" y="966"/>
      <point x="618" y="966" type="curve" smooth="yes"/>
      <point x="512" y="966" type="line" smooth="yes"/>
      <point x="194" y="966"/>
      <point x="57" y="791"/>
      <point x="57" y="583" type="curve" smooth="yes"/>
      <point x="57" y="286"/>
      <point x="335" y="31"/>
      <point x="645" y="31" type="curve" smooth="yes"/>
      <point x="723" y="31"/>
      <point x="784" y="47"/>
      <point x="833" y="69" type="curve"/>
      <point x="857" y="35"/>
      <point x="864" y="12"/>
      <point x="864" y="-14" type="curve" smooth="yes"/>
      <point x="864" y="-75"/>
      <point x="824" y="-105"/>
      <point x="735" y="-128" type="curve"/>
      <point x="756" y="-227"/>
      <point x="817" y="-292"/>
      <point x="903" y="-292" type="curve" smooth="yes"/>
      <point x="992" y="-292"/>
      <point x="1058" y="-222"/>
      <point x="1058" y="-138" type="curve" smooth="yes"/>
      <point x="1058" y="-79"/>
      <point x="1025" y="4"/>
      <point x="924" y="133" type="curve"/>
      <point x="959" y="170"/>
      <point x="985" y="222"/>
      <point x="985" y="280" type="curve" smooth="yes"/>
      <point x="985" y="389"/>
      <point x="894" y="499"/>
      <point x="774" y="499" type="curve" smooth="yes"/>
      <point x="685" y="499"/>
      <point x="629" y="438"/>
      <point x="629" y="364" type="curve" smooth="yes"/>
      <point x="629" y="325"/>
      <point x="644" y="291"/>
      <point x="676" y="253" type="curve"/>
      <point x="629" y="232"/>
      <point x="569" y="219"/>
      <point x="518" y="219" type="curve" smooth="yes"/>
      <point x="386" y="219"/>
      <point x="279" y="305"/>
      <point x="279" y="458" type="curve" smooth="yes"/>
      <point x="279" y="630"/>
      <point x="414" y="759"/>
      <point x="643" y="759" type="curve" smooth="yes"/>
    </contour>
  </outline>
</glyph>
<glyph name="dhadeva" format="1">
  <advance width="1375"/>
  <unicode hex="0927"/>
  <outline>
    <contour>
      <point x="1428" y="1160" type="line"/>
      <point x="1375" y="1330" type="line"/>
      <point x="738" y="1330" type="line"/>
      <point x="721" y="1307" type="line"/>
      <point x="774" y="1137" type="line"/>
      <point x="948" y="1137" type="line"/>
      <point x="948" y="610" type="line" smooth="yes"/>
      <point x="948" y="461"/>
      <point x="806" y="351"/>
      <point x="657" y="351" type="curve" smooth="yes"/>
      <point x="562" y="351"/>
      <point x="505" y="396"/>
      <point x="505" y="468" type="curve" smooth="yes"/>
      <point x="505" y="565"/>
      <point x="610" y="680"/>
      <point x="808" y="715" type="curve"/>
      <point x="818" y="741" type="line"/>
      <point x="640" y="918" type="line"/>
      <point x="567" y="910"/>
      <point x="502" y="887"/>
      <point x="449" y="852" type="curve"/>
      <point x="369" y="917"/>
      <point x="336" y="984"/>
      <point x="336" y="1051" type="curve" smooth="yes"/>
      <point x="336" y="1131"/>
      <point x="383" y="1189"/>
      <point x="445" y="1189" type="curve" smooth="yes"/>
      <point x="506" y="1189"/>
      <point x="543" y="1131"/>
      <point x="543" y="1037" type="curve"/>
      <point x="584" y="1037"/>
      <point x="631" y="1062"/>
      <point x="631" y="1141" type="curve" smooth="yes"/>
      <point x="631" y="1262"/>
      <point x="522" y="1387"/>
      <point x="352" y="1387" type="curve" smooth="yes"/>
      <point x="195" y="1387"/>
      <point x="100" y="1281"/>
      <point x="100" y="1146" type="curve" smooth="yes"/>
      <point x="100" y="1007"/>
      <point x="202" y="866"/>
      <point x="352" y="765" type="curve"/>
      <point x="314" y="709"/>
      <point x="293" y="644"/>
      <point x="293" y="576" type="curve" smooth="yes"/>
      <point x="293" y="349"/>
      <point x="523" y="161"/>
      <point x="789" y="161" type="curve" smooth="yes"/>
      <point x="844" y="161"/>
      <point x="899" y="169"/>
      <point x="948" y="188" type="curve"/>
      <point x="948" y="-21" type="line"/>
      <point x="1166" y="-57" type="line"/>
      <point x="1188" y="-39" type="line"/>
      <point x="1188" y="1137" type="line"/>
      <point x="1411" y="1137" type="line"/>
    </contour>
  </outline>
</glyph>
<glyph name="nadeva" format="1">
  <advance width="1181"/>
  <unicode hex="0928"/>
  <outline>
    <contour>
      <point x="1234" y="1160" type="line"/>
      <point x="1181" y="1330" type="line"/>
      <point x="-36" y="1330" type="line"/>
      <point x="-53" y="1307" type="line"/>
      <point x="0" y="1137" type="line"/>
      <point x="754" y="1137" type="line"/>
      <point x="754" y="863" type="line"/>
      <point x="236" y="863" type="line" smooth="yes"/>
      <point x="136" y="863"/>
      <point x="45" y="848"/>
      <point x="45" y="765" type="curve" smooth="yes"/>
      <point x="45" y="635"/>
      <point x="266" y="424"/>
      <point x="364" y="424" type="curve" smooth="yes"/>
      <point x="397" y="424"/>
      <point x="428" y="447"/>
      <point x="428" y="503" type="curve" smooth="yes"/>
      <point x="428" y="658" type="line"/>
      <point x="754" y="658" type="line"/>
      <point x="754" y="-21" type="line"/>
      <point x="972" y="-57" type="line"/>
      <point x="994" y="-39" type="line"/>
      <point x="994" y="1137" type="line"/>
      <point x="1217" y="1137" type="line"/>
    </contour>
  </outline>
</glyph>
<glyph name="nnnadeva" format="1">
  <advance width="1181"/>
  <unicode hex="0929"/>
  <outline>
    <contour>
      <point x="1234" y="1160" type="line"/>
      <point x="1181" y="1330" type="line"/>
      <point x="-36" y="1330" type="line"/>
      <point x="-53" y="1307" type="line"/>
      <point x="0" y="1137" type="line"/>
      <point x="754" y="1137" type="line"/>
      <point x="754" y="863" type="line"/>
      <point x="236" y="863" type="line" smooth="yes"/>
      <point x="136" y="863"/>
      <point x="45" y="848"/>
      <point x="45" y="765" type="curve" smooth="yes"/>
      <point x="45" y="635"/>
      <point x="266" y="424"/>
      <point x="364" y="424" type="curve" smooth="yes"/>
      <point x="397" y="424"/>
      <point x="428" y="447"/>
      <point x="428" y="503" type="curve" smooth="yes"/>
      <point x="428" y="658" type="line"/>
      <point x="754" y="658" type="line"/>
      <point x="754" y="-21" type="line"/>
      <point x="972" y="-57" type="line"/>
      <point x="994" y="-39" type="line"/>
      <point x="994" y="1137" type="line"/>
      <point x="1217" y="1137" type="line"/>
    </contour>
    <contour>
      <point x="352" y="176"/>
      <point x="295" y="119"/>
      <point x="295" y="50" type="curve" smooth="yes"/>
      <point x="295" y="-19"/>
      <point x="352" y="-76"/>
      <point x="422" y="-76" type="curve" smooth="yes"/>
      <point x="491" y="-76"/>
      <point x="547" y="-19"/>
      <point x="547" y="50" type="curve" smooth="yes"/>
      <point x="547" y="119"/>
      <point x="491" y="176"/>
      <point x="422" y="176" type="curve" smooth="yes"/>
    </contour>
  </outline>
</glyph>
<glyph name="padeva" format="1">
  <advance width="1171"/>
  <unicode hex="092A"/>
  <outline>
    <contour>
      <point x="1171" y="1330" type="line"/>
      <point x="-36" y="1330" type="line"/>
      <point x="-53" y="1307" type="line"/>
      <point x="0" y="1137" type="line"/>
      <point x="129" y="1137" type="line"/>
      <point x="129" y="755" type="line" smooth="yes"/>
      <point x="129" y="507"/>
      <point x="345" y="291"/>
      <point x="568" y="291" type="curve" smooth="yes"/>
      <point x="621" y="291"/>
      <point x="681" y="303"/>
      <point x="744" y="330" type="curve"/>
      <point x="744" y="-21" type="line"/>
      <point x="962" y="-57" type="line"/>
      <point x="984" y="-39" type="line"/>
      <point x="984" y="1137" type="line"/>
      <point x="1207" y="1137" type="line"/>
      <point x="1224" y="1160" type="line"/>
    </contour>
    <contour>
      <point x="744" y="1137" type="line"/>
      <point x="744" y="750" type="line" smooth="yes"/>
      <point x="744" y="594"/>
      <point x="612" y="473"/>
      <point x="489" y="473" type="curve" smooth="yes"/>
      <point x="403" y="473"/>
      <point x="359" y="531"/>
      <point x="359" y="640" type="curve" smooth="yes"/>
      <point x="359" y="1137" type="line"/>
    </contour>
  </outline>
</glyph>
<glyph name="phadeva" format="1">
  <advance width="1560"/>
  <unicode hex="092B"/>
  <outline>
    <contour>
      <point x="1613" y="1160" type="line"/>
      <point x="1560" y="1330" type="line"/>
      <point x="-36" y="1330" type="line"/>
      <point x="-53" y="1307" type="line"/>
      <point x="0" y="1137" type="line"/>
      <point x="129" y="1137" type="line"/>
      <point x="129" y="745" type="line" smooth="yes"/>
      <point x="129" y="506"/>
      <point x="343" y="301"/>
      <point x="558" y="301" type="curve" smooth="yes"/>
      <point x="597" y="301"/>
      <point x="637" y="308"/>
      <point x="675" y="321" type="curve"/>
      <point x="684" y="315" type="line"/>
      <point x="684" y="-21" type="line"/>
      <point x="892" y="-57" type="line"/>
      <point x="914" y="-39" type="line"/>
      <point x="914" y="518" type="line" smooth="yes"/>
      <point x="914" y="659"/>
      <point x="1042" y="755"/>
      <point x="1153" y="755" type="curve" smooth="yes"/>
      <point x="1230" y="755"/>
      <point x="1261" y="708"/>
      <point x="1261" y="634" type="curve" smooth="yes"/>
      <point x="1261" y="513"/>
      <point x="1177" y="361"/>
      <point x="1047" y="293" type="curve"/>
      <point x="1107" y="206"/>
      <point x="1181" y="170"/>
      <point x="1243" y="170" type="curve" smooth="yes"/>
      <point x="1349" y="170"/>
      <point x="1466" y="278"/>
      <point x="1466" y="496" type="curve" smooth="yes"/>
      <point x="1466" y="773"/>
      <point x="1276" y="942"/>
      <point x="1076" y="942" type="curve" smooth="yes"/>
      <point x="1020" y="942"/>
      <point x="969" y="929"/>
      <point x="924" y="903" type="curve"/>
      <point x="914" y="909" type="line"/>
      <point x="914" y="1137" type="line"/>
      <point x="1596" y="1137" type="line"/>
    </contour>
    <contour>
      <point x="369" y="1137" type="line"/>
      <point x="684" y="1137" type="line"/>
      <point x="684" y="740" type="line" smooth="yes"/>
      <point x="684" y="602"/>
      <point x="565" y="493"/>
      <point x="461" y="493" type="curve" smooth="yes"/>
      <point x="398" y="493"/>
      <point x="369" y="533"/>
      <point x="369" y="620" type="curve" smooth="yes"/>
    </contour>
  </outline>
</glyph>
<glyph name="badeva" format="1">
  <advance width="1230"/>
  <unicode hex="092C"/>
  <outline>
    <contour>
      <point x="1230" y="1330" type="line"/>
      <point x="-36" y="1330" type="line"/>
      <point x="-53" y="1307" type="line"/>
      <point x="0" y="1137" type="line"/>
      <point x="813" y="1137" type="line"/>
      <point x="813" y="899" type="line"/>
      <point x="803" y="894" type="line"/>
      <point x="709" y="965"/>
      <point x="586" y="997"/>
      <point x="478" y="997" type="curve" smooth="yes"/>
      <point x="253" y="997"/>
      <point x="89" y="859"/>
      <point x="89" y="659" type="curve" smooth="yes"/>
      <point x="89" y="403"/>
      <point x="358" y="179"/>
      <point x="599" y="179" type="curve" smooth="yes"/>
      <point x="667" y="179"/>
      <point x="741" y="197"/>
      <point x="803" y="228" type="curve"/>
      <point x="813" y="222" type="line"/>
      <point x="813" y="-21" type="line"/>
      <point x="1021" y="-57" type="line"/>
      <point x="1043" y="-39" type="line"/>
      <point x="1043" y="1137" type="line"/>
      <point x="1266" y="1137" type="line"/>
      <point x="1283" y="1160" type="line"/>
    </contour>
    <contour>
      <point x="813" y="608" type="line" smooth="yes"/>
      <point x="813" y="552.2"/>
      <point x="790.61" y="503.47"/>
      <point x="754.188" y="465.402" type="curve"/>
      <point x="497.972" y="772.415" type="line"/>
      <point x="524.094" y="779.292"/>
      <point x="552.282" y="783"/>
      <point x="582" y="783" type="curve" smooth="yes"/>
      <point x="719" y="783"/>
      <point x="813" y="705"/>
      <point x="813" y="632" type="curve" smooth="yes"/>
    </contour>
    <contour>
      <point x="402" y="378"/>
      <point x="318" y="458"/>
      <point x="318" y="564" type="curve" smooth="yes"/>
      <point x="318" y="610.976"/>
      <point x="334.606" y="654.246"/>
      <point x="363.706" y="689.699" type="curve"/>
      <point x="619.448" y="388.827" type="line"/>
      <point x="592.418" y="381.747"/>
      <point x="563.948" y="378"/>
      <point x="535" y="378" type="curve" smooth="yes"/>
    </contour>
  </outline>
</glyph>
<glyph name="madeva" format="1">
  <advance width="1246"/>
  <unicode hex="092E"/>
  <outline>
    <contour>
      <point x="1246" y="1330" type="line"/>
      <point x="-36" y="1330" type="line"/>
      <point x="-53" y="1307" type="line"/>
      <point x="0" y="1137" type="line"/>
      <point x="200" y="1137" type="line"/>
      <point x="200" y="652" type="line"/>
      <point x="85" y="648"/>
      <point x="55" y="610"/>
      <point x="55" y="557" type="curve" smooth="yes"/>
      <point x="55" y="411"/>
      <point x="287" y="224"/>
      <point x="380" y="224" type="curve" smooth="yes"/>
      <point x="413" y="224"/>
      <point x="438" y="247"/>
      <point x="438" y="303" type="curve" smooth="yes"/>
      <point x="438" y="448" type="line"/>
      <point x="819" y="448" type="line"/>
      <point x="819" y="-21" type="line"/>
      <point x="1037" y="-57" type="line"/>
      <point x="1059" y="-39" type="line"/>
      <point x="1059" y="1137" type="line"/>
      <point x="1282" y="1137" type="line"/>
      <point x="1299" y="1160" type="line"/>
    </contour>
    <contour>
      <point x="819" y="1137" type="line"/>
      <point x="819" y="653" type="line"/>
      <point x="438" y="653" type="line"/>
      <point x="438" y="1137" type="line"/>
    </contour>
  </outline>
</glyph>
<glyph name="yadeva" format="1">
  <advance width="1308"/>
  <unicode hex="092F"/>
  <outline>
    <contour>
      <point x="1308" y="1330" type="line"/>
      <point x="-36" y="1330" type="line"/>
      <point x="-53" y="1307" type="line"/>
      <point x="0" y="1137" type="line"/>
      <point x="358" y="1137" type="line"/>
      <point x="372" y="1101"/>
      <point x="382" y="1058"/>
      <point x="382" y="1013" type="curve" smooth="yes"/>
      <point x="382" y="894"/>
      <point x="314" y="816"/>
      <point x="99" y="754" type="curve"/>
      <point x="87" y="728" type="line"/>
      <point x="259" y="350"/>
      <point x="512" y="201"/>
      <point x="731" y="201" type="curve" smooth="yes"/>
      <point x="789" y="201"/>
      <point x="826" y="209"/>
      <point x="881" y="229" type="curve"/>
      <point x="881" y="-21" type="line"/>
      <point x="1098" y="-57" type="line"/>
      <point x="1120" y="-39" type="line"/>
      <point x="1121" y="1137" type="line"/>
      <point x="1344" y="1137" type="line"/>
      <point x="1361" y="1160" type="line"/>
    </contour>
    <contour>
      <point x="881" y="1137" type="line"/>
      <point x="881" y="690" type="line" smooth="yes"/>
      <point x="881" y="528"/>
      <point x="737" y="421"/>
      <point x="599" y="421" type="curve" smooth="yes"/>
      <point x="506" y="421"/>
      <point x="412" y="469"/>
      <point x="347" y="568" type="curve"/>
      <point x="514" y="629"/>
      <point x="602" y="726"/>
      <point x="602" y="858" type="curve" smooth="yes"/>
      <point x="602" y="943"/>
      <point x="568" y="1040"/>
      <point x="510" y="1137" type="curve"/>
    </contour>
  </outline>
</glyph>
<glyph name="lladeva" format="1">
  <advance width="1511"/>
  <unicode hex="0933"/>
  <outline>
    <contour>
      <point x="1511" y="1330" type="line"/>
      <point x="-36" y="1330" type="line"/>
      <point x="-53" y="1307" type="line"/>
      <point x="0" y="1137" type="line"/>
      <point x="924" y="1137" type="line"/>
      <point x="924" y="894" type="line"/>
      <point x="849" y="877"/>
      <point x="799" y="826"/>
      <point x="744" y="736" type="curve"/>
      <point x="612" y="854"/>
      <point x="493" y="910"/>
      <point x="374" y="910" type="curve" smooth="yes"/>
      <point x="186" y="910"/>
      <point x="56" y="770"/>
      <point x="56" y="586" type="curve" smooth="yes"/>
      <point x="56" y="335"/>
      <point x="299" y="102"/>
      <point x="531" y="102" type="curve" smooth="yes"/>
      <point x="658" y="102"/>
      <point x="725" y="172"/>
      <point x="786" y="274" type="curve"/>
      <point x="910" y="159"/>
      <point x="1032" y="92"/>
      <point x="1158" y="92" type="curve" smooth="yes"/>
      <point x="1339" y="92"/>
      <point x="1465" y="230"/>
      <point x="1465" y="413" type="curve" smooth="yes"/>
      <point x="1465" y="605"/>
      <point x="1326" y="787"/>
      <point x="1154" y="863" type="curve"/>
      <point x="1154" y="1137" type="line"/>
      <point x="1547" y="1137" type="line"/>
      <point x="1564" y="1160" type="line"/>
    </contour>
    <contour>
      <point x="560" y="699"/>
      <point x="622" y="676"/>
      <point x="683" y="630" type="curve"/>
      <point x="660" y="587" type="line" smooth="yes"/>
      <point x="563" y="407"/>
      <point x="509" y="308"/>
      <point x="405" y="308" type="curve" smooth="yes"/>
      <point x="324" y="308"/>
      <point x="280" y="367"/>
      <point x="280" y="458" type="curve" smooth="yes"/>
      <point x="280" y="584"/>
      <point x="365" y="699"/>
      <point x="500" y="699" type="curve" smooth="yes"/>
    </contour>
    <contour>
      <point x="1204" y="689"/>
      <point x="1241" y="628"/>
      <point x="1241" y="540" type="curve" smooth="yes"/>
      <point x="1241" y="406"/>
      <point x="1155" y="297"/>
      <point x="1026" y="297" type="curve" smooth="yes"/>
      <point x="965" y="297"/>
      <point x="903" y="322"/>
      <point x="842" y="377" type="curve"/>
      <point x="862" y="414" type="line" smooth="yes"/>
      <point x="965" y="607"/>
      <point x="1027" y="689"/>
      <point x="1122" y="689" type="curve" smooth="yes"/>
    </contour>
  </outline>
</glyph>
<glyph name="vadeva" format="1">
  <advance width="1230"/>
  <unicode hex="0935"/>
  <outline>
    <contour>
      <point x="1283" y="1160" type="line"/>
      <point x="1230" y="1330" type="line"/>
      <point x="-36" y="1330" type="line"/>
      <point x="-53" y="1307" type="line"/>
      <point x="0" y="1137" type="line"/>
      <point x="813" y="1137" type="line"/>
      <point x="813" y="899" type="line"/>
      <point x="803" y="894" type="line"/>
      <point x="709" y="965"/>
      <point x="586" y="997"/>
      <point x="478" y="997" type="curve" smooth="yes"/>
      <point x="253" y="997"/>
      <point x="89" y="859"/>
      <point x="89" y="659" type="curve" smooth="yes"/>
      <point x="89" y="403"/>
      <point x="358" y="179"/>
      <point x="599" y="179" type="curve" smooth="yes"/>
      <point x="667" y="179"/>
      <point x="741" y="197"/>
      <point x="803" y="228" type="curve"/>
      <point x="813" y="222" type="line"/>
      <point x="813" y="-21" type="line"/>
      <point x="1021" y="-57" type="line"/>
      <point x="1043" y="-39" type="line"/>
      <point x="1043" y="1137" type="line"/>
      <point x="1266" y="1137" type="line"/>
    </contour>
    <contour>
      <point x="719" y="783"/>
      <point x="813" y="705"/>
      <point x="813" y="632" type="curve" smooth="yes"/>
      <point x="813" y="608" type="line" smooth="yes"/>
      <point x="813" y="472"/>
      <point x="680" y="378"/>
      <point x="535" y="378" type="curve" smooth="yes"/>
      <point x="402" y="378"/>
      <point x="318" y="458"/>
      <point x="318" y="564" type="curve" smooth="yes"/>
      <point x="318" y="686"/>
      <point x="430" y="783"/>
      <point x="582" y="783" type="curve" smooth="yes"/>
    </contour>
  </outline>
</glyph>
<glyph name="shadeva" format="1">
  <advance width="1551"/>
  <unicode hex="0936"/>
  <outline>
    <contour>
      <point x="1551" y="1330" type="line"/>
      <point x="-36" y="1330" type="line"/>
      <point x="-53" y="1307" type="line"/>
      <point x="0" y="1137" type="line"/>
      <point x="242" y="1137" type="line"/>
      <point x="239" y="1119"/>
      <point x="238" y="1103"/>
      <point x="238" y="1087" type="curve" smooth="yes"/>
      <point x="238" y="920"/>
      <point x="345" y="781"/>
      <point x="576" y="664" type="curve"/>
      <point x="533" y="617"/>
      <point x="480" y="576"/>
      <point x="415" y="544" type="curve"/>
      <point x="355" y="609"/>
      <point x="284" y="645"/>
      <point x="212" y="645" type="curve" smooth="yes"/>
      <point x="128" y="645"/>
      <point x="76" y="595"/>
      <point x="76" y="518" type="curve" smooth="yes"/>
      <point x="76" y="403"/>
      <point x="194" y="312"/>
      <point x="379" y="298" type="curve"/>
      <point x="517" y="43"/>
      <point x="674" y="-65"/>
      <point x="824" y="-65" type="curve" smooth="yes"/>
      <point x="926" y="-65"/>
      <point x="980" y="-15"/>
      <point x="980" y="63" type="curve" smooth="yes"/>
      <point x="980" y="110"/>
      <point x="961" y="150"/>
      <point x="907" y="211" type="curve"/>
      <point x="859" y="183"/>
      <point x="807" y="165"/>
      <point x="749" y="165" type="curve" smooth="yes"/>
      <point x="672" y="165"/>
      <point x="590" y="196"/>
      <point x="530" y="320" type="curve"/>
      <point x="815" y="426"/>
      <point x="928" y="656"/>
      <point x="925" y="848" type="curve" smooth="yes"/>
      <point x="924" y="954"/>
      <point x="886" y="1051"/>
      <point x="823" y="1137" type="curve"/>
      <point x="1124" y="1137" type="line"/>
      <point x="1124" y="-21" type="line"/>
      <point x="1342" y="-57" type="line"/>
      <point x="1364" y="-39" type="line"/>
      <point x="1364" y="1137" type="line"/>
      <point x="1587" y="1137" type="line"/>
      <point x="1604" y="1160" type="line"/>
    </contour>
    <contour>
      <point x="662" y="1145"/>
      <point x="708" y="1097"/>
      <point x="708" y="983" type="curve" smooth="yes"/>
      <point x="708" y="910"/>
      <point x="689" y="837"/>
      <point x="650" y="767" type="curve"/>
      <point x="518" y="841"/>
      <point x="468" y="915"/>
      <point x="468" y="1002" type="curve" smooth="yes"/>
      <point x="468" y="1085"/>
      <point x="513" y="1145"/>
      <point x="592" y="1145" type="curve" smooth="yes"/>
    </contour>
  </outline>
</glyph>
<glyph name="ssadeva" format="1">
  <advance width="1171"/>
  <unicode hex="0937"/>
  <outline>
    <contour>
      <point x="1171" y="1330" type="line"/>
      <point x="-36" y="1330" type="line"/>
      <point x="-53" y="1307" type="line"/>
      <point x="0" y="1137" type="line"/>
      <point x="129" y="1137" type="line"/>
      <point x="129" y="755" type="line" smooth="yes"/>
      <point x="129" y="507"/>
      <point x="345" y="291"/>
      <point x="568" y="291" type="curve" smooth="yes"/>
      <point x="621" y="291"/>
      <point x="681" y="303"/>
      <point x="744" y="330" type="curve"/>
      <point x="744" y="-21" type="line"/>
      <point x="962" y="-57" type="line"/>
      <point x="984" y="-39" type="line"/>
      <point x="984" y="1137" type="line"/>
      <point x="1207" y="1137" type="line"/>
      <point x="1224" y="1160" type="line"/>
    </contour>
    <contour>
      <point x="744" y="750" type="line" smooth="yes"/>
      <point x="744" y="728.471"/>
      <point x="741.486" y="707.608"/>
      <point x="736.828" y="687.638" type="curve"/>
      <point x="410.077" y="1137" type="line"/>
      <point x="744" y="1137" type="line"/>
    </contour>
    <contour>
      <point x="403" y="473"/>
      <point x="359" y="531"/>
      <point x="359" y="640" type="curve" smooth="yes"/>
      <point x="359" y="966.831" type="line"/>
      <point x="661.069" y="551.412" type="line"/>
      <point x="612.888" y="502.607"/>
      <point x="549.843" y="473"/>
      <point x="489" y="473" type="curve" smooth="yes"/>
    </contour>
  </outline>
</glyph>
<glyph name="sadeva" format="1">
  <advance width="1420"/>
  <unicode hex="0938"/>
  <outline>
    <contour>
      <point x="1473" y="1160" type="line"/>
      <point x="1420" y="1330" type="line"/>
      <point x="-36" y="1330" type="line"/>
      <point x="-53" y="1307" type="line"/>
      <point x="0" y="1137" type="line"/>
      <point x="421" y="1137" type="line"/>
      <point x="450" y="1064"/>
      <point x="463" y="994"/>
      <point x="463" y="930" type="curve" smooth="yes"/>
      <point x="463" y="842"/>
      <point x="438" y="779"/>
      <point x="380" y="736" type="curve"/>
      <point x="321" y="764"/>
      <point x="261" y="779"/>
      <point x="213" y="779" type="curve" smooth="yes"/>
      <point x="125" y="779"/>
      <point x="78" y="727"/>
      <point x="78" y="650" type="curve" smooth="yes"/>
      <point x="78" y="430"/>
      <point x="463" y="-42"/>
      <point x="676" y="-42" type="curve" smooth="yes"/>
      <point x="741" y="-42"/>
      <point x="807" y="2"/>
      <point x="823" y="76" type="curve"/>
      <point x="620" y="167"/>
      <point x="472" y="269"/>
      <point x="346" y="428" type="curve"/>
      <point x="443" y="449"/>
      <point x="515" y="486"/>
      <point x="567" y="532" type="curve"/>
      <point x="678" y="478"/>
      <point x="798" y="453"/>
      <point x="899" y="453" type="curve" smooth="yes"/>
      <point x="927" y="453"/>
      <point x="955" y="455"/>
      <point x="983" y="461" type="curve"/>
      <point x="992" y="454" type="line"/>
      <point x="992" y="-21" type="line"/>
      <point x="1210" y="-57" type="line"/>
      <point x="1232" y="-39" type="line"/>
      <point x="1232" y="1137" type="line"/>
      <point x="1456" y="1137" type="line"/>
    </contour>
    <contour>
      <point x="596" y="1137" type="line"/>
      <point x="992" y="1137" type="line"/>
      <point x="992" y="847" type="line" smooth="yes"/>
      <point x="992" y="710"/>
      <point x="888" y="636"/>
      <point x="743" y="636" type="curve" smooth="yes"/>
      <point x="714" y="636"/>
      <point x="682" y="639"/>
      <point x="649" y="646" type="curve"/>
      <point x="668" y="692"/>
      <point x="677" y="743"/>
      <point x="677" y="797" type="curve" smooth="yes"/>
      <point x="677" y="906"/>
      <point x="640" y="1021"/>
      <point x="590" y="1128" type="curve"/>
    </contour>
  </outline>
</glyph>
<glyph name="oesigndeva" format="1">
  <advance width="0"/>
  <unicode hex="093A"/>
  <outline>
    <contour>
      <point x="-397" y="1624" type="line"/>
      <point x="-421" y="1602" type="line"/>
      <point x="-421" y="1249" type="line"/>
      <point x="-222" y="1222" type="line"/>
      <point x="-198" y="1244" type="line"/>
      <point x="-198" y="1597" type="line"/>
    </contour>
  </outline>
</glyph>
<glyph name="avagrahadeva" format="1">
  <advance width="1047"/>
  <unicode hex="093D"/>
  <outline>
    <contour>
      <point x="859" y="1330" type="line"/>
      <point x="443" y="1330" type="line" smooth="yes"/>
      <point x="267" y="1330"/>
      <point x="151" y="1254"/>
      <point x="151" y="1108" type="curve" smooth="yes"/>
      <point x="151" y="1038"/>
      <point x="178" y="969"/>
      <point x="224" y="903" type="curve" smooth="yes"/>
      <point x="422" y="619"/>
      <point x="767" y="685"/>
      <point x="767" y="469" type="curve" smooth="yes"/>
      <point x="767" y="360"/>
      <point x="679" y="275"/>
      <point x="540" y="275" type="curve" smooth="yes"/>
      <point x="388" y="275"/>
      <point x="248" y="376"/>
      <point x="212" y="636" type="curve"/>
      <point x="123" y="623"/>
      <point x="110" y="568"/>
      <point x="110" y="518" type="curve" smooth="yes"/>
      <point x="110" y="313"/>
      <point x="329" y="39"/>
      <point x="619" y="39" type="curve" smooth="yes"/>
      <point x="840" y="39"/>
      <point x="967" y="197"/>
      <point x="967" y="362" type="curve" smooth="yes"/>
      <point x="967" y="439"/>
      <point x="939" y="527"/>
      <point x="882" y="607" type="curve" smooth="yes"/>
      <point x="699" y="864"/>
      <point x="361" y="836"/>
      <point x="361" y="1001" type="curve" smooth="yes"/>
      <point x="361" y="1076"/>
      <point x="427" y="1138"/>
      <point x="606" y="1137" type="curve" smooth="yes"/>
      <point x="895" y="1137" type="line"/>
      <point x="912" y="1160" type="line"/>
    </contour>
  </outline>
</glyph>
<glyph name="isigndeva" format="1">
  <advance width="653"/>
  <unicode hex="093F"/>
  <outline>
    <contour>
      <point x="225" y="1926"/>
      <point x="63" y="1782"/>
      <point x="63" y="1590" type="curve" smooth="yes"/>
      <point x="63" y="1491"/>
      <point x="103" y="1408"/>
      <point x="172" y="1330" type="curve"/>
      <point x="-36" y="1330" type="line"/>
      <point x="-53" y="1307" type="line"/>
      <point x="0" y="1137" type="line"/>
      <point x="206" y="1137" type="line"/>
      <point x="206" y="-21" type="line"/>
      <point x="424" y="-57" type="line"/>
      <point x="446" y="-39" type="line"/>
      <point x="446" y="1137" type="line"/>
      <point x="689" y="1137" type="line"/>
      <point x="706" y="1160" type="line"/>
      <point x="653" y="1330" type="line"/>
      <point x="349" y="1330" type="line"/>
      <point x="306" y="1379"/>
      <point x="289" y="1433"/>
      <point x="289" y="1483" type="curve" smooth="yes"/>
      <point x="289" y="1605"/>
      <point x="392" y="1696"/>
      <point x="612" y="1696" type="curve" smooth="yes"/>
      <point x="917" y="1696"/>
      <point x="1242" y="1521"/>
      <point x="1473" y="1232" type="curve"/>
      <point x="1610" y="1290" type="line"/>
      <point x="1304" y="1704"/>
      <point x="889" y="1926"/>
      <point x="521" y="1926" type="curve" smooth="yes"/>
    </contour>
  </outline>
</glyph>
<glyph name="usigndeva" format="1">
  <advance width="0"/>
  <unicode hex="0941"/>
  <outline>
    <contour>
      <point x="-481" y="30"/>
      <point x="-569" y="-36"/>
      <point x="-569" y="-104" type="curve" smooth="yes"/>
      <point x="-569" y="-178"/>
      <point x="-512" y="-238"/>
      <point x="-393" y="-248" type="curve"/>
      <point x="-343" y="-183"/>
      <point x="-298" y="-157"/>
      <point x="-252" y="-157" type="curve" smooth="yes"/>
      <point x="-211" y="-157"/>
      <point x="-185" y="-177"/>
      <point x="-185" y="-220" type="curve" smooth="yes"/>
      <point x="-185" y="-291"/>
      <point x="-257" y="-349"/>
      <point x="-374" y="-349" type="curve" smooth="yes"/>
      <point x="-541" y="-349"/>
      <point x="-697" y="-232"/>
      <point x="-805" y="16" type="curve"/>
      <point x="-848" y="4"/>
      <point x="-884" y="-44"/>
      <point x="-884" y="-99" type="curve" smooth="yes"/>
      <point x="-884" y="-247"/>
      <point x="-626" y="-554"/>
      <point x="-299" y="-554" type="curve" smooth="yes"/>
      <point x="-132" y="-554"/>
      <point x="-1" y="-475"/>
      <point x="-1" y="-323" type="curve" smooth="yes"/>
      <point x="-1" y="-151"/>
      <point x="-170" y="30"/>
      <point x="-364" y="30" type="curve" smooth="yes"/>
    </contour>
    <contour>
      <point x="-143" y="61" type="move" name="_class0"/>
    </contour>
  </outline>
</glyph>
<glyph name="uusigndeva" format="1">
  <advance width="0"/>
  <unicode hex="0942"/>
  <outline>
    <contour>
      <point x="-510" y="21"/>
      <point x="-635" y="-66"/>
      <point x="-635" y="-217" type="curve" smooth="yes"/>
      <point x="-635" y="-381"/>
      <point x="-487" y="-547"/>
      <point x="-289" y="-547" type="curve" smooth="yes"/>
      <point x="-160" y="-547"/>
      <point x="-92" y="-477"/>
      <point x="-92" y="-405" type="curve" smooth="yes"/>
      <point x="-92" y="-341"/>
      <point x="-141" y="-276"/>
      <point x="-243" y="-264" type="curve"/>
      <point x="-301" y="-335"/>
      <point x="-352" y="-360"/>
      <point x="-392" y="-360" type="curve" smooth="yes"/>
      <point x="-432" y="-360"/>
      <point x="-451" y="-334"/>
      <point x="-451" y="-299" type="curve" smooth="yes"/>
      <point x="-451" y="-231"/>
      <point x="-382" y="-186"/>
      <point x="-282" y="-186" type="curve" smooth="yes"/>
      <point x="-147" y="-186"/>
      <point x="-5" y="-267"/>
      <point x="155" y="-459" type="curve"/>
      <point x="196" y="-448"/>
      <point x="220" y="-419"/>
      <point x="220" y="-386" type="curve" smooth="yes"/>
      <point x="220" y="-266"/>
      <point x="-94" y="21"/>
      <point x="-362" y="21" type="curve" smooth="yes"/>
    </contour>
    <contour>
      <point x="-130" y="69" type="move" name="_class0"/>
    </contour>
  </outline>
</glyph>
<glyph name="rvocalicsigndeva" format="1">
  <advance width="0"/>
  <unicode hex="0943"/>
  <outline>
    <contour>
      <point x="-347" y="96" type="line"/>
      <point x="-537" y="46"/>
      <point x="-619" y="-48"/>
      <point x="-619" y="-146" type="curve" smooth="yes"/>
      <point x="-619" y="-289"/>
      <point x="-443" y="-478"/>
      <point x="-214" y="-478" type="curve" smooth="yes"/>
      <point x="-87" y="-478"/>
      <point x="30" y="-420"/>
      <point x="30" y="-330" type="curve" smooth="yes"/>
      <point x="30" y="-266"/>
      <point x="-29" y="-197"/>
      <point x="-104" y="-171" type="curve"/>
      <point x="-153" y="-229"/>
      <point x="-268" y="-300"/>
      <point x="-350" y="-300" type="curve" smooth="yes"/>
      <point x="-399" y="-300"/>
      <point x="-420" y="-274"/>
      <point x="-420" y="-234" type="curve" smooth="yes"/>
      <point x="-420" y="-183"/>
      <point x="-381" y="-114"/>
      <point x="-187" y="-59" type="curve"/>
      <point x="-187" y="-32" type="line"/>
    </contour>
    <contour>
      <point x="-127" y="50" type="move" name="_class0"/>
    </contour>
  </outline>
</glyph>
<glyph name="rrvocalicsigndeva" format="1">
  <advance width="0"/>
  <unicode hex="0944"/>
  <outline>
    <contour>
      <point x="-187" y="-32" type="line"/>
      <point x="-373" y="91" type="line"/>
      <point x="-584" y="35"/>
      <point x="-654" y="-71"/>
      <point x="-654" y="-157" type="curve" smooth="yes"/>
      <point x="-654" y="-235"/>
      <point x="-605" y="-314"/>
      <point x="-524" y="-368" type="curve"/>
      <point x="-543" y="-396"/>
      <point x="-551" y="-423"/>
      <point x="-551" y="-451" type="curve" smooth="yes"/>
      <point x="-551" y="-582"/>
      <point x="-390" y="-729"/>
      <point x="-196" y="-729" type="curve" smooth="yes"/>
      <point x="-53" y="-729"/>
      <point x="42" y="-649"/>
      <point x="42" y="-575" type="curve" smooth="yes"/>
      <point x="42" y="-511"/>
      <point x="-30" y="-460"/>
      <point x="-96" y="-437" type="curve"/>
      <point x="-153" y="-523"/>
      <point x="-241" y="-561"/>
      <point x="-298" y="-561" type="curve" smooth="yes"/>
      <point x="-334" y="-561"/>
      <point x="-352" y="-546"/>
      <point x="-352" y="-517" type="curve" smooth="yes"/>
      <point x="-352" y="-473"/>
      <point x="-311" y="-421"/>
      <point x="-122" y="-341" type="curve"/>
      <point x="-116" y="-312" type="line"/>
      <point x="-251" y="-184" type="line"/>
      <point x="-350" y="-249"/>
      <point x="-396" y="-278"/>
      <point x="-431" y="-278" type="curve" smooth="yes"/>
      <point x="-452" y="-278"/>
      <point x="-465" y="-267"/>
      <point x="-465" y="-244" type="curve" smooth="yes"/>
      <point x="-465" y="-196"/>
      <point x="-428" y="-121"/>
      <point x="-187" y="-59" type="curve"/>
    </contour>
  </outline>
</glyph>
<glyph name="ecandrasigndeva" format="1">
  <advance width="0"/>
  <unicode hex="0945"/>
  <outline>
    <contour>
      <point x="-663" y="1892"/>
      <point x="-693" y="1876"/>
      <point x="-693" y="1809" type="curve" smooth="yes"/>
      <point x="-693" y="1673"/>
      <point x="-570" y="1446"/>
      <point x="-307" y="1446" type="curve" smooth="yes"/>
      <point x="-114" y="1446"/>
      <point x="15" y="1569"/>
      <point x="15" y="1722" type="curve" smooth="yes"/>
      <point x="15" y="1814"/>
      <point x="-29" y="1873"/>
      <point x="-120" y="1906" type="curve"/>
      <point x="-143" y="1716"/>
      <point x="-230" y="1629"/>
      <point x="-360" y="1629" type="curve" smooth="yes"/>
      <point x="-490" y="1629"/>
      <point x="-570" y="1717"/>
      <point x="-624" y="1904" type="curve"/>
    </contour>
  </outline>
</glyph>
<glyph name="eshortsigndeva" format="1">
  <advance width="0"/>
  <unicode hex="0946"/>
  <outline>
    <contour>
      <point x="-1253" y="1922"/>
      <point x="-1263" y="1896"/>
      <point x="-1263" y="1852" type="curve" smooth="yes"/>
      <point x="-1263" y="1687"/>
      <point x="-1083" y="1521"/>
      <point x="-628" y="1494" type="curve" smooth="yes"/>
      <point x="-441" y="1482"/>
      <point x="-395" y="1461"/>
      <point x="-395" y="1403" type="curve" smooth="yes"/>
      <point x="-395" y="1384"/>
      <point x="-399" y="1358"/>
      <point x="-410" y="1330" type="curve"/>
      <point x="-410" y="1301" type="line"/>
      <point x="-196" y="1301" type="line"/>
      <point x="-196" y="1330" type="line"/>
      <point x="-279" y="1559"/>
      <point x="-444" y="1696"/>
      <point x="-729" y="1740" type="curve" smooth="yes"/>
      <point x="-1047" y="1791"/>
      <point x="-1144" y="1834"/>
      <point x="-1225" y="1956" type="curve"/>
    </contour>
    <contour>
      <point x="-127" y="665" type="move" name="_class0"/>
    </contour>
  </outline>
</glyph>
<glyph name="esigndeva" format="1">
  <advance width="0"/>
  <unicode hex="0947"/>
  <outline>
    <contour>
      <point x="-1105" y="1932"/>
      <point x="-1160" y="1861"/>
      <point x="-1160" y="1793" type="curve" smooth="yes"/>
      <point x="-1160" y="1711"/>
      <point x="-1080" y="1624"/>
      <point x="-961" y="1588" type="curve"/>
      <point x="-934" y="1627"/>
      <point x="-887" y="1658"/>
      <point x="-821" y="1658" type="curve" smooth="yes"/>
      <point x="-728" y="1658"/>
      <point x="-649" y="1607"/>
      <point x="-421" y="1330" type="curve"/>
      <point x="-421" y="1249" type="line"/>
      <point x="-257" y="1249" type="line"/>
      <point x="-257" y="1330" type="line"/>
      <point x="-616" y="1796"/>
      <point x="-793" y="1932"/>
      <point x="-974" y="1932" type="curve" smooth="yes"/>
    </contour>
  </outline>
</glyph>
<glyph name="ocandrasigndeva" format="1">
  <advance width="543"/>
  <unicode hex="0949"/>
  <outline>
    <contour>
      <point x="-393" y="1892"/>
      <point x="-423" y="1876"/>
      <point x="-423" y="1809" type="curve" smooth="yes"/>
      <point x="-423" y="1673"/>
      <point x="-300" y="1446"/>
      <point x="-37" y="1446" type="curve" smooth="yes"/>
      <point x="156" y="1446"/>
      <point x="285" y="1569"/>
      <point x="285" y="1722" type="curve" smooth="yes"/>
      <point x="285" y="1814"/>
      <point x="241" y="1873"/>
      <point x="150" y="1906" type="curve"/>
      <point x="127" y="1716"/>
      <point x="40" y="1629"/>
      <point x="-90" y="1629" type="curve" smooth="yes"/>
      <point x="-220" y="1629"/>
      <point x="-300" y="1717"/>
      <point x="-354" y="1904" type="curve"/>
    </contour>
    <contour>
      <point x="336" y="1137" type="line"/>
      <point x="579" y="1137" type="line"/>
      <point x="596" y="1160" type="line"/>
      <point x="543" y="1330" type="line"/>
      <point x="-146" y="1330" type="line"/>
      <point x="-163" y="1307" type="line"/>
      <point x="-110" y="1137" type="line"/>
      <point x="96" y="1137" type="line"/>
      <point x="96" y="-21" type="line"/>
      <point x="314" y="-57" type="line"/>
      <point x="336" y="-39" type="line"/>
    </contour>
  </outline>
</glyph>
<glyph name="oshortsigndeva" format="1">
  <advance width="653"/>
  <unicode hex="094A"/>
  <outline>
    <contour>
      <point x="653" y="1330" type="line"/>
      <point x="432.041" y="1330" type="line"/>
      <point x="348.584" y="1559.46"/>
      <point x="184.184" y="1695.83"/>
      <point x="-101" y="1740" type="curve" smooth="yes"/>
      <point x="-419" y="1791"/>
      <point x="-516" y="1834"/>
      <point x="-597" y="1956" type="curve"/>
      <point x="-625" y="1922"/>
      <point x="-635" y="1896"/>
      <point x="-635" y="1852" type="curve" smooth="yes"/>
      <point x="-635" y="1687"/>
      <point x="-455" y="1521"/>
      <point x="0" y="1494" type="curve" smooth="yes"/>
      <point x="187" y="1482"/>
      <point x="233" y="1461"/>
      <point x="233" y="1403" type="curve" smooth="yes"/>
      <point x="233" y="1384.37"/>
      <point x="228.558" y="1357.97"/>
      <point x="218.433" y="1330" type="curve"/>
      <point x="-36" y="1330" type="line"/>
      <point x="-53" y="1307" type="line"/>
      <point x="0" y="1137" type="line"/>
      <point x="206" y="1137" type="line"/>
      <point x="206" y="-21" type="line"/>
      <point x="424" y="-57" type="line"/>
      <point x="446" y="-39" type="line"/>
      <point x="446" y="1137" type="line"/>
      <point x="689" y="1137" type="line"/>
      <point x="706" y="1160" type="line"/>
    </contour>
  </outline>
</glyph>
<glyph name="osigndeva" format="1">
  <advance width="653"/>
  <unicode hex="094B"/>
  <outline>
    <contour>
      <point x="653" y="1330" type="line"/>
      <point x="389.668" y="1330" type="line"/>
      <point x="21.6069" y="1795.63"/>
      <point x="-161.299" y="1932"/>
      <point x="-346" y="1932" type="curve" smooth="yes"/>
      <point x="-477" y="1932"/>
      <point x="-532" y="1861"/>
      <point x="-532" y="1793" type="curve" smooth="yes"/>
      <point x="-532" y="1711"/>
      <point x="-452" y="1624"/>
      <point x="-333" y="1588" type="curve"/>
      <point x="-306" y="1627"/>
      <point x="-259" y="1658"/>
      <point x="-193" y="1658" type="curve" smooth="yes"/>
      <point x="-97.4623" y="1658"/>
      <point x="-15.2275" y="1606.35"/>
      <point x="218.456" y="1330" type="curve"/>
      <point x="-36" y="1330" type="line"/>
      <point x="-53" y="1307" type="line"/>
      <point x="0" y="1137" type="line"/>
      <point x="206" y="1137" type="line"/>
      <point x="206" y="-21" type="line"/>
      <point x="424" y="-57" type="line"/>
      <point x="446" y="-39" type="line"/>
      <point x="446" y="1137" type="line"/>
      <point x="689" y="1137" type="line"/>
      <point x="706" y="1160" type="line"/>
    </contour>
  </outline>
</glyph>
<glyph name="ausigndeva" format="1">
  <advance width="653"/>
  <unicode hex="094C"/>
  <outline>
    <contour>
      <point x="653" y="1330" type="line"/>
      <point x="419.148" y="1330" type="line"/>
      <point x="259.26" y="1854.17"/>
      <point x="91.1199" y="2032"/>
      <point x="-87" y="2032" type="curve" smooth="yes"/>
      <point x="-189" y="2032"/>
      <point x="-235" y="1973"/>
      <point x="-235" y="1911" type="curve" smooth="yes"/>
      <point x="-235" y="1849"/>
      <point x="-188" y="1781"/>
      <point x="-62" y="1731" type="curve"/>
      <point x="-41" y="1755"/>
      <point x="-11" y="1774"/>
      <point x="25" y="1774" type="curve" smooth="yes"/>
      <point x="84" y="1774"/>
      <point x="137" y="1716"/>
      <point x="248" y="1427" type="curve"/>
      <point x="11" y="1624"/>
      <point x="-220" y="1742"/>
      <point x="-352" y="1742" type="curve" smooth="yes"/>
      <point x="-431" y="1742"/>
      <point x="-509" y="1700"/>
      <point x="-509" y="1612" type="curve" smooth="yes"/>
      <point x="-509" y="1534"/>
      <point x="-448" y="1463"/>
      <point x="-313" y="1424" type="curve"/>
      <point x="-288" y="1470"/>
      <point x="-244" y="1497"/>
      <point x="-179" y="1497" type="curve" smooth="yes"/>
      <point x="-102.312" y="1497"/>
      <point x="35.9891" y="1436.52"/>
      <point x="178.106" y="1330" type="curve"/>
      <point x="-35.9999" y="1330" type="line"/>
      <point x="-52.9999" y="1307" type="line"/>
      <point x="0" y="1137" type="line"/>
      <point x="206" y="1137" type="line"/>
      <point x="206" y="-21" type="line"/>
      <point x="424" y="-57" type="line"/>
      <point x="446" y="-39" type="line"/>
      <point x="446" y="1137" type="line"/>
      <point x="689" y="1137" type="line"/>
      <point x="706" y="1160" type="line"/>
    </contour>
  </outline>
</glyph>
<glyph name="viramadeva" format="1">
  <advance width="0"/>
  <unicode hex="094D"/>
  <outline>
    <contour>
      <point x="-548" y="-92"/>
      <point x="-598" y="-127"/>
      <point x="-598" y="-182" type="curve" smooth="yes"/>
      <point x="-598" y="-237"/>
      <point x="-562" y="-282"/>
      <point x="-481" y="-338" type="curve"/>
      <point x="-447" y="-333"/>
      <point x="-395" y="-327"/>
      <point x="-349" y="-327" type="curve" smooth="yes"/>
      <point x="-230" y="-327"/>
      <point x="-106" y="-367"/>
      <point x="87" y="-569" type="curve"/>
      <point x="132" y="-555"/>
      <point x="148" y="-525"/>
      <point x="148" y="-507" type="curve" smooth="yes"/>
      <point x="148" y="-451"/>
      <point x="-9" y="-268"/>
      <point x="-208" y="-160" type="curve" smooth="yes"/>
      <point x="-326" y="-96"/>
      <point x="-399" y="-92"/>
      <point x="-440" y="-92" type="curve" smooth="yes"/>
    </contour>
    <contour>
      <point x="-119" y="42" type="move" name="_class0"/>
    </contour>
  </outline>
</glyph>
<glyph name="awsigndeva" format="1">
  <advance width="653"/>
  <unicode hex="094F"/>
  <outline>
    <contour>
      <point x="653" y="1330" type="line"/>
      <point x="431.775" y="1330" type="line"/>
      <point x="399.576" y="1653.65"/>
      <point x="266.242" y="1808.3"/>
      <point x="-51" y="1871" type="curve" smooth="yes"/>
      <point x="-297" y="1920"/>
      <point x="-362" y="1952"/>
      <point x="-400" y="2043" type="curve"/>
      <point x="-422" y="2017"/>
      <point x="-433" y="1982"/>
      <point x="-433" y="1947" type="curve" smooth="yes"/>
      <point x="-433" y="1849"/>
      <point x="-328" y="1734"/>
      <point x="2.99999" y="1687" type="curve" smooth="yes"/>
      <point x="218.273" y="1656.85"/>
      <point x="258.137" y="1590.2"/>
      <point x="263.643" y="1488.25" type="curve"/>
      <point x="184.603" y="1572.36"/>
      <point x="42.1381" y="1621"/>
      <point x="-188" y="1621" type="curve" smooth="yes"/>
      <point x="-462" y="1621"/>
      <point x="-561" y="1708"/>
      <point x="-639" y="1846" type="curve"/>
      <point x="-656" y="1818"/>
      <point x="-667" y="1790"/>
      <point x="-667" y="1750" type="curve" smooth="yes"/>
      <point x="-667" y="1604"/>
      <point x="-514" y="1437"/>
      <point x="-71.9999" y="1437" type="curve" smooth="yes"/>
      <point x="172" y="1437"/>
      <point x="225" y="1406"/>
      <point x="225" y="1343" type="curve"/>
      <point x="224.412" y="1330" type="line"/>
      <point x="-35.9999" y="1330" type="line"/>
      <point x="-52.9999" y="1307" type="line"/>
      <point x="0" y="1137" type="line"/>
      <point x="206" y="1137" type="line"/>
      <point x="206" y="-21" type="line"/>
      <point x="424" y="-57" type="line"/>
      <point x="446" y="-39" type="line"/>
      <point x="446" y="1137" type="line"/>
      <point x="689" y="1137" type="line"/>
      <point x="706" y="1160" type="line"/>
    </contour>
  </outline>
</glyph>
<glyph name="omdeva" format="1">
  <advance width="1789"/>
  <unicode hex="0950"/>
  <outline>
    <contour>
      <point x="1251" y="1354"/>
      <point x="1305" y="1409"/>
      <point x="1305" y="1475" type="curve" smooth="yes"/>
      <point x="1305" y="1541"/>
      <point x="1251" y="1595"/>
      <point x="1185" y="1595" type="curve" smooth="yes"/>
      <point x="1118" y="1595"/>
      <point x="1063" y="1541"/>
      <point x="1063" y="1475" type="curve" smooth="yes"/>
      <point x="1063" y="1409"/>
      <point x="1118" y="1354"/>
      <point x="1185" y="1354" type="curve" smooth="yes"/>
    </contour>
    <contour>
      <point x="1419" y="1075"/>
      <point x="1548" y="1198"/>
      <point x="1548" y="1351" type="curve" smooth="yes"/>
      <point x="1548" y="1443"/>
      <point x="1504" y="1502"/>
      <point x="1413" y="1535" type="curve"/>
      <point x="1390" y="1345"/>
      <point x="1303" y="1258"/>
      <point x="1173" y="1258" type="curve" smooth="yes"/>
      <point x="1065" y="1258"/>
      <point x="955" y="1346"/>
      <point x="909" y="1533" type="curve"/>
      <point x="870" y="1521"/>
      <point x="840" y="1505"/>
      <point x="840" y="1438" type="curve" smooth="yes"/>
      <point x="840" y="1302"/>
      <point x="963" y="1075"/>
      <point x="1226" y="1075" type="curve" smooth="yes"/>
    </contour>
    <contour>
      <point x="1197" y="963"/>
      <point x="1157" y="671"/>
      <point x="926" y="671" type="curve" smooth="yes"/>
      <point x="902" y="671"/>
      <point x="880" y="673"/>
      <point x="859" y="678" type="curve"/>
      <point x="854" y="684" type="line"/>
      <point x="915" y="741"/>
      <point x="943" y="815"/>
      <point x="943" y="906" type="curve" smooth="yes"/>
      <point x="943" y="1143"/>
      <point x="754" y="1335"/>
      <point x="483" y="1335" type="curve" smooth="yes"/>
      <point x="273" y="1335"/>
      <point x="158" y="1219"/>
      <point x="158" y="1108" type="curve" smooth="yes"/>
      <point x="158" y="1011"/>
      <point x="245" y="947"/>
      <point x="384" y="947" type="curve"/>
      <point x="384" y="1082"/>
      <point x="461" y="1184"/>
      <point x="586" y="1184" type="curve" smooth="yes"/>
      <point x="673" y="1184"/>
      <point x="727" y="1134"/>
      <point x="727" y="1037" type="curve" smooth="yes"/>
      <point x="727" y="899"/>
      <point x="618" y="807"/>
      <point x="364" y="790" type="curve"/>
      <point x="349" y="765" type="line"/>
      <point x="454" y="552" type="line"/>
      <point x="554" y="561"/>
      <point x="638" y="577"/>
      <point x="705" y="600" type="curve"/>
      <point x="748" y="559"/>
      <point x="775" y="498"/>
      <point x="775" y="438" type="curve" smooth="yes"/>
      <point x="775" y="329"/>
      <point x="687" y="252"/>
      <point x="554" y="252" type="curve" smooth="yes"/>
      <point x="358" y="252"/>
      <point x="223" y="419"/>
      <point x="165" y="776" type="curve"/>
      <point x="77" y="769"/>
      <point x="50" y="729"/>
      <point x="50" y="660" type="curve" smooth="yes"/>
      <point x="50" y="478"/>
      <point x="236" y="2"/>
      <point x="634" y="2" type="curve" smooth="yes"/>
      <point x="846" y="2"/>
      <point x="985" y="138"/>
      <point x="985" y="340" type="curve" smooth="yes"/>
      <point x="985" y="393"/>
      <point x="975" y="446"/>
      <point x="958" y="496" type="curve"/>
      <point x="995" y="478"/>
      <point x="1031" y="470"/>
      <point x="1066" y="470" type="curve" smooth="yes"/>
      <point x="1110" y="470"/>
      <point x="1150" y="482"/>
      <point x="1186" y="501" type="curve"/>
      <point x="1257" y="403"/>
      <point x="1365" y="329"/>
      <point x="1488" y="329" type="curve" smooth="yes"/>
      <point x="1625" y="329"/>
      <point x="1739" y="421"/>
      <point x="1739" y="587" type="curve" smooth="yes"/>
      <point x="1739" y="795"/>
      <point x="1561" y="963"/>
      <point x="1404" y="963" type="curve" smooth="yes"/>
    </contour>
    <contour>
      <point x="1358" y="532"/>
      <point x="1323" y="547"/>
      <point x="1293" y="582" type="curve"/>
      <point x="1378" y="663"/>
      <point x="1444" y="759"/>
      <point x="1511" y="759" type="curve" smooth="yes"/>
      <point x="1541" y="759"/>
      <point x="1559" y="744"/>
      <point x="1559" y="698" type="curve" smooth="yes"/>
      <point x="1559" y="611"/>
      <point x="1483" y="532"/>
      <point x="1395" y="532" type="curve" smooth="yes"/>
    </contour>
  </outline>
</glyph>
<glyph name="udattadeva" format="1">
  <advance width="0"/>
  <unicode hex="0951"/>
  <outline>
    <contour>
      <point x="-415" y="1922" type="line"/>
      <point x="-415" y="1469" type="line"/>
      <point x="-216" y="1442" type="line"/>
      <point x="-192" y="1464" type="line"/>
      <point x="-192" y="1917" type="line"/>
      <point x="-391" y="1944" type="line"/>
    </contour>
    <contour>
      <point x="-127" y="666" type="move" name="_class0"/>
    </contour>
  </outline>
</glyph>
<glyph name="gravedeva" format="1">
  <advance width="0"/>
  <unicode hex="0953"/>
  <outline>
    <contour>
      <point x="-208" y="1517" type="line"/>
      <point x="-518" y="1930" type="line"/>
      <point x="-693" y="1870" type="line"/>
      <point x="-383" y="1457" type="line"/>
    </contour>
  </outline>
</glyph>
<glyph name="acutedeva" format="1">
  <advance width="0"/>
  <unicode hex="0954"/>
  <outline>
    <contour>
      <point x="-98" y="1930" type="line"/>
      <point x="-408" y="1517" type="line"/>
      <point x="-233" y="1457" type="line"/>
      <point x="77" y="1870" type="line"/>
    </contour>
    <contour>
      <point x="-143" y="665" type="move" name="_class0"/>
    </contour>
  </outline>
</glyph>
<glyph name="ecandralongsigndeva" format="1">
  <advance width="0"/>
  <unicode hex="0955"/>
  <outline>
    <contour>
      <point x="-679" y="2033"/>
      <point x="-713" y="2019"/>
      <point x="-713" y="1949" type="curve" smooth="yes"/>
      <point x="-713" y="1813"/>
      <point x="-583" y="1586"/>
      <point x="-324" y="1586" type="curve" smooth="yes"/>
      <point x="-105" y="1586"/>
      <point x="32" y="1749"/>
      <point x="32" y="1897" type="curve" smooth="yes"/>
      <point x="32" y="1969"/>
      <point x="-15" y="2013"/>
      <point x="-110" y="2036" type="curve"/>
      <point x="-155" y="1855"/>
      <point x="-247" y="1769"/>
      <point x="-378" y="1769" type="curve" smooth="yes"/>
      <point x="-509" y="1769"/>
      <point x="-589" y="1854"/>
      <point x="-644" y="2044" type="curve"/>
    </contour>
    <contour>
      <point x="-660" y="1375" type="line"/>
      <point x="17" y="1375" type="line"/>
      <point x="34" y="1398" type="line"/>
      <point x="1" y="1528" type="line"/>
      <point x="-676" y="1528" type="line"/>
      <point x="-693" y="1505" type="line"/>
    </contour>
    <contour>
      <point x="-120" y="666" type="move" name="_class0"/>
    </contour>
  </outline>
</glyph>
<glyph name="uesigndeva" format="1">
  <advance width="0"/>
  <unicode hex="0956"/>
  <outline>
    <contour>
      <point x="-1063" y="-105"/>
      <point x="-1078" y="-133"/>
      <point x="-1078" y="-182" type="curve" smooth="yes"/>
      <point x="-1078" y="-317"/>
      <point x="-859" y="-501"/>
      <point x="-561" y="-501" type="curve" smooth="yes"/>
      <point x="-327" y="-501"/>
      <point x="-160" y="-388"/>
      <point x="-160" y="-284" type="curve" smooth="yes"/>
      <point x="-160" y="-207"/>
      <point x="-210" y="-151"/>
      <point x="-293" y="-120" type="curve"/>
      <point x="-368" y="-237"/>
      <point x="-512" y="-300"/>
      <point x="-652" y="-300" type="curve" smooth="yes"/>
      <point x="-814" y="-300"/>
      <point x="-949" y="-216"/>
      <point x="-1042" y="-84" type="curve"/>
    </contour>
  </outline>
</glyph>
<glyph name="uuesigndeva" format="1">
  <advance width="0"/>
  <unicode hex="0957"/>
  <outline>
    <contour>
      <point x="-1063" y="-105"/>
      <point x="-1078" y="-133"/>
      <point x="-1078" y="-182" type="curve" smooth="yes"/>
      <point x="-1078" y="-317"/>
      <point x="-859" y="-501"/>
      <point x="-561" y="-501" type="curve" smooth="yes"/>
      <point x="-327" y="-501"/>
      <point x="-160" y="-388"/>
      <point x="-160" y="-284" type="curve" smooth="yes"/>
      <point x="-160" y="-207"/>
      <point x="-210" y="-151"/>
      <point x="-293" y="-120" type="curve"/>
      <point x="-368" y="-237"/>
      <point x="-512" y="-300"/>
      <point x="-652" y="-300" type="curve" smooth="yes"/>
      <point x="-814" y="-300"/>
      <point x="-949" y="-216"/>
      <point x="-1042" y="-84" type="curve"/>
    </contour>
    <contour>
      <point x="-281" y="-807"/>
      <point x="-151" y="-736"/>
      <point x="-151" y="-639" type="curve" smooth="yes"/>
      <point x="-151" y="-598"/>
      <point x="-181" y="-542"/>
      <point x="-235" y="-509" type="curve"/>
      <point x="-301" y="-569"/>
      <point x="-417" y="-610"/>
      <point x="-571" y="-610" type="curve" smooth="yes"/>
      <point x="-770" y="-610"/>
      <point x="-935" y="-523"/>
      <point x="-1042" y="-384" type="curve"/>
      <point x="-1063" y="-403"/>
      <point x="-1078" y="-428"/>
      <point x="-1078" y="-472" type="curve" smooth="yes"/>
      <point x="-1078" y="-597"/>
      <point x="-832" y="-807"/>
      <point x="-493" y="-807" type="curve" smooth="yes"/>
    </contour>
    <contour>
      <point x="-265" y="0" type="move" name="_class0"/>
    </contour>
  </outline>
</glyph>
<glyph name="khhadeva" format="1">
  <advance width="1696"/>
  <unicode hex="0959"/>
  <outline>
    <contour>
      <point x="1749" y="1160" type="line"/>
      <point x="1696" y="1330" type="line"/>
      <point x="-36" y="1330" type="line"/>
      <point x="-53" y="1307" type="line"/>
      <point x="0" y="1137" type="line"/>
      <point x="339" y="1137" type="line"/>
      <point x="369" y="1058"/>
      <point x="383" y="980"/>
      <point x="383" y="910" type="curve" smooth="yes"/>
      <point x="383" y="842"/>
      <point x="370" y="790"/>
      <point x="340" y="751" type="curve"/>
      <point x="292" y="770"/>
      <point x="247" y="779"/>
      <point x="209" y="779" type="curve" smooth="yes"/>
      <point x="126" y="779"/>
      <point x="78" y="738"/>
      <point x="78" y="652" type="curve" smooth="yes"/>
      <point x="78" y="378"/>
      <point x="564" y="-54"/>
      <point x="877" y="-54" type="curve" smooth="yes"/>
      <point x="993" y="-54"/>
      <point x="1046" y="5"/>
      <point x="1063" y="96" type="curve"/>
      <point x="748" y="135"/>
      <point x="512" y="251"/>
      <point x="350" y="433" type="curve"/>
      <point x="537" y="490"/>
      <point x="597" y="630"/>
      <point x="597" y="776" type="curve" smooth="yes"/>
      <point x="597" y="893"/>
      <point x="558" y="1014"/>
      <point x="506" y="1128" type="curve"/>
      <point x="512" y="1137" type="line"/>
      <point x="1248" y="1137" type="line"/>
      <point x="1248" y="887" type="line"/>
      <point x="1238" y="883" type="line"/>
      <point x="1171" y="947"/>
      <point x="1075" y="986"/>
      <point x="975" y="986" type="curve" smooth="yes"/>
      <point x="806" y="986"/>
      <point x="688" y="873"/>
      <point x="688" y="703" type="curve" smooth="yes"/>
      <point x="688" y="469"/>
      <point x="910" y="256"/>
      <point x="1127" y="256" type="curve" smooth="yes"/>
      <point x="1163" y="256"/>
      <point x="1201" y="262"/>
      <point x="1239" y="275" type="curve"/>
      <point x="1248" y="268" type="line"/>
      <point x="1248" y="-21" type="line"/>
      <point x="1466" y="-57" type="line"/>
      <point x="1488" y="-39" type="line"/>
      <point x="1488" y="1137" type="line"/>
      <point x="1732" y="1137" type="line"/>
    </contour>
    <contour>
      <point x="1176" y="784"/>
      <point x="1248" y="699"/>
      <point x="1248" y="611" type="curve" smooth="yes"/>
      <point x="1248" y="604" type="line" smooth="yes"/>
      <point x="1248" y="511"/>
      <point x="1175" y="448"/>
      <point x="1076" y="448" type="curve" smooth="yes"/>
      <point x="965" y="448"/>
      <point x="895" y="528"/>
      <point x="895" y="620" type="curve" smooth="yes"/>
      <point x="895" y="709"/>
      <point x="961" y="784"/>
      <point x="1065" y="784" type="curve" smooth="yes"/>
    </contour>
    <contour>
      <point x="202" y="76"/>
      <point x="145" y="19"/>
      <point x="145" y="-50" type="curve" smooth="yes"/>
      <point x="145" y="-119"/>
      <point x="202" y="-176"/>
      <point x="272" y="-176" type="curve" smooth="yes"/>
      <point x="341" y="-176"/>
      <point x="397" y="-119"/>
      <point x="397" y="-50" type="curve" smooth="yes"/>
      <point x="397" y="19"/>
      <point x="341" y="76"/>
      <point x="272" y="76" type="curve" smooth="yes"/>
    </contour>
  </outline>
</glyph>
<glyph name="ghhadeva" format="1">
  <advance width="1301"/>
  <unicode hex="095A"/>
  <outline>
    <contour>
      <point x="1301" y="1330" type="line"/>
      <point x="-36" y="1330" type="line"/>
      <point x="-53" y="1307" type="line"/>
      <point x="0" y="1137" type="line"/>
      <point x="284" y="1137" type="line"/>
      <point x="284" y="676" type="line"/>
      <point x="169" y="676" type="line" smooth="yes"/>
      <point x="99" y="676"/>
      <point x="70" y="646"/>
      <point x="70" y="609" type="curve" smooth="yes"/>
      <point x="70" y="517"/>
      <point x="256" y="303"/>
      <point x="405" y="303" type="curve" smooth="yes"/>
      <point x="486" y="303"/>
      <point x="519" y="366"/>
      <point x="519" y="514" type="curve" smooth="yes"/>
      <point x="519" y="1137" type="line"/>
      <point x="874" y="1137" type="line"/>
      <point x="874" y="-21" type="line"/>
      <point x="1092" y="-57" type="line"/>
      <point x="1114" y="-39" type="line"/>
      <point x="1114" y="1137" type="line"/>
      <point x="1337" y="1137" type="line"/>
      <point x="1354" y="1160" type="line"/>
    </contour>
    <contour>
      <point x="472" y="176"/>
      <point x="415" y="119"/>
      <point x="415" y="50" type="curve" smooth="yes"/>
      <point x="415" y="-19"/>
      <point x="472" y="-76"/>
      <point x="542" y="-76" type="curve" smooth="yes"/>
      <point x="611" y="-76"/>
      <point x="667" y="-19"/>
      <point x="667" y="50" type="curve" smooth="yes"/>
      <point x="667" y="119"/>
      <point x="611" y="176"/>
      <point x="542" y="176" type="curve" smooth="yes"/>
    </contour>
  </outline>
</glyph>
<glyph name="zadeva" format="1">
  <advance width="1481"/>
  <unicode hex="095B"/>
  <outline>
    <contour>
      <point x="1481" y="1330" type="line"/>
      <point x="-36" y="1330" type="line"/>
      <point x="-53" y="1307" type="line"/>
      <point x="0" y="1137" type="line"/>
      <point x="1054" y="1137" type="line"/>
      <point x="1054" y="923" type="line"/>
      <point x="458" y="923" type="line"/>
      <point x="441" y="900" type="line"/>
      <point x="494" y="730" type="line"/>
      <point x="622" y="730"/>
      <point x="688" y="649"/>
      <point x="688" y="556" type="curve" smooth="yes"/>
      <point x="688" y="455"/>
      <point x="611" y="399"/>
      <point x="523" y="399" type="curve" smooth="yes"/>
      <point x="374" y="399"/>
      <point x="267" y="557"/>
      <point x="211" y="943" type="curve"/>
      <point x="122" y="935"/>
      <point x="90" y="899"/>
      <point x="90" y="811" type="curve" smooth="yes"/>
      <point x="90" y="635"/>
      <point x="244" y="149"/>
      <point x="596" y="149" type="curve" smooth="yes"/>
      <point x="767" y="149"/>
      <point x="902" y="263"/>
      <point x="902" y="443" type="curve" smooth="yes"/>
      <point x="902" y="542"/>
      <point x="861" y="638"/>
      <point x="781" y="730" type="curve"/>
      <point x="1054" y="730" type="line"/>
      <point x="1054" y="-21" type="line"/>
      <point x="1272" y="-57" type="line"/>
      <point x="1294" y="-39" type="line"/>
      <point x="1294" y="1137" type="line"/>
      <point x="1517" y="1137" type="line"/>
      <point x="1534" y="1160" type="line"/>
    </contour>
    <contour>
      <point x="482" y="46"/>
      <point x="425" y="-11"/>
      <point x="425" y="-80" type="curve" smooth="yes"/>
      <point x="425" y="-149"/>
      <point x="482" y="-206"/>
      <point x="552" y="-206" type="curve" smooth="yes"/>
      <point x="621" y="-206"/>
      <point x="677" y="-149"/>
      <point x="677" y="-80" type="curve" smooth="yes"/>
      <point x="677" y="-11"/>
      <point x="621" y="46"/>
      <point x="552" y="46" type="curve" smooth="yes"/>
    </contour>
  </outline>
</glyph>
<glyph name="dddhadeva" format="1">
  <advance width="1112"/>
  <unicode hex="095C"/>
  <outline>
    <contour>
      <point x="1165" y="1160" type="line"/>
      <point x="1112" y="1330" type="line"/>
      <point x="-36" y="1330" type="line"/>
      <point x="-53" y="1307" type="line"/>
      <point x="0" y="1137" type="line"/>
      <point x="708" y="1137" type="line"/>
      <point x="708" y="1046" type="line" smooth="yes"/>
      <point x="708" y="1033"/>
      <point x="701" y="1026"/>
      <point x="688" y="1026" type="curve" smooth="yes"/>
      <point x="357" y="1026" type="line" smooth="yes"/>
      <point x="225" y="1026"/>
      <point x="164" y="968"/>
      <point x="164" y="879" type="curve" smooth="yes"/>
      <point x="164" y="710"/>
      <point x="381" y="472"/>
      <point x="581" y="472" type="curve" smooth="yes"/>
      <point x="635" y="472"/>
      <point x="739" y="489"/>
      <point x="773" y="489" type="curve" smooth="yes"/>
      <point x="817" y="489"/>
      <point x="830" y="460"/>
      <point x="830" y="425" type="curve" smooth="yes"/>
      <point x="830" y="330"/>
      <point x="735" y="270"/>
      <point x="615" y="270" type="curve" smooth="yes"/>
      <point x="440" y="270"/>
      <point x="266" y="397"/>
      <point x="143" y="636" type="curve"/>
      <point x="99" y="619"/>
      <point x="67" y="589"/>
      <point x="71" y="535" type="curve" smooth="yes"/>
      <point x="81" y="398"/>
      <point x="324" y="39"/>
      <point x="694" y="39" type="curve" smooth="yes"/>
      <point x="886" y="39"/>
      <point x="1020" y="136"/>
      <point x="1020" y="319" type="curve" smooth="yes"/>
      <point x="1020" y="517"/>
      <point x="863" y="716"/>
      <point x="691" y="716" type="curve" smooth="yes"/>
      <point x="647" y="716"/>
      <point x="530" y="703"/>
      <point x="477" y="703" type="curve" smooth="yes"/>
      <point x="402" y="703"/>
      <point x="376" y="729"/>
      <point x="376" y="773" type="curve" smooth="yes"/>
      <point x="376" y="823"/>
      <point x="409" y="855"/>
      <point x="519" y="855" type="curve" smooth="yes"/>
      <point x="922" y="855" type="line"/>
      <point x="942" y="875" type="line"/>
      <point x="942" y="1137" type="line"/>
      <point x="1148" y="1137" type="line"/>
    </contour>
    <contour>
      <point x="541" y="-64"/>
      <point x="484" y="-121"/>
      <point x="484" y="-190" type="curve" smooth="yes"/>
      <point x="484" y="-259"/>
      <point x="541" y="-316"/>
      <point x="611" y="-316" type="curve" smooth="yes"/>
      <point x="680" y="-316"/>
      <point x="736" y="-259"/>
      <point x="736" y="-190" type="curve" smooth="yes"/>
      <point x="736" y="-121"/>
      <point x="680" y="-64"/>
      <point x="611" y="-64" type="curve" smooth="yes"/>
    </contour>
  </outline>
</glyph>
<glyph name="fadeva" format="1">
  <advance width="1560"/>
  <unicode hex="095E"/>
  <outline>
    <contour>
      <point x="1560" y="1330" type="line"/>
      <point x="-36" y="1330" type="line"/>
      <point x="-53" y="1307" type="line"/>
      <point x="0" y="1137" type="line"/>
      <point x="129" y="1137" type="line"/>
      <point x="129" y="745" type="line" smooth="yes"/>
      <point x="129" y="506"/>
      <point x="341" y="301"/>
      <point x="562" y="301" type="curve" smooth="yes"/>
      <point x="600" y="301"/>
      <point x="633" y="307"/>
      <point x="684" y="325" type="curve"/>
      <point x="684" y="-21" type="line"/>
      <point x="892" y="-57" type="line"/>
      <point x="914" y="-39" type="line"/>
      <point x="914" y="518" type="line" smooth="yes"/>
      <point x="914" y="659"/>
      <point x="1042" y="755"/>
      <point x="1153" y="755" type="curve" smooth="yes"/>
      <point x="1230" y="755"/>
      <point x="1261" y="708"/>
      <point x="1261" y="634" type="curve" smooth="yes"/>
      <point x="1261" y="513"/>
      <point x="1177" y="361"/>
      <point x="1047" y="293" type="curve"/>
      <point x="1107" y="206"/>
      <point x="1181" y="170"/>
      <point x="1243" y="170" type="curve" smooth="yes"/>
      <point x="1349" y="170"/>
      <point x="1466" y="278"/>
      <point x="1466" y="496" type="curve" smooth="yes"/>
      <point x="1466" y="773"/>
      <point x="1277" y="942"/>
      <point x="1073" y="942" type="curve" smooth="yes"/>
      <point x="1019" y="942"/>
      <point x="971" y="930"/>
      <point x="914" y="899" type="curve"/>
      <point x="914" y="1137" type="line"/>
      <point x="1596" y="1137" type="line"/>
      <point x="1613" y="1160" type="line"/>
    </contour>
    <contour>
      <point x="684" y="1137" type="line"/>
      <point x="684" y="740" type="line" smooth="yes"/>
      <point x="684" y="601"/>
      <point x="565" y="488"/>
      <point x="461" y="488" type="curve" smooth="yes"/>
      <point x="398" y="488"/>
      <point x="369" y="531"/>
      <point x="369" y="620" type="curve" smooth="yes"/>
      <point x="369" y="1137" type="line"/>
    </contour>
    <contour>
      <point x="302" y="176"/>
      <point x="245" y="119"/>
      <point x="245" y="50" type="curve" smooth="yes"/>
      <point x="245" y="-19"/>
      <point x="302" y="-76"/>
      <point x="372" y="-76" type="curve" smooth="yes"/>
      <point x="441" y="-76"/>
      <point x="497" y="-19"/>
      <point x="497" y="50" type="curve" smooth="yes"/>
      <point x="497" y="119"/>
      <point x="441" y="176"/>
      <point x="372" y="176" type="curve" smooth="yes"/>
    </contour>
  </outline>
</glyph>
<glyph name="rrvocalicdeva" format="1">
  <advance width="1773"/>
  <unicode hex="0960"/>
  <outline>
    <contour>
      <point x="1615" y="178"/>
      <point x="1513" y="128"/>
      <point x="1455" y="128" type="curve" smooth="yes"/>
      <point x="1426" y="128"/>
      <point x="1395" y="141"/>
      <point x="1395" y="176" type="curve" smooth="yes"/>
      <point x="1395" y="221"/>
      <point x="1444" y="284"/>
      <point x="1609" y="381" type="curve"/>
      <point x="1563" y="464"/>
      <point x="1515" y="555"/>
      <point x="1465" y="661" type="curve"/>
      <point x="1523" y="714"/>
      <point x="1557" y="775"/>
      <point x="1557" y="838" type="curve" smooth="yes"/>
      <point x="1557" y="945"/>
      <point x="1458" y="1055"/>
      <point x="1331" y="1055" type="curve" smooth="yes"/>
      <point x="1235" y="1055"/>
      <point x="1193" y="991"/>
      <point x="1193" y="928" type="curve" smooth="yes"/>
      <point x="1193" y="900"/>
      <point x="1201" y="859"/>
      <point x="1235" y="808" type="curve"/>
      <point x="1175" y="767"/>
      <point x="1110" y="739"/>
      <point x="1034" y="724" type="curve"/>
      <point x="1034" y="1137" type="line"/>
      <point x="1807" y="1137" type="line"/>
      <point x="1824" y="1160" type="line"/>
      <point x="1771" y="1330" type="line"/>
      <point x="-36" y="1330" type="line"/>
      <point x="-53" y="1307" type="line"/>
      <point x="0" y="1137" type="line"/>
      <point x="794" y="1137" type="line"/>
      <point x="794" y="770" type="line"/>
      <point x="525" y="971"/>
      <point x="436" y="1019"/>
      <point x="324" y="1019" type="curve" smooth="yes"/>
      <point x="176" y="1019"/>
      <point x="94" y="934"/>
      <point x="94" y="854" type="curve" smooth="yes"/>
      <point x="94" y="787"/>
      <point x="153" y="729"/>
      <point x="260" y="674" type="curve"/>
      <point x="313" y="743"/>
      <point x="389" y="788"/>
      <point x="466" y="788" type="curve" smooth="yes"/>
      <point x="511" y="788"/>
      <point x="563" y="773"/>
      <point x="712" y="668" type="curve"/>
      <point x="535" y="551"/>
      <point x="377" y="425"/>
      <point x="231" y="296" type="curve"/>
      <point x="231" y="268" type="line"/>
      <point x="428" y="98" type="line"/>
      <point x="552" y="212"/>
      <point x="644" y="292"/>
      <point x="794" y="403" type="curve"/>
      <point x="794" y="-21" type="line"/>
      <point x="1012" y="-57" type="line"/>
      <point x="1034" y="-39" type="line"/>
      <point x="1034" y="507" type="line"/>
      <point x="1153" y="512"/>
      <point x="1264" y="541"/>
      <point x="1353" y="586" type="curve"/>
      <point x="1383" y="528" type="line"/>
      <point x="1251" y="449"/>
      <point x="1186" y="377"/>
      <point x="1186" y="291" type="curve" smooth="yes"/>
      <point x="1186" y="143"/>
      <point x="1381" y="-70"/>
      <point x="1591" y="-70" type="curve" smooth="yes"/>
      <point x="1722" y="-70"/>
      <point x="1826" y="13"/>
      <point x="1826" y="97" type="curve" smooth="yes"/>
      <point x="1826" y="179"/>
      <point x="1725" y="250"/>
      <point x="1661" y="267" type="curve"/>
    </contour>
  </outline>
</glyph>
<glyph name="lvocalicsigndeva" format="1">
  <advance width="0"/>
  <unicode hex="0962"/>
  <outline>
    <contour>
      <point x="-313" y="-619"/>
      <point x="-235" y="-579"/>
      <point x="-167" y="-508" type="curve" smooth="yes"/>
      <point x="-125" y="-464"/>
      <point x="-92" y="-416"/>
      <point x="-92" y="-341" type="curve" smooth="yes"/>
      <point x="-92" y="-190"/>
      <point x="-226" y="-80"/>
      <point x="-361" y="-80" type="curve" smooth="yes"/>
      <point x="-416" y="-80"/>
      <point x="-480" y="-98"/>
      <point x="-532" y="-153" type="curve"/>
      <point x="-607" y="-94"/>
      <point x="-674" y="-70"/>
      <point x="-740" y="-70" type="curve" smooth="yes"/>
      <point x="-859" y="-70"/>
      <point x="-928" y="-148"/>
      <point x="-928" y="-258" type="curve" smooth="yes"/>
      <point x="-928" y="-464"/>
      <point x="-684" y="-677"/>
      <point x="-597" y="-677" type="curve" smooth="yes"/>
      <point x="-567" y="-677"/>
      <point x="-531" y="-652"/>
      <point x="-522" y="-611" type="curve"/>
      <point x="-669" y="-531"/>
      <point x="-761" y="-416"/>
      <point x="-761" y="-328" type="curve" smooth="yes"/>
      <point x="-761" y="-264"/>
      <point x="-713" y="-215"/>
      <point x="-647" y="-215" type="curve" smooth="yes"/>
      <point x="-626" y="-215"/>
      <point x="-605" y="-220"/>
      <point x="-584" y="-229" type="curve"/>
      <point x="-603" y="-269"/>
      <point x="-618" y="-319"/>
      <point x="-627" y="-380" type="curve"/>
      <point x="-491" y="-453" type="line"/>
      <point x="-466" y="-440" type="line"/>
      <point x="-435" y="-256"/>
      <point x="-347" y="-215"/>
      <point x="-296" y="-215" type="curve" smooth="yes"/>
      <point x="-259" y="-215"/>
      <point x="-239" y="-237"/>
      <point x="-239" y="-270" type="curve" smooth="yes"/>
      <point x="-239" y="-326"/>
      <point x="-295" y="-381"/>
      <point x="-341" y="-431" type="curve" smooth="yes"/>
      <point x="-403" y="-498"/>
      <point x="-441" y="-552"/>
      <point x="-441" y="-603" type="curve" smooth="yes"/>
      <point x="-441" y="-683"/>
      <point x="-329" y="-793"/>
      <point x="-194" y="-793" type="curve" smooth="yes"/>
      <point x="-104" y="-793"/>
      <point x="-42" y="-744"/>
      <point x="-42" y="-696" type="curve" smooth="yes"/>
      <point x="-42" y="-658"/>
      <point x="-80" y="-621"/>
      <point x="-142" y="-599" type="curve"/>
      <point x="-173" y="-653"/>
      <point x="-239" y="-679"/>
      <point x="-277" y="-679" type="curve" smooth="yes"/>
      <point x="-300" y="-679"/>
      <point x="-313" y="-670"/>
      <point x="-313" y="-651" type="curve" smooth="yes"/>
    </contour>
    <contour>
      <point x="-141" y="37" type="move" name="_class0"/>
    </contour>
  </outline>
</glyph>
<glyph name="danda" format="1">
  <advance width="941"/>
  <unicode hex="0964"/>
  <outline>
    <contour>
      <point x="523" y="1348" type="line"/>
      <point x="501" y="1330" type="line"/>
      <point x="501" y="-61" type="line"/>
      <point x="719" y="-97" type="line"/>
      <point x="741" y="-79" type="line"/>
      <point x="741" y="1312" type="line"/>
    </contour>
  </outline>
</glyph>
<glyph name="dbldanda" format="1">
  <advance width="1341"/>
  <unicode hex="0965"/>
  <outline>
    <contour>
      <point x="501" y="1330" type="line"/>
      <point x="501" y="-61" type="line"/>
      <point x="719" y="-97" type="line"/>
      <point x="741" y="-79" type="line"/>
      <point x="741" y="1312" type="line"/>
      <point x="523" y="1348" type="line"/>
    </contour>
    <contour>
      <point x="901" y="1330" type="line"/>
      <point x="901" y="-61" type="line"/>
      <point x="1119" y="-97" type="line"/>
      <point x="1141" y="-79" type="line"/>
      <point x="1141" y="1312" type="line"/>
      <point x="923" y="1348" type="line"/>
    </contour>
  </outline>
</glyph>
<glyph name="onedeva" format="1">
  <advance width="879"/>
  <unicode hex="0967"/>
  <outline>
    <contour>
      <point x="598" y="167"/>
      <point x="473" y="254"/>
      <point x="403" y="300" type="curve"/>
      <point x="680" y="552"/>
      <point x="794" y="693"/>
      <point x="794" y="863" type="curve" smooth="yes"/>
      <point x="794" y="1081"/>
      <point x="607" y="1287"/>
      <point x="396" y="1287" type="curve" smooth="yes"/>
      <point x="248" y="1287"/>
      <point x="120" y="1187"/>
      <point x="120" y="1023" type="curve" smooth="yes"/>
      <point x="120" y="861.754"/>
      <point x="243.913" y="741.813"/>
      <point x="397.981" y="651.456" type="curve"/>
      <point x="325.233" y="572.65"/>
      <point x="229.269" y="481.402"/>
      <point x="108" y="372" type="curve"/>
      <point x="108" y="342" type="line"/>
      <point x="455" y="106"/>
      <point x="161" y="307"/>
      <point x="494" y="79.9999" type="curve" smooth="yes"/>
      <point x="541" y="47.9999"/>
      <point x="572" y="22.9999"/>
      <point x="572" y="-15" type="curve" smooth="yes"/>
      <point x="572" y="-54"/>
      <point x="540" y="-93"/>
      <point x="469" y="-127" type="curve"/>
      <point x="506" y="-223"/>
      <point x="573" y="-287"/>
      <point x="658" y="-287" type="curve" smooth="yes"/>
      <point x="748" y="-287"/>
      <point x="814" y="-215"/>
      <point x="814" y="-121" type="curve" smooth="yes"/>
      <point x="814" y="-52"/>
      <point x="779" y="29.9999"/>
      <point x="647" y="130" type="curve" smooth="yes"/>
    </contour>
    <contour>
      <point x="360" y="1009"/>
      <point x="410" y="1082"/>
      <point x="487" y="1082" type="curve" smooth="yes"/>
      <point x="543" y="1082"/>
      <point x="578" y="1044"/>
      <point x="578" y="973" type="curve" smooth="yes"/>
      <point x="578" y="906.576"/>
      <point x="547.146" y="835.837"/>
      <point x="481.329" y="749.558" type="curve"/>
      <point x="391.013" y="806.336"/>
      <point x="360" y="863.892"/>
      <point x="360" y="928" type="curve" smooth="yes"/>
    </contour>
  </outline>
</glyph>
<glyph name="twodeva" format="1">
  <advance width="1122"/>
  <unicode hex="0968"/>
  <outline>
    <contour>
      <point x="915" y="73"/>
      <point x="874" y="55"/>
      <point x="823" y="55" type="curve" smooth="yes"/>
      <point x="731.023" y="55"/>
      <point x="669.501" y="113.373"/>
      <point x="593.304" y="273.691" type="curve"/>
      <point x="871.965" y="382.984"/>
      <point x="1019" y="563.452"/>
      <point x="1019" y="787" type="curve" smooth="yes"/>
      <point x="1019" y="1053"/>
      <point x="811" y="1287"/>
      <point x="534" y="1287" type="curve" smooth="yes"/>
      <point x="324" y="1287"/>
      <point x="171" y="1152"/>
      <point x="171" y="1009" type="curve" smooth="yes"/>
      <point x="171" y="900"/>
      <point x="259" y="829"/>
      <point x="397" y="829" type="curve"/>
      <point x="397" y="964"/>
      <point x="493" y="1082"/>
      <point x="646" y="1082" type="curve" smooth="yes"/>
      <point x="745" y="1082"/>
      <point x="816" y="1032"/>
      <point x="816" y="917" type="curve" smooth="yes"/>
      <point x="816" y="784.259"/>
      <point x="721.412" y="616.455"/>
      <point x="493.948" y="512.255" type="curve"/>
      <point x="439.321" y="588.007"/>
      <point x="369.41" y="625"/>
      <point x="298" y="625" type="curve" smooth="yes"/>
      <point x="209" y="625"/>
      <point x="140" y="567"/>
      <point x="140" y="481" type="curve" smooth="yes"/>
      <point x="140" y="368.405"/>
      <point x="259.012" y="247.03"/>
      <point x="456.57" y="244.056" type="curve"/>
      <point x="602.252" y="-89.8929"/>
      <point x="769.527" y="-188"/>
      <point x="903" y="-188" type="curve" smooth="yes"/>
      <point x="1007" y="-188"/>
      <point x="1062" y="-128"/>
      <point x="1062" y="-54" type="curve" smooth="yes"/>
      <point x="1062" y="3.99998"/>
      <point x="1029" y="64"/>
      <point x="967" y="111" type="curve"/>
    </contour>
  </outline>
</glyph>
<glyph name="threedeva" format="1">
  <advance width="1025"/>
  <unicode hex="0969"/>
  <outline>
    <contour>
      <point x="801" y="-52"/>
      <point x="769" y="-63"/>
      <point x="727" y="-63" type="curve" smooth="yes"/>
      <point x="660.036" y="-63"/>
      <point x="622.554" y="-40.1514"/>
      <point x="580.385" y="31.4877" type="curve"/>
      <point x="837.618" y="46.1941"/>
      <point x="965" y="168.223"/>
      <point x="965" y="321" type="curve" smooth="yes"/>
      <point x="965" y="432.531"/>
      <point x="897.903" y="557.944"/>
      <point x="794.865" y="634.928" type="curve"/>
      <point x="889.393" y="693.236"/>
      <point x="932" y="771.435"/>
      <point x="932" y="869" type="curve" smooth="yes"/>
      <point x="932" y="1081"/>
      <point x="731" y="1285"/>
      <point x="454" y="1285" type="curve" smooth="yes"/>
      <point x="248" y="1285"/>
      <point x="130" y="1173"/>
      <point x="130" y="1053" type="curve" smooth="yes"/>
      <point x="130" y="950"/>
      <point x="218" y="877"/>
      <point x="356" y="877" type="curve"/>
      <point x="356" y="1001"/>
      <point x="447" y="1094"/>
      <point x="579" y="1094" type="curve" smooth="yes"/>
      <point x="665" y="1094"/>
      <point x="711" y="1055"/>
      <point x="711" y="982" type="curve" smooth="yes"/>
      <point x="711" y="870"/>
      <point x="605" y="760"/>
      <point x="284" y="740" type="curve"/>
      <point x="268" y="716" type="line"/>
      <point x="366" y="522" type="line"/>
      <point x="480.265" y="532.828"/>
      <point x="575.367" y="550.071"/>
      <point x="652.95" y="573.635" type="curve"/>
      <point x="712.107" y="539.396"/>
      <point x="740" y="494.06"/>
      <point x="740" y="441" type="curve" smooth="yes"/>
      <point x="740" y="351.295"/>
      <point x="664.821" y="269.619"/>
      <point x="500.746" y="247.727" type="curve"/>
      <point x="449.809" y="350.64"/>
      <point x="373.869" y="406"/>
      <point x="289" y="406" type="curve" smooth="yes"/>
      <point x="199" y="406"/>
      <point x="138" y="343"/>
      <point x="138" y="259" type="curve" smooth="yes"/>
      <point x="138" y="144.381"/>
      <point x="252.232" y="40.6425"/>
      <point x="425.189" y="25.7179" type="curve"/>
      <point x="527.704" y="-220.248"/>
      <point x="680.222" y="-296"/>
      <point x="791" y="-296" type="curve" smooth="yes"/>
      <point x="874" y="-296"/>
      <point x="928" y="-245"/>
      <point x="928" y="-178" type="curve" smooth="yes"/>
      <point x="928" y="-127"/>
      <point x="896" y="-68"/>
      <point x="843" y="-27" type="curve"/>
    </contour>
  </outline>
</glyph>
<glyph name="fourdeva" format="1">
  <advance width="1190"/>
  <unicode hex="096A"/>
  <outline>
    <contour>
      <point x="779" y="617" type="line" smooth="yes"/>
      <point x="969" y="866"/>
      <point x="1090" y="1030"/>
      <point x="1140" y="1100" type="curve"/>
      <point x="928" y="1249" type="line"/>
      <point x="687" y="922"/>
      <point x="771" y="1036"/>
      <point x="596" y="802" type="curve" smooth="yes"/>
      <point x="554.137" y="745.686" type="line"/>
      <point x="396.063" y="869.963"/>
      <point x="344" y="900.394"/>
      <point x="344" y="975" type="curve" smooth="yes"/>
      <point x="344" y="1036"/>
      <point x="384" y="1096"/>
      <point x="486" y="1116" type="curve"/>
      <point x="443" y="1220"/>
      <point x="377" y="1281"/>
      <point x="288" y="1281" type="curve" smooth="yes"/>
      <point x="180" y="1281"/>
      <point x="100" y="1191"/>
      <point x="100" y="1069" type="curve" smooth="yes"/>
      <point x="100" y="942.264"/>
      <point x="186.434" y="862.595"/>
      <point x="473.3" y="633.662" type="curve"/>
      <point x="355.018" y="464.799"/>
      <point x="336" y="407.66"/>
      <point x="336" y="345" type="curve" smooth="yes"/>
      <point x="336" y="162"/>
      <point x="497" y="-10.9999"/>
      <point x="709" y="-10.9999" type="curve" smooth="yes"/>
      <point x="852" y="-10.9999"/>
      <point x="964" y="69"/>
      <point x="964" y="226" type="curve" smooth="yes"/>
      <point x="964" y="345.775"/>
      <point x="899.194" y="446.675"/>
      <point x="751.614" y="581.102" type="curve"/>
    </contour>
    <contour>
      <point x="581" y="168"/>
      <point x="547" y="206"/>
      <point x="547" y="261" type="curve" smooth="yes"/>
      <point x="547" y="306.119"/>
      <point x="570.393" y="343.051"/>
      <point x="667.265" y="470.63" type="curve"/>
      <point x="714.723" y="421.291"/>
      <point x="742" y="372.503"/>
      <point x="742" y="309" type="curve" smooth="yes"/>
      <point x="742" y="222"/>
      <point x="690" y="168"/>
      <point x="631" y="168" type="curve" smooth="yes"/>
    </contour>
  </outline>
</glyph>
<glyph name="fivedeva" format="1">
  <advance width="1127"/>
  <unicode hex="096B"/>
  <outline>
    <contour>
      <point x="999" y="458"/>
      <point x="1018" y="519"/>
      <point x="1018" y="580" type="curve" smooth="yes"/>
      <point x="1018" y="713"/>
      <point x="927" y="848"/>
      <point x="792" y="848" type="curve" smooth="yes"/>
      <point x="697" y="848"/>
      <point x="631" y="781"/>
      <point x="631" y="692" type="curve" smooth="yes"/>
      <point x="631" y="633"/>
      <point x="660" y="571"/>
      <point x="716" y="510" type="curve"/>
      <point x="623" y="411"/>
      <point x="537" y="366"/>
      <point x="453" y="366" type="curve" smooth="yes"/>
      <point x="363" y="366"/>
      <point x="312" y="419"/>
      <point x="312" y="510" type="curve" smooth="yes"/>
      <point x="312" y="629"/>
      <point x="397" y="854"/>
      <point x="580" y="1114" type="curve"/>
      <point x="357" y="1264" type="line"/>
      <point x="207" y="1045"/>
      <point x="94" y="812"/>
      <point x="94" y="625" type="curve" smooth="yes"/>
      <point x="94" y="352"/>
      <point x="336" y="154"/>
      <point x="557" y="154" type="curve" smooth="yes"/>
      <point x="678" y="154"/>
      <point x="799" y="213"/>
      <point x="887" y="300" type="curve"/>
      <point x="907" y="264"/>
      <point x="919" y="229"/>
      <point x="919" y="185" type="curve" smooth="yes"/>
      <point x="919" y="97"/>
      <point x="871" y="53"/>
      <point x="743" y="32" type="curve"/>
      <point x="793" y="-98"/>
      <point x="879" y="-149"/>
      <point x="965" y="-149" type="curve" smooth="yes"/>
      <point x="1069" y="-149"/>
      <point x="1137" y="-74"/>
      <point x="1137" y="28" type="curve" smooth="yes"/>
      <point x="1137" y="152"/>
      <point x="1038" y="289"/>
      <point x="966" y="402" type="curve"/>
    </contour>
  </outline>
</glyph>
<glyph name="sixdeva" format="1">
  <advance width="1061"/>
  <unicode hex="096C"/>
  <outline>
    <contour>
      <point x="936" y="176"/>
      <point x="968" y="228"/>
      <point x="968" y="288" type="curve" smooth="yes"/>
      <point x="968" y="382"/>
      <point x="890" y="499"/>
      <point x="773" y="499" type="curve" smooth="yes"/>
      <point x="686" y="499"/>
      <point x="617" y="433"/>
      <point x="617" y="353" type="curve" smooth="yes"/>
      <point x="617" y="319.307"/>
      <point x="629.044" y="288.461"/>
      <point x="650.878" y="259.027" type="curve"/>
      <point x="603.679" y="239.196"/>
      <point x="550.222" y="229"/>
      <point x="509" y="229" type="curve" smooth="yes"/>
      <point x="418" y="229"/>
      <point x="355" y="279"/>
      <point x="355" y="360" type="curve" smooth="yes"/>
      <point x="355" y="453"/>
      <point x="438" y="574"/>
      <point x="788" y="606" type="curve"/>
      <point x="802" y="632" type="line"/>
      <point x="660" y="828" type="line"/>
      <point x="559.508" y="820.174"/>
      <point x="471.267" y="801.86"/>
      <point x="397.454" y="773.95" type="curve"/>
      <point x="374.99" y="804.713"/>
      <point x="366" y="837.092"/>
      <point x="366" y="870" type="curve" smooth="yes"/>
      <point x="366" y="972"/>
      <point x="452" y="1063"/>
      <point x="620" y="1063" type="curve" smooth="yes"/>
      <point x="686" y="1063"/>
      <point x="757" y="1049"/>
      <point x="779" y="1042" type="curve"/>
      <point x="748" y="1211"/>
      <point x="671" y="1282"/>
      <point x="510" y="1282" type="curve" smooth="yes"/>
      <point x="284" y="1282"/>
      <point x="140" y="1163"/>
      <point x="140" y="994" type="curve" smooth="yes"/>
      <point x="140" y="885.537"/>
      <point x="198.704" y="795.21"/>
      <point x="292.703" y="721.701" type="curve"/>
      <point x="196.253" y="658.731"/>
      <point x="143" y="570.462"/>
      <point x="143" y="461" type="curve" smooth="yes"/>
      <point x="143" y="254"/>
      <point x="335" y="41"/>
      <point x="620" y="41" type="curve" smooth="yes"/>
      <point x="694.879" y="41"/>
      <point x="757.363" y="55.551"/>
      <point x="808.639" y="79.1138" type="curve"/>
      <point x="822.706" y="55.275"/>
      <point x="827" y="38.5894"/>
      <point x="827" y="21" type="curve" smooth="yes"/>
      <point x="827" y="-41.9998"/>
      <point x="774" y="-87.9998"/>
      <point x="708" y="-87.9998" type="curve"/>
      <point x="750" y="-185"/>
      <point x="810" y="-252"/>
      <point x="902" y="-252" type="curve" smooth="yes"/>
      <point x="987" y="-252"/>
      <point x="1031" y="-195"/>
      <point x="1031" y="-123" type="curve" smooth="yes"/>
      <point x="1031" y="-62.9998"/>
      <point x="1001" y="11"/>
      <point x="889" y="138" type="curve"/>
    </contour>
  </outline>
</glyph>
<glyph name="eightdeva" format="1">
  <advance width="1061"/>
  <unicode hex="096E"/>
  <outline>
    <contour>
      <point x="1001" y="197"/>
      <point x="799" y="39"/>
      <point x="574" y="39" type="curve" smooth="yes"/>
      <point x="339" y="39"/>
      <point x="110" y="211"/>
      <point x="110" y="459" type="curve" smooth="yes"/>
      <point x="110" y="526"/>
      <point x="127" y="621"/>
      <point x="362" y="866" type="curve" smooth="yes"/>
      <point x="518" y="1029"/>
      <point x="724" y="1211"/>
      <point x="752" y="1239" type="curve"/>
      <point x="964" y="1090" type="line"/>
      <point x="944" y="1071"/>
      <point x="697" y="833"/>
      <point x="548" y="676" type="curve" smooth="yes"/>
      <point x="393" y="512"/>
      <point x="331" y="426"/>
      <point x="331" y="342" type="curve" smooth="yes"/>
      <point x="331" y="276"/>
      <point x="369" y="229"/>
      <point x="461" y="229" type="curve" smooth="yes"/>
      <point x="591" y="229"/>
      <point x="740" y="323"/>
      <point x="862" y="502" type="curve"/>
      <point x="942" y="460"/>
      <point x="1001" y="381"/>
      <point x="1001" y="317" type="curve" smooth="yes"/>
    </contour>
  </outline>
</glyph>
<glyph name="ninedeva" format="1">
  <advance width="945"/>
  <unicode hex="096F"/>
  <outline>
    <contour>
      <point x="720.581" y="538.132"/>
      <point x="830" y="657.522"/>
      <point x="830" y="833" type="curve" smooth="yes"/>
      <point x="830" y="1079"/>
      <point x="615" y="1280"/>
      <point x="392" y="1280" type="curve" smooth="yes"/>
      <point x="193" y="1280"/>
      <point x="77" y="1154"/>
      <point x="77" y="976" type="curve" smooth="yes"/>
      <point x="77" y="812"/>
      <point x="176" y="676"/>
      <point x="364" y="478" type="curve" smooth="yes"/>
      <point x="469" y="368"/>
      <point x="573" y="263"/>
      <point x="573" y="174" type="curve" smooth="yes"/>
      <point x="573" y="123"/>
      <point x="515" y="67"/>
      <point x="433" y="39" type="curve"/>
      <point x="486" y="-72"/>
      <point x="557" y="-129"/>
      <point x="637" y="-129" type="curve" smooth="yes"/>
      <point x="726" y="-129"/>
      <point x="815" y="-57"/>
      <point x="815" y="53" type="curve" smooth="yes"/>
      <point x="815" y="125"/>
      <point x="777" y="188"/>
      <point x="718" y="268" type="curve" smooth="yes"/>
      <point x="655.938" y="351.621"/>
      <point x="567.415" y="458.288"/>
      <point x="507.915" y="528.614" type="curve"/>
    </contour>
    <contour>
      <point x="567" y="1071"/>
      <point x="623" y="1021"/>
      <point x="623" y="937" type="curve" smooth="yes"/>
      <point x="623" y="831.918"/>
      <point x="536.688" y="743.775"/>
      <point x="348.85" y="726.909" type="curve"/>
      <point x="323.035" y="770.842"/>
      <point x="312" y="812.474"/>
      <point x="312" y="872" type="curve" smooth="yes"/>
      <point x="312" y="1001"/>
      <point x="400" y="1071"/>
      <point x="491" y="1071" type="curve" smooth="yes"/>
    </contour>
  </outline>
</glyph>
<glyph name="abbreviationsigndeva" format="1">
  <advance width="1078"/>
  <unicode hex="0970"/>
  <outline>
    <contour>
      <point x="938" y="1119"/>
      <point x="735" y="1326"/>
      <point x="488" y="1326" type="curve" smooth="yes"/>
      <point x="286" y="1326"/>
      <point x="140" y="1187"/>
      <point x="140" y="1010" type="curve" smooth="yes"/>
      <point x="140" y="792"/>
      <point x="360" y="586"/>
      <point x="601" y="586" type="curve" smooth="yes"/>
      <point x="791" y="586"/>
      <point x="938" y="713"/>
      <point x="938" y="900" type="curve" smooth="yes"/>
    </contour>
    <contour>
      <point x="663" y="1124"/>
      <point x="727" y="1076"/>
      <point x="727" y="984" type="curve" smooth="yes"/>
      <point x="727" y="868"/>
      <point x="624" y="783"/>
      <point x="512" y="783" type="curve" smooth="yes"/>
      <point x="420" y="783"/>
      <point x="352" y="841"/>
      <point x="352" y="928" type="curve" smooth="yes"/>
      <point x="352" y="1031"/>
      <point x="446" y="1124"/>
      <point x="572" y="1124" type="curve" smooth="yes"/>
    </contour>
  </outline>
</glyph>
<glyph name="highspacingdotdeva" format="1">
  <advance width="452"/>
  <unicode hex="0971"/>
  <outline>
    <contour>
      <point x="157" y="1362"/>
      <point x="100" y="1305"/>
      <point x="100" y="1236" type="curve" smooth="yes"/>
      <point x="100" y="1167"/>
      <point x="157" y="1110"/>
      <point x="227" y="1110" type="curve" smooth="yes"/>
      <point x="296" y="1110"/>
      <point x="352" y="1167"/>
      <point x="352" y="1236" type="curve" smooth="yes"/>
      <point x="352" y="1305"/>
      <point x="296" y="1362"/>
      <point x="227" y="1362" type="curve" smooth="yes"/>
    </contour>
  </outline>
</glyph>
<glyph name="ooedeva" format="1">
  <advance width="2153"/>
  <unicode hex="0974"/>
  <outline>
    <contour>
      <point x="2153" y="1330" type="line"/>
      <point x="1939" y="1330" type="line"/>
      <point x="1939" y="1597" type="line"/>
      <point x="1740" y="1624" type="line"/>
      <point x="1716" y="1602" type="line"/>
      <point x="1716" y="1330" type="line"/>
      <point x="983" y="1330" type="line"/>
      <point x="966" y="1307" type="line"/>
      <point x="1019" y="1137" type="line"/>
      <point x="1182" y="1137" type="line"/>
      <point x="1182" y="917" type="line" smooth="yes"/>
      <point x="1182" y="780"/>
      <point x="1084" y="706"/>
      <point x="957" y="706" type="curve" smooth="yes"/>
      <point x="935" y="706"/>
      <point x="913" y="708"/>
      <point x="889" y="713" type="curve"/>
      <point x="886" y="723" type="line"/>
      <point x="924" y="773"/>
      <point x="942" y="833"/>
      <point x="942" y="906" type="curve" smooth="yes"/>
      <point x="942" y="1143"/>
      <point x="753" y="1335"/>
      <point x="482" y="1335" type="curve" smooth="yes"/>
      <point x="272" y="1335"/>
      <point x="157" y="1219"/>
      <point x="157" y="1107" type="curve" smooth="yes"/>
      <point x="157" y="1011"/>
      <point x="245" y="947"/>
      <point x="383" y="947" type="curve"/>
      <point x="383" y="1082"/>
      <point x="460" y="1184"/>
      <point x="585" y="1184" type="curve" smooth="yes"/>
      <point x="672" y="1184"/>
      <point x="726" y="1134"/>
      <point x="726" y="1036" type="curve" smooth="yes"/>
      <point x="726" y="906"/>
      <point x="630" y="816"/>
      <point x="403" y="800" type="curve"/>
      <point x="388" y="775" type="line"/>
      <point x="493" y="562" type="line"/>
      <point x="583" y="573"/>
      <point x="659" y="589"/>
      <point x="721" y="612" type="curve"/>
      <point x="772" y="570"/>
      <point x="804" y="507"/>
      <point x="804" y="433" type="curve" smooth="yes"/>
      <point x="804" y="331"/>
      <point x="716" y="252"/>
      <point x="582" y="252" type="curve" smooth="yes"/>
      <point x="384" y="252"/>
      <point x="251" y="425"/>
      <point x="194" y="776" type="curve"/>
      <point x="106" y="769"/>
      <point x="79" y="729"/>
      <point x="79" y="660" type="curve" smooth="yes"/>
      <point x="79" y="479"/>
      <point x="262" y="2"/>
      <point x="667" y="2" type="curve" smooth="yes"/>
      <point x="873" y="2"/>
      <point x="1012" y="138"/>
      <point x="1012" y="320" type="curve" smooth="yes"/>
      <point x="1012" y="394"/>
      <point x="994" y="464"/>
      <point x="962" y="527" type="curve"/>
      <point x="968" y="534" type="line"/>
      <point x="1014" y="516"/>
      <point x="1060" y="507"/>
      <point x="1107" y="507" type="curve" smooth="yes"/>
      <point x="1129" y="507"/>
      <point x="1151" y="509"/>
      <point x="1173" y="513" type="curve"/>
      <point x="1182" y="506" type="line"/>
      <point x="1182" y="-21" type="line"/>
      <point x="1400" y="-57" type="line"/>
      <point x="1422" y="-39" type="line"/>
      <point x="1422" y="1137" type="line"/>
      <point x="1706" y="1137" type="line"/>
      <point x="1706" y="-21" type="line"/>
      <point x="1924" y="-57" type="line"/>
      <point x="1946" y="-39" type="line"/>
      <point x="1946" y="1137" type="line"/>
      <point x="2189" y="1137" type="line"/>
      <point x="2206" y="1160" type="line"/>
    </contour>
  </outline>
</glyph>
<glyph name="awdeva" format="1">
  <advance width="2153"/>
  <unicode hex="0975"/>
  <outline>
    <contour>
      <point x="2153" y="1330" type="line"/>
      <point x="1931.78" y="1330" type="line"/>
      <point x="1899.58" y="1653.65"/>
      <point x="1766.24" y="1808.3"/>
      <point x="1449" y="1871" type="curve" smooth="yes"/>
      <point x="1203" y="1920"/>
      <point x="1138" y="1952"/>
      <point x="1100" y="2043" type="curve"/>
      <point x="1078" y="2017"/>
      <point x="1067" y="1982"/>
      <point x="1067" y="1947" type="curve" smooth="yes"/>
      <point x="1067" y="1849"/>
      <point x="1172" y="1734"/>
      <point x="1503" y="1687" type="curve" smooth="yes"/>
      <point x="1718" y="1657"/>
      <point x="1758" y="1590"/>
      <point x="1764" y="1488" type="curve"/>
      <point x="1685" y="1572"/>
      <point x="1542" y="1621"/>
      <point x="1312" y="1621" type="curve" smooth="yes"/>
      <point x="1038" y="1621"/>
      <point x="939" y="1708"/>
      <point x="861" y="1846" type="curve"/>
      <point x="844" y="1818"/>
      <point x="833" y="1790"/>
      <point x="833" y="1750" type="curve" smooth="yes"/>
      <point x="833" y="1604"/>
      <point x="986" y="1437"/>
      <point x="1428" y="1437" type="curve" smooth="yes"/>
      <point x="1672" y="1437"/>
      <point x="1725" y="1406"/>
      <point x="1725" y="1343" type="curve"/>
      <point x="1724.41" y="1330" type="line"/>
      <point x="983" y="1330" type="line"/>
      <point x="966" y="1307" type="line"/>
      <point x="1019" y="1137" type="line"/>
      <point x="1182" y="1137" type="line"/>
      <point x="1182" y="917" type="line" smooth="yes"/>
      <point x="1182" y="780"/>
      <point x="1084" y="706"/>
      <point x="957" y="706" type="curve" smooth="yes"/>
      <point x="935" y="706"/>
      <point x="913" y="708"/>
      <point x="889" y="713" type="curve"/>
      <point x="886" y="723" type="line"/>
      <point x="924" y="773"/>
      <point x="942" y="833"/>
      <point x="942" y="906" type="curve" smooth="yes"/>
      <point x="942" y="1143"/>
      <point x="753" y="1335"/>
      <point x="482" y="1335" type="curve" smooth="yes"/>
      <point x="272" y="1335"/>
      <point x="157" y="1219"/>
      <point x="157" y="1107" type="curve" smooth="yes"/>
      <point x="157" y="1011"/>
      <point x="245" y="947"/>
      <point x="383" y="947" type="curve"/>
      <point x="383" y="1082"/>
      <point x="460" y="1184"/>
      <point x="585" y="1184" type="curve" smooth="yes"/>
      <point x="672" y="1184"/>
      <point x="726" y="1134"/>
      <point x="726" y="1036" type="curve" smooth="yes"/>
      <point x="726" y="906"/>
      <point x="630" y="816"/>
      <point x="403" y="800" type="curve"/>
      <point x="388" y="775" type="line"/>
      <point x="493" y="562" type="line"/>
      <point x="583" y="573"/>
      <point x="659" y="589"/>
      <point x="721" y="612" type="curve"/>
      <point x="772" y="570"/>
      <point x="804" y="507"/>
      <point x="804" y="433" type="curve" smooth="yes"/>
      <point x="804" y="331"/>
      <point x="716" y="252"/>
      <point x="582" y="252" type="curve" smooth="yes"/>
      <point x="384" y="252"/>
      <point x="251" y="425"/>
      <point x="194" y="776" type="curve"/>
      <point x="106" y="769"/>
      <point x="79" y="729"/>
      <point x="79" y="660" type="curve" smooth="yes"/>
      <point x="79" y="479"/>
      <point x="262" y="2"/>
      <point x="667" y="2" type="curve" smooth="yes"/>
      <point x="873" y="2"/>
      <point x="1012" y="138"/>
      <point x="1012" y="320" type="curve" smooth="yes"/>
      <point x="1012" y="394"/>
      <point x="994" y="464"/>
      <point x="962" y="527" type="curve"/>
      <point x="968" y="534" type="line"/>
      <point x="1014" y="516"/>
      <point x="1060" y="507"/>
      <point x="1107" y="507" type="curve" smooth="yes"/>
      <point x="1129" y="507"/>
      <point x="1151" y="509"/>
      <point x="1173" y="513" type="curve"/>
      <point x="1182" y="506" type="line"/>
      <point x="1182" y="-21" type="line"/>
      <point x="1400" y="-57" type="line"/>
      <point x="1422" y="-39" type="line"/>
      <point x="1422" y="1137" type="line"/>
      <point x="1706" y="1137" type="line"/>
      <point x="1706" y="-21" type="line"/>
      <point x="1924" y="-57" type="line"/>
      <point x="1946" y="-39" type="line"/>
      <point x="1946" y="1137" type="line"/>
      <point x="2189" y="1137" type="line"/>
      <point x="2206" y="1160" type="line"/>
    </contour>
  </outline>
</glyph>
<glyph name="zhadeva" format="1">
  <advance width="1481"/>
  <unicode hex="0979"/>
  <outline>
    <contour>
      <point x="1534" y="1160" type="line"/>
      <point x="1481" y="1330" type="line"/>
      <point x="-36" y="1330" type="line"/>
      <point x="-53" y="1307" type="line"/>
      <point x="0" y="1137" type="line"/>
      <point x="1054" y="1137" type="line"/>
      <point x="1054" y="923" type="line"/>
      <point x="458" y="923" type="line"/>
      <point x="441" y="900" type="line"/>
      <point x="494" y="730" type="line"/>
      <point x="622" y="730"/>
      <point x="688" y="649"/>
      <point x="688" y="556" type="curve" smooth="yes"/>
      <point x="688" y="455"/>
      <point x="611" y="399"/>
      <point x="523" y="399" type="curve" smooth="yes"/>
      <point x="374" y="399"/>
      <point x="267" y="557"/>
      <point x="211" y="943" type="curve"/>
      <point x="118" y="935"/>
      <point x="88" y="894"/>
      <point x="90" y="811" type="curve" smooth="yes"/>
      <point x="94" y="625"/>
      <point x="245" y="149"/>
      <point x="596" y="149" type="curve" smooth="yes"/>
      <point x="767" y="149"/>
      <point x="902" y="262"/>
      <point x="902" y="446" type="curve" smooth="yes"/>
      <point x="902" y="539"/>
      <point x="867" y="640"/>
      <point x="806" y="720" type="curve"/>
      <point x="811" y="730" type="line"/>
      <point x="1054" y="730" type="line"/>
      <point x="1054" y="-21" type="line"/>
      <point x="1272" y="-57" type="line"/>
      <point x="1294" y="-39" type="line"/>
      <point x="1294" y="1137" type="line"/>
      <point x="1517" y="1137" type="line"/>
    </contour>
    <contour>
      <point x="277" y="100"/>
      <point x="232" y="55"/>
      <point x="232" y="0" type="curve" smooth="yes"/>
      <point x="232" y="-55"/>
      <point x="277" y="-100"/>
      <point x="332" y="-100" type="curve" smooth="yes"/>
      <point x="387" y="-100"/>
      <point x="432" y="-55"/>
      <point x="432" y="0" type="curve" smooth="yes"/>
      <point x="432" y="55"/>
      <point x="387" y="100"/>
      <point x="332" y="100" type="curve" smooth="yes"/>
    </contour>
    <contour>
      <point x="751" y="100"/>
      <point x="706" y="55"/>
      <point x="706" y="0" type="curve" smooth="yes"/>
      <point x="706" y="-55"/>
      <point x="751" y="-100"/>
      <point x="806" y="-100" type="curve" smooth="yes"/>
      <point x="861" y="-100"/>
      <point x="907" y="-55"/>
      <point x="907" y="0" type="curve" smooth="yes"/>
      <point x="907" y="55"/>
      <point x="861" y="100"/>
      <point x="806" y="100" type="curve" smooth="yes"/>
    </contour>
    <contour>
      <point x="516" y="-98"/>
      <point x="471" y="-143"/>
      <point x="471" y="-198" type="curve" smooth="yes"/>
      <point x="471" y="-253"/>
      <point x="516" y="-298"/>
      <point x="571" y="-298" type="curve" smooth="yes"/>
      <point x="626" y="-298"/>
      <point x="670" y="-253"/>
      <point x="670" y="-198" type="curve" smooth="yes"/>
      <point x="670" y="-143"/>
      <point x="626" y="-98"/>
      <point x="571" y="-98" type="curve" smooth="yes"/>
    </contour>
  </outline>
</glyph>
<glyph name="yaheavydeva" format="1">
  <advance width="1348"/>
  <unicode hex="097A"/>
  <outline>
    <contour>
      <point x="1308" y="1330" type="line"/>
      <point x="-36" y="1330" type="line"/>
      <point x="-53" y="1307" type="line"/>
      <point x="0" y="1137" type="line"/>
      <point x="358" y="1137" type="line"/>
      <point x="372" y="1101"/>
      <point x="382" y="1058"/>
      <point x="382" y="1013" type="curve" smooth="yes"/>
      <point x="382" y="894"/>
      <point x="314" y="816"/>
      <point x="99" y="754" type="curve"/>
      <point x="87" y="728" type="line"/>
      <point x="259" y="350"/>
      <point x="512" y="201"/>
      <point x="731" y="201" type="curve" smooth="yes"/>
      <point x="789" y="201"/>
      <point x="826" y="209"/>
      <point x="881" y="229" type="curve"/>
      <point x="881" y="-21" type="line"/>
      <point x="1098" y="-57" type="line"/>
      <point x="1120" y="-39" type="line"/>
      <point x="1121" y="1137" type="line"/>
      <point x="1344" y="1137" type="line"/>
      <point x="1361" y="1160" type="line"/>
    </contour>
    <contour>
      <point x="881" y="756.919" type="line"/>
      <point x="604.627" y="1137" type="line"/>
      <point x="881" y="1137" type="line"/>
    </contour>
    <contour>
      <point x="506" y="421"/>
      <point x="412" y="469"/>
      <point x="347" y="568" type="curve"/>
      <point x="514" y="629"/>
      <point x="602" y="726"/>
      <point x="602" y="858" type="curve" smooth="yes"/>
      <point x="602" y="873.171"/>
      <point x="600.917" y="888.724"/>
      <point x="598.807" y="904.591" type="curve"/>
      <point x="847.445" y="562.653" type="line"/>
      <point x="796.811" y="474.314"/>
      <point x="696.411" y="421"/>
      <point x="599" y="421" type="curve" smooth="yes"/>
    </contour>
  </outline>
</glyph>
<glyph name="jjadeva" format="1">
  <advance width="1481"/>
  <unicode hex="097C"/>
  <outline>
    <contour>
      <point x="1481" y="1330" type="line"/>
      <point x="-36" y="1330" type="line"/>
      <point x="-53" y="1307" type="line"/>
      <point x="0" y="1137" type="line"/>
      <point x="1054" y="1137" type="line"/>
      <point x="1054" y="923" type="line"/>
      <point x="458" y="923" type="line"/>
      <point x="441" y="900" type="line"/>
      <point x="494" y="730" type="line"/>
      <point x="622" y="730"/>
      <point x="688" y="649"/>
      <point x="688" y="556" type="curve" smooth="yes"/>
      <point x="688" y="455"/>
      <point x="611" y="399"/>
      <point x="523" y="399" type="curve" smooth="yes"/>
      <point x="374" y="399"/>
      <point x="267" y="557"/>
      <point x="211" y="943" type="curve"/>
      <point x="118" y="935"/>
      <point x="88" y="894"/>
      <point x="90" y="811" type="curve" smooth="yes"/>
      <point x="94" y="625"/>
      <point x="245" y="149"/>
      <point x="596" y="149" type="curve" smooth="yes"/>
      <point x="767" y="149"/>
      <point x="902" y="262"/>
      <point x="902" y="446" type="curve" smooth="yes"/>
      <point x="902" y="539"/>
      <point x="867" y="640"/>
      <point x="806" y="720" type="curve"/>
      <point x="811" y="730" type="line"/>
      <point x="1054" y="730" type="line"/>
      <point x="1054" y="60" type="line"/>
      <point x="122" y="60" type="line"/>
      <point x="105" y="37" type="line"/>
      <point x="148" y="-93" type="line"/>
      <point x="1294" y="-93" type="line"/>
      <point x="1294" y="1137" type="line"/>
      <point x="1517" y="1137" type="line"/>
      <point x="1534" y="1160" type="line"/>
    </contour>
  </outline>
</glyph>
<glyph name="glottalstopdeva" format="1">
  <advance width="965"/>
  <unicode hex="097D"/>
  <outline>
    <contour>
      <point x="555" y="-19" type="line"/>
      <point x="555" y="468" type="line"/>
      <point x="754" y="518"/>
      <point x="905" y="631"/>
      <point x="905" y="855" type="curve" smooth="yes"/>
      <point x="905" y="1128"/>
      <point x="680" y="1335"/>
      <point x="380" y="1335" type="curve" smooth="yes"/>
      <point x="159" y="1335"/>
      <point x="40" y="1222"/>
      <point x="40" y="1103" type="curve" smooth="yes"/>
      <point x="40" y="1000"/>
      <point x="129" y="927"/>
      <point x="266" y="927" type="curve"/>
      <point x="266" y="1051"/>
      <point x="357" y="1144"/>
      <point x="497" y="1144" type="curve" smooth="yes"/>
      <point x="600" y="1144"/>
      <point x="679" y="1093"/>
      <point x="679" y="967" type="curve" smooth="yes"/>
      <point x="679" y="816"/>
      <point x="565" y="698"/>
      <point x="315" y="679" type="curve"/>
      <point x="315" y="-1" type="line"/>
      <point x="533" y="-37" type="line"/>
    </contour>
  </outline>
</glyph>
<glyph name="bbadeva" format="1">
  <advance width="1230"/>
  <unicode hex="097F"/>
  <outline>
    <contour>
      <point x="1230" y="1330" type="line"/>
      <point x="-36" y="1330" type="line"/>
      <point x="-53" y="1307" type="line"/>
      <point x="0" y="1137" type="line"/>
      <point x="813" y="1137" type="line"/>
      <point x="813" y="869" type="line"/>
      <point x="707" y="960"/>
      <point x="589" y="997"/>
      <point x="475" y="997" type="curve" smooth="yes"/>
      <point x="254" y="997"/>
      <point x="89" y="859"/>
      <point x="89" y="658" type="curve" smooth="yes"/>
      <point x="89" y="403"/>
      <point x="355" y="179"/>
      <point x="606" y="179" type="curve" smooth="yes"/>
      <point x="666" y="179"/>
      <point x="738" y="192"/>
      <point x="813" y="224" type="curve"/>
      <point x="813" y="60" type="line"/>
      <point x="113" y="60" type="line"/>
      <point x="96" y="37" type="line"/>
      <point x="139" y="-93" type="line"/>
      <point x="1043" y="-93" type="line"/>
      <point x="1043" y="1137" type="line"/>
      <point x="1266" y="1137" type="line"/>
      <point x="1283" y="1160" type="line"/>
    </contour>
    <contour>
      <point x="813" y="608" type="line" smooth="yes"/>
      <point x="813" y="554.79"/>
      <point x="790.576" y="505.48"/>
      <point x="754.046" y="465.572" type="curve"/>
      <point x="497.182" y="773.361" type="line"/>
      <point x="523.058" y="779.643"/>
      <point x="550.83" y="783"/>
      <point x="580" y="783" type="curve" smooth="yes"/>
      <point x="720" y="783"/>
      <point x="813" y="705"/>
      <point x="813" y="632" type="curve" smooth="yes"/>
    </contour>
    <contour>
      <point x="394" y="368"/>
      <point x="308" y="452"/>
      <point x="308" y="561" type="curve" smooth="yes"/>
      <point x="308" y="611.822"/>
      <point x="326.873" y="657.764"/>
      <point x="359.63" y="694.494" type="curve"/>
      <point x="623.9" y="383.589" type="line"/>
      <point x="592.807" y="373.52"/>
      <point x="559.684" y="368"/>
      <point x="526" y="368" type="curve" smooth="yes"/>
    </contour>
  </outline>
</glyph>
<glyph name="zerowidthjoiner" format="1">
  <advance width="0"/>
  <unicode hex="200D"/>
  <outline>
    <contour>
      <point x="416" y="1954" type="line"/>
      <point x="416" y="2056" type="line"/>
      <point x="0" y="2056" type="line"/>
      <point x="0" y="-492" type="line"/>
      <point x="127" y="-492" type="line"/>
      <point x="127" y="1954" type="line"/>
    </contour>
  </outline>
</glyph>
<glyph name="endash" format="1">
  <advance width="1024"/>
  <unicode hex="2013"/>
  <outline>
    <contour>
      <point x="1034" y="623" type="line"/>
      <point x="1034" y="477" type="line"/>
      <point x="-10" y="477" type="line"/>
      <point x="-10" y="623" type="line"/>
    </contour>
  </outline>
</glyph>
<glyph name="emdash" format="1">
  <advance width="2048"/>
  <unicode hex="2014"/>
  <outline>
    <contour>
      <point x="2058" y="623" type="line"/>
      <point x="2058" y="477" type="line"/>
      <point x="-10" y="477" type="line"/>
      <point x="-10" y="623" type="line"/>
    </contour>
  </outline>
</glyph>
<glyph name="quoteleft" format="1">
  <advance width="573"/>
  <unicode hex="2018"/>
  <outline>
    <contour>
      <point x="115" y="1148"/>
      <point x="141" y="1231"/>
      <point x="199" y="1300" type="curve" smooth="yes"/>
      <point x="257" y="1369"/>
      <point x="348" y="1426"/>
      <point x="481" y="1462" type="curve"/>
      <point x="481" y="1356" type="line"/>
      <point x="421" y="1335"/>
      <point x="377" y="1314"/>
      <point x="347" y="1290" type="curve" smooth="yes"/>
      <point x="317" y="1265"/>
      <point x="301" y="1236"/>
      <point x="301" y="1196" type="curve" smooth="yes"/>
      <point x="301" y="1169"/>
      <point x="317" y="1156"/>
      <point x="340" y="1141" type="curve" smooth="yes"/>
      <point x="351" y="1134"/>
      <point x="363" y="1126"/>
      <point x="376" y="1119" type="curve"/>
      <point x="401" y="1103"/>
      <point x="425" y="1081"/>
      <point x="440" y="1045" type="curve" smooth="yes"/>
      <point x="447" y="1027"/>
      <point x="451" y="1004"/>
      <point x="451" y="977" type="curve" smooth="yes"/>
      <point x="451" y="885"/>
      <point x="387" y="836"/>
      <point x="303" y="836" type="curve" smooth="yes"/>
      <point x="187" y="836"/>
      <point x="115" y="921"/>
      <point x="115" y="1061" type="curve" smooth="yes"/>
    </contour>
  </outline>
</glyph>
<glyph name="quotedblright" format="1">
  <advance width="1001"/>
  <unicode hex="201D"/>
  <outline>
    <contour>
      <point x="459" y="1150"/>
      <point x="434" y="1067"/>
      <point x="375" y="998" type="curve" smooth="yes"/>
      <point x="316" y="929"/>
      <point x="225" y="872"/>
      <point x="92" y="836" type="curve"/>
      <point x="92" y="942" type="line"/>
      <point x="152" y="963"/>
      <point x="197" y="984"/>
      <point x="227" y="1009" type="curve" smooth="yes"/>
      <point x="257" y="1033"/>
      <point x="272" y="1062"/>
      <point x="272" y="1102" type="curve" smooth="yes"/>
      <point x="272" y="1129"/>
      <point x="256" y="1142"/>
      <point x="234" y="1157" type="curve" smooth="yes"/>
      <point x="198" y="1180" type="line"/>
      <point x="172" y="1195"/>
      <point x="149" y="1218"/>
      <point x="134" y="1254" type="curve" smooth="yes"/>
      <point x="127" y="1271"/>
      <point x="123" y="1294"/>
      <point x="123" y="1321" type="curve" smooth="yes"/>
      <point x="123" y="1413"/>
      <point x="186" y="1462"/>
      <point x="270" y="1462" type="curve" smooth="yes"/>
      <point x="386" y="1462"/>
      <point x="459" y="1377"/>
      <point x="459" y="1237" type="curve" smooth="yes"/>
    </contour>
    <contour>
      <point x="887" y="1150"/>
      <point x="862" y="1067"/>
      <point x="803" y="998" type="curve" smooth="yes"/>
      <point x="744" y="929"/>
      <point x="653" y="872"/>
      <point x="520" y="836" type="curve"/>
      <point x="520" y="942" type="line"/>
      <point x="580" y="963"/>
      <point x="625" y="984"/>
      <point x="655" y="1009" type="curve" smooth="yes"/>
      <point x="685" y="1033"/>
      <point x="700" y="1062"/>
      <point x="700" y="1102" type="curve" smooth="yes"/>
      <point x="700" y="1129"/>
      <point x="684" y="1142"/>
      <point x="662" y="1157" type="curve" smooth="yes"/>
      <point x="626" y="1180" type="line"/>
      <point x="600" y="1195"/>
      <point x="577" y="1218"/>
      <point x="562" y="1254" type="curve" smooth="yes"/>
      <point x="555" y="1271"/>
      <point x="551" y="1294"/>
      <point x="551" y="1321" type="curve" smooth="yes"/>
      <point x="551" y="1413"/>
      <point x="614" y="1462"/>
      <point x="698" y="1462" type="curve" smooth="yes"/>
      <point x="814" y="1462"/>
      <point x="887" y="1377"/>
      <point x="887" y="1237" type="curve" smooth="yes"/>
    </contour>
  </outline>
</glyph>
<glyph name="ellipsis" format="1">
  <advance width="1622"/>
  <unicode hex="2026"/>
  <outline>
    <contour>
      <point x="143" y="210"/>
      <point x="162" y="251"/>
      <point x="192" y="276" type="curve" smooth="yes"/>
      <point x="222" y="301"/>
      <point x="264" y="311"/>
      <point x="311" y="311" type="curve" smooth="yes"/>
      <point x="356" y="311"/>
      <point x="398" y="301"/>
      <point x="429" y="276" type="curve" smooth="yes"/>
      <point x="460" y="251"/>
      <point x="479" y="210"/>
      <point x="479" y="147" type="curve" smooth="yes"/>
      <point x="479" y="86"/>
      <point x="460" y="45"/>
      <point x="429" y="20" type="curve" smooth="yes"/>
      <point x="398" y="-5"/>
      <point x="356" y="-16"/>
      <point x="311" y="-16" type="curve" smooth="yes"/>
      <point x="264" y="-16"/>
      <point x="222" y="-5"/>
      <point x="192" y="20" type="curve" smooth="yes"/>
      <point x="162" y="45"/>
      <point x="143" y="86"/>
      <point x="143" y="147" type="curve" smooth="yes"/>
    </contour>
    <contour>
      <point x="643" y="210"/>
      <point x="662" y="251"/>
      <point x="692" y="276" type="curve" smooth="yes"/>
      <point x="722" y="301"/>
      <point x="764" y="311"/>
      <point x="811" y="311" type="curve" smooth="yes"/>
      <point x="856" y="311"/>
      <point x="898" y="301"/>
      <point x="929" y="276" type="curve" smooth="yes"/>
      <point x="960" y="251"/>
      <point x="979" y="210"/>
      <point x="979" y="147" type="curve" smooth="yes"/>
      <point x="979" y="86"/>
      <point x="960" y="45"/>
      <point x="929" y="20" type="curve" smooth="yes"/>
      <point x="898" y="-5"/>
      <point x="856" y="-16"/>
      <point x="811" y="-16" type="curve" smooth="yes"/>
      <point x="764" y="-16"/>
      <point x="722" y="-5"/>
      <point x="692" y="20" type="curve" smooth="yes"/>
      <point x="662" y="45"/>
      <point x="643" y="86"/>
      <point x="643" y="147" type="curve" smooth="yes"/>
    </contour>
    <contour>
      <point x="1143" y="210"/>
      <point x="1162" y="251"/>
      <point x="1192" y="276" type="curve" smooth="yes"/>
      <point x="1222" y="301"/>
      <point x="1264" y="311"/>
      <point x="1311" y="311" type="curve" smooth="yes"/>
      <point x="1356" y="311"/>
      <point x="1398" y="301"/>
      <point x="1429" y="276" type="curve" smooth="yes"/>
      <point x="1460" y="251"/>
      <point x="1479" y="210"/>
      <point x="1479" y="147" type="curve" smooth="yes"/>
      <point x="1479" y="86"/>
      <point x="1460" y="45"/>
      <point x="1429" y="20" type="curve" smooth="yes"/>
      <point x="1398" y="-5"/>
      <point x="1356" y="-16"/>
      <point x="1311" y="-16" type="curve" smooth="yes"/>
      <point x="1264" y="-16"/>
      <point x="1222" y="-5"/>
      <point x="1192" y="20" type="curve" smooth="yes"/>
      <point x="1162" y="45"/>
      <point x="1143" y="86"/>
      <point x="1143" y="147" type="curve" smooth="yes"/>
    </contour>
  </outline>
</glyph>
<glyph name="inr_currency" format="1">
  <advance width="1215"/>
  <unicode hex="20B9"/>
  <outline>
    <contour>
      <point x="1115" y="109" type="line"/>
      <point x="1107" y="109" type="line" smooth="yes"/>
      <point x="1018" y="109"/>
      <point x="958" y="181"/>
      <point x="902" y="276" type="curve" smooth="yes"/>
      <point x="658" y="696" type="line"/>
      <point x="800" y="754"/>
      <point x="904" y="852"/>
      <point x="930" y="1004" type="curve"/>
      <point x="1117" y="1004" type="line"/>
      <point x="1117" y="1125" type="line"/>
      <point x="935" y="1125" type="line"/>
      <point x="927" y="1214"/>
      <point x="894" y="1287"/>
      <point x="832" y="1341" type="curve"/>
      <point x="1117" y="1341" type="line"/>
      <point x="1117" y="1462" type="line"/>
      <point x="100" y="1462" type="line"/>
      <point x="100" y="1341" type="line"/>
      <point x="341" y="1341" type="line" smooth="yes"/>
      <point x="508" y="1341"/>
      <point x="576" y="1275"/>
      <point x="590" y="1125" type="curve"/>
      <point x="100" y="1125" type="line"/>
      <point x="100" y="1004" type="line"/>
      <point x="592" y="1004" type="line"/>
      <point x="582" y="841"/>
      <point x="521" y="754"/>
      <point x="345" y="754" type="curve" smooth="yes"/>
      <point x="100" y="754" type="line"/>
      <point x="100" y="635" type="line"/>
      <point x="366" y="635" type="line"/>
      <point x="609" y="184" type="line" smooth="yes"/>
      <point x="705" y="14"/>
      <point x="830" y="0"/>
      <point x="1048" y="0" type="curve" smooth="yes"/>
      <point x="1115" y="0" type="line"/>
    </contour>
  </outline>
</glyph>
<glyph name="zerocombiningdigitdeva" format="1">
  <advance width="0"/>
  <unicode hex="A8E0"/>
  <outline>
    <contour>
      <point x="-108" y="1813"/>
      <point x="-223" y="1937"/>
      <point x="-361" y="1937" type="curve" smooth="yes"/>
      <point x="-475" y="1937"/>
      <point x="-561" y="1850"/>
      <point x="-561" y="1751" type="curve" smooth="yes"/>
      <point x="-561" y="1632"/>
      <point x="-440" y="1508"/>
      <point x="-304" y="1508" type="curve" smooth="yes"/>
      <point x="-195" y="1508"/>
      <point x="-108" y="1587"/>
      <point x="-108" y="1692" type="curve" smooth="yes"/>
    </contour>
    <contour>
      <point x="-272" y="1820"/>
      <point x="-243" y="1794"/>
      <point x="-243" y="1742" type="curve" smooth="yes"/>
      <point x="-243" y="1672"/>
      <point x="-299" y="1623"/>
      <point x="-353" y="1623" type="curve" smooth="yes"/>
      <point x="-394" y="1623"/>
      <point x="-421" y="1655"/>
      <point x="-421" y="1703" type="curve" smooth="yes"/>
      <point x="-421" y="1766"/>
      <point x="-371" y="1820"/>
      <point x="-312" y="1820" type="curve" smooth="yes"/>
    </contour>
    <contour>
      <point x="-633" y="1781" type="move" name="_class0"/>
    </contour>
  </outline>
</glyph>
<glyph name="onecombiningdigitdeva" format="1">
  <advance width="0"/>
  <unicode hex="A8E1"/>
  <outline>
    <contour>
      <point x="-287" y="1554"/>
      <point x="-331" y="1582"/>
      <point x="-363" y="1603" type="curve"/>
      <point x="-240" y="1710"/>
      <point x="-189" y="1772"/>
      <point x="-189" y="1845" type="curve" smooth="yes"/>
      <point x="-189" y="1944"/>
      <point x="-286" y="2046"/>
      <point x="-398" y="2046" type="curve" smooth="yes"/>
      <point x="-468" y="2046"/>
      <point x="-532" y="1993"/>
      <point x="-532" y="1917" type="curve" smooth="yes"/>
      <point x="-532" y="1847"/>
      <point x="-478" y="1791"/>
      <point x="-409" y="1749" type="curve"/>
      <point x="-445" y="1713"/>
      <point x="-494" y="1669"/>
      <point x="-544" y="1627" type="curve"/>
      <point x="-465" y="1564"/>
      <point x="-339" y="1497"/>
      <point x="-339" y="1470" type="curve" smooth="yes"/>
      <point x="-339" y="1450"/>
      <point x="-353" y="1437"/>
      <point x="-386" y="1422" type="curve"/>
      <point x="-372" y="1383"/>
      <point x="-332" y="1347"/>
      <point x="-280" y="1347" type="curve" smooth="yes"/>
      <point x="-227" y="1347"/>
      <point x="-194" y="1384"/>
      <point x="-194" y="1422" type="curve" smooth="yes"/>
      <point x="-194" y="1453"/>
      <point x="-206" y="1493"/>
      <point x="-273" y="1543" type="curve" smooth="yes"/>
    </contour>
    <contour>
      <point x="-384" y="1908"/>
      <point x="-366" y="1933"/>
      <point x="-347" y="1933" type="curve" smooth="yes"/>
      <point x="-331" y="1933"/>
      <point x="-316" y="1923"/>
      <point x="-316" y="1894" type="curve" smooth="yes"/>
      <point x="-316" y="1869"/>
      <point x="-329" y="1843"/>
      <point x="-355" y="1814" type="curve"/>
      <point x="-376" y="1831"/>
      <point x="-384" y="1851"/>
      <point x="-384" y="1874" type="curve" smooth="yes"/>
    </contour>
  </outline>
</glyph>
<glyph name="twocombiningdigitdeva" format="1">
  <advance width="0"/>
  <unicode hex="A8E2"/>
  <outline>
    <contour>
      <point x="-225" y="1507"/>
      <point x="-237" y="1501"/>
      <point x="-255" y="1501" type="curve" smooth="yes"/>
      <point x="-284" y="1501"/>
      <point x="-302" y="1516"/>
      <point x="-339" y="1578" type="curve"/>
      <point x="-190" y="1625"/>
      <point x="-124" y="1723"/>
      <point x="-124" y="1817" type="curve" smooth="yes"/>
      <point x="-124" y="1936"/>
      <point x="-228" y="2046"/>
      <point x="-364" y="2046" type="curve" smooth="yes"/>
      <point x="-472" y="2046"/>
      <point x="-549" y="1976"/>
      <point x="-549" y="1911" type="curve" smooth="yes"/>
      <point x="-549" y="1856"/>
      <point x="-489" y="1813"/>
      <point x="-407" y="1821" type="curve"/>
      <point x="-411" y="1882"/>
      <point x="-371" y="1934"/>
      <point x="-318" y="1934" type="curve" smooth="yes"/>
      <point x="-285" y="1934"/>
      <point x="-263" y="1916"/>
      <point x="-263" y="1867" type="curve" smooth="yes"/>
      <point x="-263" y="1812"/>
      <point x="-298" y="1747"/>
      <point x="-376" y="1704" type="curve"/>
      <point x="-400" y="1730"/>
      <point x="-437" y="1748"/>
      <point x="-472" y="1748" type="curve" smooth="yes"/>
      <point x="-522" y="1748"/>
      <point x="-557" y="1714"/>
      <point x="-557" y="1673" type="curve" smooth="yes"/>
      <point x="-557" y="1625"/>
      <point x="-510" y="1558"/>
      <point x="-422" y="1558" type="curve"/>
      <point x="-364" y="1418"/>
      <point x="-282" y="1372"/>
      <point x="-220" y="1372" type="curve" smooth="yes"/>
      <point x="-161" y="1372"/>
      <point x="-128" y="1408"/>
      <point x="-128" y="1442" type="curve" smooth="yes"/>
      <point x="-128" y="1471"/>
      <point x="-149" y="1505"/>
      <point x="-192" y="1534" type="curve"/>
    </contour>
  </outline>
</glyph>
<glyph name="threecombiningdigitdeva" format="1">
  <advance width="0"/>
  <unicode hex="A8E3"/>
  <outline>
    <contour>
      <point x="-231" y="1451"/>
      <point x="-253" y="1444"/>
      <point x="-269" y="1444" type="curve" smooth="yes"/>
      <point x="-291" y="1444"/>
      <point x="-302" y="1453"/>
      <point x="-319" y="1483" type="curve"/>
      <point x="-209" y="1495"/>
      <point x="-152" y="1550"/>
      <point x="-152" y="1611" type="curve" smooth="yes"/>
      <point x="-152" y="1658"/>
      <point x="-179" y="1713"/>
      <point x="-225" y="1752" type="curve"/>
      <point x="-185" y="1779"/>
      <point x="-167" y="1811"/>
      <point x="-167" y="1848" type="curve" smooth="yes"/>
      <point x="-167" y="1944"/>
      <point x="-266" y="2045"/>
      <point x="-402" y="2045" type="curve" smooth="yes"/>
      <point x="-505" y="2045"/>
      <point x="-568" y="1985"/>
      <point x="-568" y="1930" type="curve" smooth="yes"/>
      <point x="-568" y="1884"/>
      <point x="-517" y="1845"/>
      <point x="-446" y="1852" type="curve"/>
      <point x="-452" y="1910"/>
      <point x="-407" y="1946"/>
      <point x="-353" y="1946" type="curve" smooth="yes"/>
      <point x="-317" y="1946"/>
      <point x="-300" y="1932"/>
      <point x="-300" y="1900" type="curve" smooth="yes"/>
      <point x="-300" y="1852"/>
      <point x="-343" y="1809"/>
      <point x="-505" y="1794" type="curve"/>
      <point x="-455" y="1690" type="line"/>
      <point x="-401" y="1694"/>
      <point x="-353" y="1702"/>
      <point x="-316" y="1712" type="curve"/>
      <point x="-301" y="1701"/>
      <point x="-293" y="1686"/>
      <point x="-293" y="1665" type="curve" smooth="yes"/>
      <point x="-293" y="1632"/>
      <point x="-317" y="1602"/>
      <point x="-367" y="1590" type="curve"/>
      <point x="-390" y="1631"/>
      <point x="-432" y="1659"/>
      <point x="-476" y="1659" type="curve" smooth="yes"/>
      <point x="-527" y="1659"/>
      <point x="-554" y="1625"/>
      <point x="-554" y="1586" type="curve" smooth="yes"/>
      <point x="-554" y="1535"/>
      <point x="-505" y="1480"/>
      <point x="-392" y="1480" type="curve"/>
      <point x="-341" y="1371"/>
      <point x="-287" y="1343"/>
      <point x="-240" y="1343" type="curve" smooth="yes"/>
      <point x="-201" y="1343"/>
      <point x="-168" y="1368"/>
      <point x="-168" y="1399" type="curve" smooth="yes"/>
      <point x="-168" y="1421"/>
      <point x="-181" y="1449"/>
      <point x="-206" y="1469" type="curve"/>
    </contour>
    <contour>
      <point x="-642" y="1759" type="move" name="_class0"/>
    </contour>
  </outline>
</glyph>
<glyph name="fourcombiningdigitdeva" format="1">
  <advance width="0"/>
  <unicode hex="A8E4"/>
  <outline>
    <contour>
      <point x="-138" y="1890"/>
      <point x="-130" y="1900"/>
      <point x="-92" y="1953" type="curve"/>
      <point x="-214" y="2039" type="line"/>
      <point x="-293" y="1930"/>
      <point x="-321" y="1892"/>
      <point x="-382" y="1814" type="curve"/>
      <point x="-436" y="1856"/>
      <point x="-451" y="1868"/>
      <point x="-451" y="1893" type="curve" smooth="yes"/>
      <point x="-451" y="1918"/>
      <point x="-437" y="1935"/>
      <point x="-384" y="1948" type="curve"/>
      <point x="-405" y="2005"/>
      <point x="-443" y="2043"/>
      <point x="-499" y="2043" type="curve" smooth="yes"/>
      <point x="-557" y="2043"/>
      <point x="-601" y="2002"/>
      <point x="-601" y="1941" type="curve" smooth="yes"/>
      <point x="-601" y="1884"/>
      <point x="-562" y="1840"/>
      <point x="-435" y="1740" type="curve"/>
      <point x="-486" y="1665"/>
      <point x="-495" y="1638"/>
      <point x="-495" y="1610" type="curve" smooth="yes"/>
      <point x="-495" y="1529"/>
      <point x="-414" y="1442"/>
      <point x="-308" y="1442" type="curve" smooth="yes"/>
      <point x="-233" y="1442"/>
      <point x="-172" y="1486"/>
      <point x="-172" y="1559" type="curve" smooth="yes"/>
      <point x="-172" y="1610"/>
      <point x="-201" y="1657"/>
      <point x="-267" y="1719" type="curve"/>
    </contour>
    <contour>
      <point x="-353" y="1551"/>
      <point x="-370" y="1559"/>
      <point x="-370" y="1580" type="curve" smooth="yes"/>
      <point x="-370" y="1597"/>
      <point x="-358" y="1616"/>
      <point x="-326" y="1654" type="curve"/>
      <point x="-311" y="1637"/>
      <point x="-302" y="1619"/>
      <point x="-302" y="1597" type="curve" smooth="yes"/>
      <point x="-302" y="1564"/>
      <point x="-321" y="1551"/>
      <point x="-339" y="1551" type="curve" smooth="yes"/>
    </contour>
  </outline>
</glyph>
<glyph name="fivecombiningdigitdeva" format="1">
  <advance width="0"/>
  <unicode hex="A8E5"/>
  <outline>
    <contour>
      <point x="-176" y="1665"/>
      <point x="-168" y="1691"/>
      <point x="-168" y="1718" type="curve" smooth="yes"/>
      <point x="-168" y="1778"/>
      <point x="-215" y="1848"/>
      <point x="-290" y="1848" type="curve" smooth="yes"/>
      <point x="-343" y="1848"/>
      <point x="-382" y="1809"/>
      <point x="-382" y="1768" type="curve" smooth="yes"/>
      <point x="-382" y="1743"/>
      <point x="-370" y="1716"/>
      <point x="-345" y="1686" type="curve"/>
      <point x="-385" y="1646"/>
      <point x="-413" y="1631"/>
      <point x="-442" y="1631" type="curve" smooth="yes"/>
      <point x="-469" y="1631"/>
      <point x="-486" y="1648"/>
      <point x="-486" y="1686" type="curve" smooth="yes"/>
      <point x="-486" y="1741"/>
      <point x="-446" y="1844"/>
      <point x="-364" y="1959" type="curve"/>
      <point x="-491" y="2045" type="line"/>
      <point x="-568" y="1938"/>
      <point x="-624" y="1826"/>
      <point x="-624" y="1738" type="curve" smooth="yes"/>
      <point x="-624" y="1613"/>
      <point x="-505" y="1516"/>
      <point x="-395" y="1516" type="curve" smooth="yes"/>
      <point x="-345" y="1516"/>
      <point x="-293" y="1537"/>
      <point x="-256" y="1565" type="curve"/>
      <point x="-253" y="1558"/>
      <point x="-252" y="1550"/>
      <point x="-252" y="1540" type="curve" smooth="yes"/>
      <point x="-252" y="1499"/>
      <point x="-273" y="1485"/>
      <point x="-335" y="1478" type="curve"/>
      <point x="-314" y="1413"/>
      <point x="-261" y="1380"/>
      <point x="-212" y="1380" type="curve" smooth="yes"/>
      <point x="-153" y="1380"/>
      <point x="-114" y="1422"/>
      <point x="-114" y="1469" type="curve" smooth="yes"/>
      <point x="-114" y="1524"/>
      <point x="-157" y="1585"/>
      <point x="-191" y="1637" type="curve"/>
    </contour>
  </outline>
</glyph>
<glyph name="sixcombiningdigitdeva" format="1">
  <advance width="0"/>
  <unicode hex="A8E6"/>
  <outline>
    <contour>
      <point x="-133" y="1545"/>
      <point x="-120" y="1568"/>
      <point x="-120" y="1592" type="curve" smooth="yes"/>
      <point x="-120" y="1639"/>
      <point x="-163" y="1687"/>
      <point x="-228" y="1687" type="curve" smooth="yes"/>
      <point x="-272" y="1687"/>
      <point x="-308" y="1659"/>
      <point x="-308" y="1621" type="curve" smooth="yes"/>
      <point x="-308" y="1609"/>
      <point x="-304" y="1593"/>
      <point x="-294" y="1580" type="curve"/>
      <point x="-313" y="1575"/>
      <point x="-319" y="1573"/>
      <point x="-335" y="1573" type="curve" smooth="yes"/>
      <point x="-374" y="1573"/>
      <point x="-396" y="1593"/>
      <point x="-396" y="1625" type="curve" smooth="yes"/>
      <point x="-396" y="1671"/>
      <point x="-353" y="1724"/>
      <point x="-195" y="1736" type="curve"/>
      <point x="-266" y="1840" type="line"/>
      <point x="-311" y="1838"/>
      <point x="-353" y="1830"/>
      <point x="-386" y="1820" type="curve"/>
      <point x="-389" y="1828"/>
      <point x="-391" y="1838"/>
      <point x="-391" y="1848" type="curve" smooth="yes"/>
      <point x="-391" y="1891"/>
      <point x="-359" y="1925"/>
      <point x="-297" y="1925" type="curve" smooth="yes"/>
      <point x="-262" y="1925"/>
      <point x="-225" y="1916"/>
      <point x="-226" y="1914" type="curve"/>
      <point x="-205" y="1908" type="line"/>
      <point x="-200" y="1980"/>
      <point x="-257" y="2044"/>
      <point x="-359" y="2044" type="curve" smooth="yes"/>
      <point x="-459" y="2044"/>
      <point x="-533" y="1982"/>
      <point x="-533" y="1904" type="curve" smooth="yes"/>
      <point x="-533" y="1858"/>
      <point x="-509" y="1817"/>
      <point x="-467" y="1781" type="curve"/>
      <point x="-510" y="1750"/>
      <point x="-532" y="1709"/>
      <point x="-532" y="1664" type="curve" smooth="yes"/>
      <point x="-532" y="1570"/>
      <point x="-437" y="1471"/>
      <point x="-297" y="1471" type="curve" smooth="yes"/>
      <point x="-270" y="1471"/>
      <point x="-245" y="1475"/>
      <point x="-225" y="1481" type="curve"/>
      <point x="-224" y="1478"/>
      <point x="-224" y="1475"/>
      <point x="-224" y="1472" type="curve" smooth="yes"/>
      <point x="-224" y="1446"/>
      <point x="-238" y="1426"/>
      <point x="-271" y="1418" type="curve"/>
      <point x="-256" y="1385"/>
      <point x="-214" y="1357"/>
      <point x="-170" y="1357" type="curve" smooth="yes"/>
      <point x="-127" y="1357"/>
      <point x="-100" y="1390"/>
      <point x="-100" y="1420" type="curve" smooth="yes"/>
      <point x="-100" y="1444"/>
      <point x="-114" y="1472"/>
      <point x="-155" y="1525" type="curve"/>
    </contour>
  </outline>
</glyph>
<glyph name="eightcombiningdigitdeva" format="1">
  <advance width="0"/>
  <unicode hex="A8E8"/>
  <outline>
    <contour>
      <point x="-106" y="1533"/>
      <point x="-206" y="1464"/>
      <point x="-318" y="1464" type="curve" smooth="yes"/>
      <point x="-432" y="1464"/>
      <point x="-547" y="1550"/>
      <point x="-547" y="1663" type="curve" smooth="yes"/>
      <point x="-547" y="1693"/>
      <point x="-539" y="1737"/>
      <point x="-427" y="1853" type="curve" smooth="yes"/>
      <point x="-359" y="1924"/>
      <point x="-267" y="2006"/>
      <point x="-252" y="2021" type="curve"/>
      <point x="-129" y="1940" type="line"/>
      <point x="-134" y="1935"/>
      <point x="-241" y="1832"/>
      <point x="-314" y="1754" type="curve"/>
      <point x="-384" y="1685"/>
      <point x="-407" y="1653"/>
      <point x="-407" y="1620" type="curve" smooth="yes"/>
      <point x="-407" y="1591"/>
      <point x="-392" y="1575"/>
      <point x="-361" y="1575" type="curve" smooth="yes"/>
      <point x="-312" y="1575"/>
      <point x="-252" y="1614"/>
      <point x="-197" y="1700" type="curve"/>
      <point x="-143" y="1680"/>
      <point x="-106" y="1644"/>
      <point x="-106" y="1599" type="curve" smooth="yes"/>
    </contour>
    <contour>
      <point x="-532" y="1670" type="move" name="_class0"/>
    </contour>
  </outline>
</glyph>
